<svg width="768" height="176" viewBox="0 0 768 176" fill="none" xmlns="http://www.w3.org/2000/svg">
<g clip-path="url(#clip0_179_479)">
<path fill-rule="evenodd" clip-rule="evenodd" d="M223.904 41.6285L222.386 40.2228L221.599 96.452L293.46 94.2028L293.066 42.0784L303.356 30.4951L244.428 26.7278L223.904 41.6285ZM284.238 44.7219L284.576 42.4728L248.983 41.7418L284.238 44.7219Z" fill="#1B1C1D"/>
<path d="M165.37 3.11226C165.37 3.11226 196.859 1.59407 221.599 12.5025C221.599 12.5025 220.868 16.045 223.455 16.8322C226.042 17.6194 247.24 18.3504 249.714 17.3945C250.839 16.9446 251.232 9.916 251.232 9.916H252.75C252.75 9.916 251.626 21.5554 247.858 23.8046H243.754L239.649 26.7848C239.649 26.7848 226.885 27.1784 217.157 25.6602C207.43 24.142 170.318 22.68 166.945 22.68C163.571 22.68 154.012 20.8245 152.494 17.7881C152.494 17.7881 164.133 14.8079 170.881 13.852C171.387 13.7958 171.893 12.8961 173.13 12.5588C174.367 12.2214 175.941 13.5147 175.941 13.5147C175.941 13.5147 175.379 11.4342 173.692 11.0968C172.624 10.8719 170.15 11.2655 170.15 11.2655C170.093 10.5907 169.981 9.85977 169.869 9.18502C169.869 9.18502 152.831 12.3901 148.052 13.9645C148.052 13.9645 146.758 13.7958 149.008 13.2335C152.55 11.9402 165.033 9.57862 168.575 8.84764L165.37 3.11226Z" fill="#1B1C1D"/>
<path d="M208.947 40.2239L203.773 40.6737C203.773 40.6737 216.819 25.6043 240.997 25.3794L239.591 26.7851C239.591 26.7289 219.068 27.5723 208.947 40.2239Z" fill="#1B1C1D"/>
<path d="M159.297 20.7119C159.297 20.7119 158.453 23.0735 157.891 23.5234C157.329 23.9732 143.159 32.0702 143.159 32.0702C143.159 32.0702 140.347 33.7571 140.066 34.3194C139.785 34.8817 139.616 36.1187 140.516 36.2874C141.359 36.3999 143.44 36.5685 144.733 37.5244C146.026 38.4803 151.031 43.2598 151.031 43.2598L155.642 42.81C155.642 42.81 144.846 34.9379 143.159 34.8254C141.472 34.713 143.834 33.251 143.834 33.251C143.834 33.251 158.341 24.8166 159.297 24.3668C160.14 24.0294 160.815 23.4671 161.265 22.6799C161.377 22.2301 163.064 20.9931 163.514 21.5554C163.964 22.1176 164.638 20.9931 164.638 20.9931L159.297 20.7119Z" fill="#1B1C1D"/>
<path d="M180.552 22.6798C180.552 22.6798 194.047 29.1462 194.89 29.5398C194.89 29.5398 194.441 29.5398 194.441 30.1021L178.584 42.0227L183.645 41.9102L194.441 32.2388C195.115 31.8452 195.79 31.5078 196.577 31.2267C196.577 31.2267 198.939 29.9896 196.577 29.4273L184.488 22.3987L180.552 22.6798Z" fill="#1B1C1D"/>
<path d="M222.948 40.785L142.259 44.1587L142.54 70.3053L142.259 73.6791C141.247 73.6791 140.179 73.7915 139.167 73.9602C137.93 74.1851 136.074 71.9922 136.074 71.9922L140.291 71.4299V46.1268L140.853 44.4399L73.6596 47.8136L73.9407 64.9635H116.394L73.3784 68.0561V78.7397L70.8481 79.0208L67.4744 77.6151L71.4104 77.0528V50.6251L73.0973 47.5325H71.6916L15.4624 49.7817L14.0566 48.3759L221.992 39.6604L222.948 40.785Z" fill="#1B1C1D"/>
<path d="M14.1143 48.0972V68.0585L15.52 66.6528L15.2388 48.6595L14.1143 48.0972Z" fill="#1B1C1D"/>
<path d="M282.496 122.488C282.496 128.898 277.435 134.127 271.25 134.127C265.065 134.127 260.004 128.954 260.004 122.488C260.004 116.021 265.065 110.848 271.25 110.848C277.435 110.848 282.496 116.077 282.496 122.488Z" fill="#1B1C1D"/>
<path d="M263.997 94.9356L268.496 114.447L271.082 113.716L267.708 94.2046H263.21" fill="#1B1C1D"/>
<path d="M275.242 94.5963L271.868 111.802L274.117 112.927L279.347 93.8091L275.242 94.5963Z" fill="#1B1C1D"/>
<path d="M274.847 113.716L293.965 89.2563L297.001 90.0998L276.703 115.965L274.116 114.447" fill="#1B1C1D"/>
<path d="M305.606 106.967L278.616 116.301L278.954 118.944L306.731 111.466L305.606 106.967Z" fill="#1B1C1D"/>
<path d="M266.974 114.449L253.254 93.3069L250.105 95.3311L264.725 116.698L266.974 114.449Z" fill="#1B1C1D"/>
<path d="M263.602 127.941L246.002 150.095L248.251 154.593L266.244 129.459L263.602 127.941Z" fill="#1B1C1D"/>
<path d="M268.101 131.316L259.835 162.074L263.996 164.716L270.743 131.71L268.101 131.316Z" fill="#1B1C1D"/>
<path d="M271.869 132.046L277.492 165.446L282.328 164.715L274.456 129.796L271.476 131.315" fill="#1B1C1D"/>
<path d="M277.097 130.923L295.484 155.663L298.127 152.683L279.74 128.336L295.878 133.228L304.874 135.871L306.392 134.746L404.962 159.487L409.854 159.093L410.585 153.864L302.231 127.268C302.231 127.268 305.212 120.914 297.733 120.914C293.572 120.97 289.467 120.689 285.363 120.183L286.487 116.809C286.487 116.809 282.72 112.704 278.615 114.166C274.51 115.628 272.599 120.183 272.599 120.183L277.097 130.923Z" fill="#1B1C1D"/>
<path d="M306.505 134.407L296.215 131.708L295.484 134.295L243.753 128.672L237.736 127.941L238.467 129.796L303.693 136.937L306.505 134.407Z" fill="#1B1C1D"/>
<path d="M277.827 113.321L296.552 116.695C296.552 116.695 300.319 115.964 299.194 118.551L298.801 120.8H297.676L297.283 118.944L286.43 116.695L285.306 120.069L281.538 121.924L277.434 114.052" fill="#1B1C1D"/>
<path d="M264.333 114.84L250.107 112.591L251.231 109.948C251.231 109.948 257.585 104.719 249.713 104.719C241.841 104.719 238.861 105.45 238.861 105.45C238.861 105.45 237.005 132.046 238.861 135.42L262.477 125.299L264.333 114.84Z" fill="#1B1C1D"/>
<path d="M272.936 74.0195C250.557 74.0195 232.451 95.2742 232.451 121.421C232.451 147.567 250.557 168.822 272.936 168.822C295.315 168.822 313.421 147.567 313.421 121.421C313.421 95.2742 295.315 74.0195 272.936 74.0195ZM272.768 162.862C254.043 162.862 238.861 144.587 238.861 121.983C238.861 99.3789 254.043 81.1044 272.768 81.1044C291.492 81.1044 306.674 99.3789 306.674 121.983C306.674 144.587 291.492 162.862 272.768 162.862Z" fill="#1B1C1D"/>
<path d="M233.406 127.941L197.982 129.628C197.982 129.628 203.043 167.302 173.241 175.174C173.241 175.174 206.979 157.18 188.423 102.076C188.423 102.076 191.797 99.2642 191.235 97.5773C190.672 95.8904 210.915 109.385 210.915 109.385L214.289 112.197C216.032 113.659 217.55 115.346 218.787 117.258C220.474 120.069 232.844 115.008 232.844 115.008L233.406 127.941Z" fill="#1B1C1D"/>
<path d="M212.602 112.759L233.406 111.635L240.716 95.3284L226.659 96.453L199.669 97.0152L212.602 112.759Z" fill="#1B1C1D"/>
<path d="M181.395 97.8591L161.152 120.351L161.715 122.6L187.861 119.226C187.861 119.226 187.299 110.792 181.395 97.8591Z" fill="#1B1C1D"/>
<path d="M179.709 95.6087L176.054 90.5481L174.367 95.4962H166.72L168.463 83.5194L165.933 81.2703L157.779 116.695L158.623 118.382L179.709 95.6087Z" fill="#1B1C1D"/>
<path d="M178.866 80.71C178.866 80.71 182.802 84.3649 183.364 85.4895C183.927 86.6141 183.927 64.6847 183.927 64.6847L180.272 64.4036V78.4609L178.022 79.3043L178.866 80.71Z" fill="#1B1C1D"/>
<path d="M152.437 77.0549L156.373 95.8917H160.871L156.373 113.323L151.031 77.0549H152.437Z" fill="#1B1C1D"/>
<path d="M152.437 77.0544C152.437 77.0544 138.099 72.5561 125.166 96.7347L138.38 98.1404L136.693 96.0599H130.114C130.114 96.0599 135.006 79.3036 152.437 77.0544Z" fill="#1B1C1D"/>
<path d="M143.609 96.0591H150.019L151.875 111.072L143.609 96.0591Z" fill="#1B1C1D"/>
<path d="M234.531 128.222L199.5 129.459C199.5 129.459 201.749 168.088 173.241 175.173C173.241 175.173 205.854 158.023 188.423 102.075L185.443 95.4966L242.684 95.3279L233.406 111.915L213.726 112.197L217.1 115.57L232.844 115.008L234.531 128.222Z" fill="#1B1C1D"/>
<path d="M125.728 95.6091C125.728 95.6091 122.917 103.481 122.636 104.325C122.355 105.168 125.166 102.919 127.134 103.762C129.102 104.606 148.22 116.695 148.22 116.695C148.22 116.695 137.818 96.1714 136.693 95.8903C135.568 95.6091 129.215 96.059 129.215 96.059L125.728 95.6091Z" fill="#1B1C1D"/>
<path d="M122.635 104.325C122.635 104.325 120.105 117.257 121.792 127.379L124.884 126.816C124.884 126.816 124.603 113.884 124.884 112.478C124.884 112.478 131.632 111.916 132.475 112.197C133.319 112.478 124.603 107.417 124.603 107.417C124.603 107.417 123.198 106.855 122.635 104.325Z" fill="#1B1C1D"/>
<path d="M136.974 128.785L122.354 130.472C122.354 130.472 124.323 140.312 125.728 143.686C127.134 147.06 129.945 147.341 129.945 147.341C129.945 147.341 125.728 135.533 125.447 132.159L136.974 128.785Z" fill="#1B1C1D"/>
<path d="M215.976 47.2531C216.988 47.9841 217.606 49.1087 217.662 50.3457C217.662 52.3137 219.63 50.908 219.63 49.7834C219.63 49.2211 219.518 47.8716 219.349 46.6346C219.181 45.3975 219.068 44.4417 219.068 44.4417L215.976 47.2531Z" fill="#1B1C1D"/>
<path d="M215.976 73.6806C216.988 74.4116 217.606 75.5362 217.662 76.7732C217.662 78.7412 219.63 77.3355 219.63 76.2109C219.63 75.6486 219.518 74.2991 219.349 73.0621C219.181 71.825 219.068 70.8691 219.068 70.8691L215.976 73.6806Z" fill="#1B1C1D"/>
<path d="M188.424 122.6L162.558 125.974C162.558 125.974 161.996 122.319 161.153 121.475C160.309 120.632 157.498 125.13 154.686 122.881C151.875 120.632 150.188 118.664 148.501 119.226C146.814 119.788 152.999 119.788 152.156 127.942C151.313 136.095 147.376 135.252 147.376 135.252L130.227 151.839L131.632 154.088L148.782 136.938L151.875 140.312L144.565 165.896L147.095 166.74L155.249 140.874C155.249 140.874 157.498 142.842 158.341 143.124L161.434 170.845H164.414L161.04 138.063C161.04 138.063 161.434 133.396 169.868 138.063C178.303 142.73 170.993 136.77 170.993 136.77L164.077 133.227C164.077 133.227 160.871 130.416 163.346 128.898C165.82 127.379 174.198 127.604 177.572 128.898C180.945 130.191 188.649 128.729 188.649 128.729C188.649 128.729 188.986 124.399 188.424 122.6Z" fill="#1B1C1D"/>
<path d="M146.815 120.632C146.815 120.632 141.023 120.238 141.754 124.568C142.485 128.898 144.734 130.922 147.771 131.878C148.502 131.765 149.176 131.372 149.626 130.753C150.189 129.797 150.92 126.648 150.357 125.524L147.939 125.13C147.939 125.13 147.939 127.211 146.646 126.817C145.353 126.423 142.71 124.399 145.128 123.837C147.546 123.275 148.502 123.106 148.502 123.106C148.502 123.106 148.727 121.025 146.815 120.632Z" fill="#1B1C1D"/>
<path d="M13.5508 48.6592V68.6205L14.9565 67.2148L14.6754 49.2215L13.5508 48.6592Z" fill="#1B1C1D"/>
<path d="M118.138 96.284L66.9697 96.4527C66.9697 96.4527 68.6566 109.385 68.6566 111.072L117.857 106.855C117.857 106.855 118.869 98.0271 120.556 96.0591L118.138 96.284Z" fill="#1B1C1D"/>
<path d="M118.867 96.2859H65.8428C65.8428 96.2859 68.6542 109.444 68.6542 111.13L117.855 106.913C117.855 106.913 118.867 98.4788 120.554 96.5108L118.867 96.2859Z" fill="#1B1C1D"/>
<path d="M59.6593 89.1428C59.6593 89.1428 65.0011 104.044 64.4388 121.193C63.8765 138.343 58.5347 154.65 46.7266 161.96C46.7266 161.96 70.624 156.618 68.9371 112.759C68.9371 112.759 67.2502 92.7977 63.5953 88.0182C59.9404 83.2387 59.6593 89.1428 59.6593 89.1428Z" fill="#1B1C1D"/>
<path d="M49.8193 68.0565C49.8193 68.0565 52.9119 70.3056 54.0365 72.2737C55.1611 74.2417 54.3177 65.8073 54.3177 65.8073L50.6628 64.9639L49.8193 68.0565Z" fill="#1B1C1D"/>
<path d="M54.8806 89.4226L35.7627 108.541V109.384L59.9413 106.01L59.6601 104.604L43.0725 104.323L48.1331 99.825L51.788 101.793L58.8167 102.636C58.8167 102.636 57.4109 92.7964 54.8806 89.4226Z" fill="#1B1C1D"/>
<path d="M54.0372 87.1735L48.4142 78.1768L46.4462 84.9243L42.7913 87.1735L46.7274 75.3654L44.7593 73.1162C44.7593 73.1162 34.0758 102.918 33.7946 104.886C33.5135 106.854 37.4495 104.042 37.4495 104.042L40.8233 95.0456L43.9159 97.0136L53.756 88.0169" fill="#1B1C1D"/>
<path d="M36.6065 91.6739L34.3574 91.3928L34.6385 66.6519C33.9638 66.0896 33.1765 65.6398 32.3893 65.2462C31.5459 64.965 31.5459 102.639 31.5459 102.639L36.6065 91.6739Z" fill="#1B1C1D"/>
<path d="M36.3242 112.76L59.9405 109.667L60.5028 112.198C60.5028 112.198 45.0397 112.198 44.4775 116.134C44.4775 116.134 37.4488 113.603 36.3242 113.603" fill="#1B1C1D"/>
<path d="M28.4514 64.1208C28.4514 64.1208 9.89575 61.0282 1.74252 89.1428C1.74252 89.1428 -2.19353 106.574 1.74252 122.599L7.92773 131.877C7.92773 131.877 4.27283 119.225 4.27283 118.382L17.2055 115.571L2.02366 116.695C2.02366 116.695 0.055641 114.727 2.02366 114.446L3.99168 114.165C3.99168 114.165 2.8671 100.951 3.99168 98.7018C5.11627 96.4526 1.74252 97.2961 1.74252 97.2961C1.74252 97.2961 1.18022 94.7657 2.58595 94.7657H3.99168L8.49002 80.9896L7.36544 79.5839C7.36544 79.5839 7.36543 77.3347 9.6146 78.1781L13.5506 73.1175V79.3027L14.9564 80.9896L15.2375 71.1495C15.2375 71.1495 17.4867 66.9323 18.6113 67.4946C19.7359 68.0569 27.6079 94.2035 28.4514 98.9829L29.8571 98.7018L30.1383 93.0789C30.1383 93.0789 21.985 70.0249 21.4227 68.9003C21.4227 68.9003 19.4547 65.5266 28.4514 64.1208Z" fill="#1B1C1D"/>
<path d="M23.1093 106.012C23.1093 106.012 19.0045 106.743 18.7796 107.699C18.5547 108.655 19.3419 108.655 19.5106 109.78C19.6793 110.904 18.9483 112.422 18.9483 112.422C18.9483 112.422 19.9042 113.547 20.0729 112.985C20.2416 112.422 22.4907 108.486 24.0089 110.173C25.5271 111.86 23.6153 112.591 23.053 112.816C22.4907 113.041 19.848 113.547 20.6352 114.672C21.4224 115.796 23.053 118.214 24.1776 117.089C25.3022 115.965 25.6958 113.322 25.3022 111.86C24.9086 110.398 25.4709 109.78 26.0332 111.467C26.5955 113.153 26.4268 117.652 25.8645 118.608C25.3022 119.564 23.6153 120.463 23.053 120.857C22.4907 121.25 7.47754 135.476 7.47754 135.476L9.72671 138.457C9.72671 138.457 9.89539 135.251 10.6826 134.689C11.4698 134.127 24.7399 121.588 24.7399 121.588C24.7399 121.588 27.945 120.294 27.7201 122.881C27.4951 125.468 17.4301 150.827 17.4301 150.827L19.848 152.683L29.5756 126.817L30.1379 129.46C30.1379 129.46 31.2625 130.753 31.2625 131.54C31.2625 132.328 30.7002 156.112 30.7002 156.112L32.7807 156.281L33.5117 129.46C33.5117 129.46 35.3672 128.898 35.9295 129.291C36.4918 129.685 44.5326 157.012 44.5326 157.012L46.0508 156.056L38.01 125.692L38.5723 125.13C38.5723 125.13 35.0298 121.025 36.1544 120.632C37.279 120.238 39.6969 120.463 39.6969 120.463L40.8215 120.857C40.8215 120.857 36.7167 117.652 36.1544 117.089C35.5921 116.527 35.5921 114.447 36.3231 114.278C37.0541 114.109 37.8413 112.985 37.8413 112.985C37.8413 112.985 35.5921 109.78 36.3231 109.442C37.0541 109.105 35.9295 108.149 35.9295 108.149C35.9295 108.149 35.1985 108.318 33.849 106.631C32.4995 104.944 31.5999 105.675 31.5999 105.675C31.5999 105.675 30.8689 108.318 29.7443 108.655C28.6197 108.992 25.9769 106.799 25.9769 106.799C25.9769 106.799 25.5271 104.888 23.1093 106.012Z" fill="#1B1C1D"/>
<path d="M15.6318 92.7417C15.7443 93.9787 15.8005 95.2158 15.8005 96.5091H18.4433L15.6318 92.7417Z" fill="#1B1C1D"/>
<path d="M220.981 12.7278C220.981 12.7278 250.389 9.52271 252.638 9.52271L251.514 10.816C251.514 10.816 224.917 12.5029 221.712 13.2338L220.981 12.7278Z" fill="#1B1C1D"/>
<path d="M168.575 8.68015L164.189 1.37036C164.189 1.37036 142.991 6.2623 140.573 6.99328L146.027 14.1344C146.027 14.1344 144.903 18.2391 147.714 18.2391C150.526 18.2391 167.788 14.1344 168.519 14.1344L168.913 15.0903C168.913 15.0903 149.064 19.0263 148.277 19.195C147.489 19.3637 143.778 20.1509 144.903 14.528L138.155 6.48721C138.155 6.48721 163.065 0.302002 164.414 0.302002L166.27 3.84444L168.575 8.68015Z" fill="#1B1C1D"/>
<path d="M141.697 61.0847H176.222L141.697 63.3339V61.0847Z" fill="#1B1C1D"/>
<path d="M151.875 111.074L136.975 83.9718L137.931 83.0159L151.875 111.074Z" fill="#1B1C1D"/>
</g>
<path d="M354.545 88.3936V85.9428C356.427 85.8438 357.714 85.423 358.407 84.6804C359.1 83.8882 359.472 82.8238 359.521 81.487C359.62 80.1007 359.67 78.5412 359.67 76.8084V44.7263C359.67 43.7361 359.694 42.7955 359.744 41.9043C359.793 40.9636 359.843 40.122 359.892 39.3793C359.001 39.4288 358.11 39.4783 357.219 39.5278C356.328 39.5774 355.437 39.6269 354.545 39.6764V36.4088H371.255V38.8595C369.423 38.909 368.136 39.3298 367.393 40.122C366.7 40.9141 366.304 41.9786 366.205 43.3153C366.155 44.6521 366.131 46.2116 366.131 47.9939V79.8532C366.131 81.1899 366.106 82.3287 366.056 83.2693C366.056 84.21 366.007 85.0022 365.908 85.6458L379.795 85.423C382.914 85.3735 385.266 84.3833 386.85 82.4524C388.484 80.5216 389.301 77.3777 389.301 73.0209H391.826L391.38 88.3936H354.545ZM391.954 88.3936V85.9428C393.439 85.9428 394.578 85.5468 395.37 84.7546C396.163 83.9625 396.806 82.8733 397.301 81.487C397.846 80.1007 398.465 78.4917 399.158 76.6598L414.456 34.9977H416.239L432.799 77.254C433.195 78.2937 433.641 79.6304 434.136 81.2642C434.631 82.898 434.829 84.2843 434.73 85.423C435.572 85.3735 436.414 85.324 437.255 85.2745C438.097 85.225 438.939 85.1754 439.78 85.1259V88.3936H422.774V85.9428C424.655 85.8933 425.893 85.4725 426.487 84.6804C427.081 83.8882 427.304 82.9475 427.155 81.8583C427.007 80.7691 426.759 79.7789 426.413 78.8878L423.813 71.9069L404.505 72.3525L401.906 80.2988C401.559 81.487 401.237 82.4277 400.94 83.1208C400.693 83.8139 400.396 84.5813 400.049 85.423C401.039 85.3735 402.005 85.324 402.945 85.2745C403.935 85.225 404.901 85.1754 405.842 85.1259V88.3936H391.954ZM405.619 69.1592H422.774L417.501 54.9748C416.956 53.44 416.387 51.9299 415.793 50.4446C415.248 48.9099 414.704 47.3751 414.159 45.8403H414.011C413.516 47.2265 412.996 48.6128 412.451 49.9991C411.956 51.3853 411.436 52.7963 410.892 54.2321L405.619 69.1592ZM483.594 89.5818L453.963 49.7763C453.517 49.1822 453.072 48.6128 452.626 48.0682C452.23 47.4741 451.809 46.88 451.364 46.2859H451.289L451.512 78.0709C451.512 79.3086 451.512 80.5463 451.512 81.7841C451.512 83.0218 451.463 84.2348 451.364 85.423C452.255 85.3735 453.146 85.324 454.037 85.2745C454.928 85.225 455.82 85.1754 456.711 85.1259V88.3936H443.12V85.9428C444.655 85.9428 445.744 85.621 446.388 84.9774C447.081 84.2843 447.527 83.4921 447.725 82.601C447.923 81.6603 448.022 80.8186 448.022 80.076L448.096 44.355C448.096 43.5133 448.096 42.6717 448.096 41.83C448.096 40.9884 448.096 40.1715 448.096 39.3793C447.304 39.4288 446.487 39.4783 445.645 39.5278C444.804 39.5774 443.962 39.6269 443.12 39.6764V36.4088H451.958L479.807 73.6893C480.45 74.5309 481.069 75.3726 481.663 76.2143C482.307 77.0559 482.951 77.8976 483.594 78.7392H483.669L483.743 44.7263C483.743 43.7361 483.768 42.7955 483.817 41.9043C483.867 40.9636 483.916 40.122 483.966 39.3793C483.074 39.4288 482.183 39.4783 481.292 39.5278C480.401 39.5774 479.51 39.6269 478.619 39.6764V36.4088H492.283V38.8595C490.451 38.909 489.189 39.3298 488.496 40.122C487.803 40.9141 487.431 41.9786 487.382 43.3153C487.332 44.6521 487.307 46.2116 487.307 47.9939L487.159 89.5818H483.594ZM533.562 52.9696C533.067 48.3157 531.433 44.7016 528.66 42.1271C525.937 39.5526 522.422 38.2654 518.115 38.2654C515.491 38.2654 513.015 38.8347 510.688 39.9734C508.411 41.0626 506.406 42.6469 504.673 44.7263C502.94 46.8057 501.579 49.3059 500.589 52.227C499.598 55.148 499.103 58.4404 499.103 62.1041C499.103 66.758 499.994 70.8672 501.777 74.4319C503.559 77.9966 505.96 80.7691 508.98 82.7495C512 84.7299 515.342 85.7201 519.006 85.7201C522.224 85.7201 525.393 85.0022 528.512 83.5664C531.631 82.0811 534.181 79.9522 536.161 77.1797L538.092 78.7392C535.963 81.6603 533.661 83.913 531.185 85.4973C528.71 87.0816 526.234 88.146 523.759 88.6906C521.333 89.2847 519.105 89.5818 517.075 89.5818C513.362 89.5818 509.946 88.9134 506.827 87.5767C503.757 86.2399 501.084 84.3833 498.806 82.0069C496.578 79.5809 494.845 76.7836 493.608 73.615C492.419 70.3969 491.825 66.9313 491.825 63.2181C491.825 59.7029 492.345 56.2868 493.385 52.9696C494.474 49.6525 496.083 46.6572 498.212 43.9837C500.341 41.3102 503.014 39.1813 506.233 37.597C509.5 36.0127 513.288 35.2205 517.595 35.2205C520.368 35.2205 522.991 35.5918 525.467 36.3345C527.942 37.0771 530.319 38.2158 532.596 39.7506L532.225 35.7404H536.235V52.9696H533.562ZM538.423 88.3936V85.9428C539.908 85.9428 541.047 85.5468 541.839 84.7546C542.631 83.9625 543.274 82.8733 543.77 81.487C544.314 80.1007 544.933 78.4917 545.626 76.6598L560.925 34.9977H562.707L579.268 77.254C579.664 78.2937 580.109 79.6304 580.604 81.2642C581.1 82.898 581.298 84.2843 581.199 85.423C582.04 85.3735 582.882 85.324 583.724 85.2745C584.565 85.225 585.407 85.1754 586.249 85.1259V88.3936H569.242V85.9428C571.123 85.8933 572.361 85.4725 572.955 84.6804C573.549 83.8882 573.772 82.9475 573.624 81.8583C573.475 80.7691 573.228 79.7789 572.881 78.8878L570.282 71.9069L550.973 72.3525L548.374 80.2988C548.027 81.487 547.706 82.4277 547.408 83.1208C547.161 83.8139 546.864 84.5813 546.517 85.423C547.507 85.3735 548.473 85.324 549.414 85.2745C550.404 85.225 551.369 85.1754 552.31 85.1259V88.3936H538.423ZM552.087 69.1592H569.242L563.969 54.9748C563.425 53.44 562.855 51.9299 562.261 50.4446C561.717 48.9099 561.172 47.3751 560.627 45.8403H560.479C559.984 47.2265 559.464 48.6128 558.919 49.9991C558.424 51.3853 557.904 52.7963 557.36 54.2321L552.087 69.1592ZM616.398 52.1527C616.249 49.7763 615.68 47.5236 614.69 45.3947C613.7 43.2658 612.264 41.533 610.383 40.1962C608.501 38.8595 606.1 38.1911 603.179 38.1911C600.109 38.1911 597.758 39.0575 596.124 40.7903C594.49 42.5232 593.673 44.553 593.673 46.88C593.673 48.9594 594.267 50.717 595.456 52.1527C596.644 53.539 598.179 54.7767 600.06 55.8659C601.991 56.9056 604.021 57.9206 606.15 58.9107C608.031 59.7524 609.912 60.6683 611.794 61.6585C613.675 62.5992 615.383 63.6884 616.918 64.9261C618.453 66.1639 619.666 67.6491 620.557 69.382C621.497 71.0653 621.968 73.0952 621.968 75.4716C621.968 78.1946 621.275 80.6206 619.888 82.7495C618.552 84.8784 616.596 86.5617 614.022 87.7994C611.447 88.9877 608.303 89.5818 604.59 89.5818C602.362 89.5818 600.06 89.26 597.683 88.6163C595.307 87.9727 593.203 87.032 591.371 85.7943L591.742 88.9877H587.881L587.435 73.1694H590.331C590.579 77.5263 592.089 80.8434 594.861 83.1208C597.634 85.3487 600.976 86.4627 604.887 86.4627C606.818 86.4627 608.6 86.1161 610.234 85.423C611.868 84.6804 613.155 83.6159 614.096 82.2296C615.086 80.8434 615.581 79.1601 615.581 77.1797C615.581 74.9518 614.987 73.0952 613.799 71.6099C612.611 70.1246 611.076 68.8374 609.194 67.7482C607.313 66.659 605.308 65.6193 603.179 64.6291C601.298 63.7874 599.441 62.8962 597.609 61.9556C595.777 61.0149 594.094 59.9504 592.559 58.7622C591.074 57.5245 589.861 56.064 588.92 54.3806C588.029 52.6973 587.584 50.6674 587.584 48.291C587.584 47.0037 587.806 45.6175 588.252 44.1322C588.698 42.6469 589.465 41.2359 590.554 39.8992C591.693 38.5129 593.228 37.3989 595.158 36.5573C597.139 35.6661 599.639 35.2205 602.659 35.2205C604.541 35.2205 606.645 35.4928 608.972 36.0374C611.348 36.5325 613.551 37.5227 615.581 39.008L615.284 35.8146H619.072V52.1527H616.398ZM667.52 52.0785C667.471 49.1574 667.174 46.7314 666.629 44.8006C666.084 42.8697 665.119 41.4339 663.733 40.4933C662.396 39.5031 660.44 39.0327 657.866 39.0823H651.553L651.479 79.5561C651.479 80.8929 651.454 82.0564 651.405 83.0465C651.405 83.9872 651.355 84.7794 651.256 85.423C652.296 85.3735 653.311 85.324 654.301 85.2745C655.341 85.225 656.38 85.1754 657.42 85.1259V88.3936H639.968V85.9428C641.849 85.8438 643.112 85.3982 643.756 84.6061C644.449 83.8139 644.82 82.7495 644.87 81.4127C644.969 80.0265 645.018 78.4917 645.018 76.8084L645.092 39.1565L637.443 39.2308C634.324 39.2308 632.121 40.2705 630.834 42.3499C629.546 44.4293 628.903 47.6721 628.903 52.0785H626.155L626.601 36.4088H669.897L670.342 52.0785H667.52ZM700.467 69.1592C700.467 66.9808 700.17 65.4212 699.576 64.4805C698.982 63.5399 698.041 62.9705 696.754 62.7725C695.467 62.5744 693.759 62.5249 691.63 62.6239L686.208 62.8467V79.8532C686.208 81.1899 686.184 82.3287 686.134 83.2693C686.134 84.21 686.085 85.0022 685.986 85.6458L700.17 85.423C702.349 85.3735 704.23 85.0269 705.814 84.3833C707.398 83.6902 708.636 82.5019 709.527 80.8186C710.419 79.1353 710.864 76.8331 710.864 73.9121H713.389L712.944 88.3936H674.623V85.9428C676.505 85.8438 677.792 85.423 678.485 84.6804C679.178 83.8882 679.549 82.8238 679.599 81.487C679.698 80.1007 679.748 78.5412 679.748 76.8084V44.7263C679.748 43.7361 679.772 42.7955 679.822 41.9043C679.871 40.9636 679.921 40.122 679.97 39.3793C679.079 39.4288 678.188 39.4783 677.297 39.5278C676.406 39.5774 675.514 39.6269 674.623 39.6764V36.4088H710.344L710.716 49.405H708.265C708.265 46.4839 707.819 44.2807 706.928 42.7955C706.037 41.2607 704.824 40.2457 703.289 39.7506C701.804 39.206 700.121 38.9585 698.239 39.008L691.853 39.1565C690.021 39.206 688.709 39.5526 687.917 40.1962C687.124 40.8398 686.629 41.8053 686.431 43.0925C686.283 44.3302 686.208 45.9641 686.208 47.9939V59.8762L700.17 59.9504L699.65 53.5637H702.918V69.1592H700.467ZM717.85 88.3936V85.9428C719.732 85.8438 721.019 85.423 721.712 84.6804C722.405 83.8882 722.776 82.8238 722.826 81.487C722.925 80.1007 722.974 78.5412 722.974 76.8084V44.7263C722.974 43.7361 722.999 42.7955 723.049 41.9043C723.098 40.9636 723.148 40.122 723.197 39.3793C722.306 39.4288 721.415 39.4783 720.524 39.5278C719.633 39.5774 718.741 39.6269 717.85 39.6764V36.4088C720.623 36.3592 723.42 36.3097 726.242 36.2602C729.114 36.2107 731.985 36.2355 734.857 36.3345C739.659 36.384 743.521 36.9534 746.442 38.0426C749.412 39.0823 751.591 40.5923 752.977 42.5727C754.363 44.5035 755.056 46.8552 755.056 49.6277C755.106 51.5586 754.735 53.539 753.942 55.5689C753.2 57.5492 751.814 59.3316 749.784 60.9159C747.803 62.5002 744.932 63.6884 741.169 64.4805C742.159 65.1737 743.026 66.0648 743.768 67.154C744.511 68.2433 745.353 69.5057 746.293 70.9415L751.343 78.8878C752.185 80.2245 753.002 81.4375 753.794 82.5267C754.586 83.5664 755.502 84.4081 756.542 85.0517C757.581 85.6458 758.869 85.9428 760.403 85.9428V88.3936H751.046C749.61 87.1063 748.397 85.8191 747.407 84.5318C746.467 83.2446 745.476 81.7841 744.437 80.1503L739.461 72.204C738.817 71.1643 738.075 69.9761 737.233 68.6393C736.441 67.2531 735.525 66.0896 734.485 65.1489C733.693 65.1984 732.852 65.2232 731.96 65.2232C731.119 65.2232 730.277 65.1984 729.435 65.1489V79.5561C729.435 80.8929 729.411 82.0564 729.361 83.0465C729.361 83.9872 729.312 84.7794 729.213 85.423C729.807 85.3735 730.401 85.3487 730.995 85.3487C731.589 85.2992 732.183 85.2497 732.777 85.2002C733.371 85.1507 733.965 85.1259 734.56 85.1259V88.3936H717.85ZM734.04 62.4012C736.763 62.3021 739.139 61.8565 741.169 61.0644C743.248 60.2723 744.882 59.0098 746.07 57.2769C747.259 55.5441 747.853 53.2667 747.853 50.4446C747.853 48.5633 747.581 46.9295 747.036 45.5432C746.541 44.1075 745.749 42.9192 744.659 41.9786C743.57 41.0379 742.184 40.3447 740.501 39.8992C738.817 39.4041 736.837 39.1565 734.56 39.1565C732.728 39.1565 731.44 39.5278 730.698 40.2705C730.005 41.0131 729.609 42.0528 729.51 43.3896C729.46 44.6768 729.435 46.2116 729.435 47.9939V62.2526C730.228 62.3021 730.97 62.3516 731.663 62.4012C732.406 62.4507 733.198 62.4507 734.04 62.4012Z" fill="#1B1C1D"/>
<path d="M464.48 110.039L465.203 120.793H464.48C463.516 117.574 462.14 115.256 460.351 113.841C458.563 112.426 456.417 111.719 453.913 111.719C451.813 111.719 449.916 112.255 448.221 113.328C446.526 114.386 445.189 116.081 444.209 118.413C443.245 120.746 442.763 123.646 442.763 127.114C442.763 129.976 443.221 132.456 444.139 134.556C445.056 136.655 446.433 138.265 448.268 139.384C450.118 140.504 452.226 141.064 454.589 141.064C456.642 141.064 458.454 140.628 460.025 139.758C461.595 138.871 463.321 137.122 465.203 134.509L465.926 134.976C464.34 137.79 462.489 139.851 460.374 141.157C458.26 142.464 455.748 143.117 452.84 143.117C447.599 143.117 443.54 141.173 440.663 137.285C438.517 134.392 437.444 130.987 437.444 127.068C437.444 123.911 438.152 121.01 439.567 118.367C440.982 115.723 442.926 113.678 445.399 112.232C447.887 110.77 450.6 110.039 453.54 110.039C455.826 110.039 458.081 110.599 460.305 111.719C460.958 112.061 461.424 112.232 461.704 112.232C462.124 112.232 462.489 112.084 462.8 111.789C463.205 111.369 463.493 110.785 463.664 110.039H464.48ZM488.007 131.803H475.76L473.614 136.795C473.085 138.024 472.821 138.941 472.821 139.548C472.821 140.03 473.046 140.457 473.497 140.831C473.964 141.188 474.959 141.422 476.483 141.53V142.394H466.523V141.53C467.844 141.297 468.7 140.994 469.089 140.621C469.882 139.874 470.76 138.358 471.724 136.072L482.851 110.039H483.668L494.678 136.352C495.565 138.467 496.366 139.843 497.081 140.481C497.812 141.103 498.823 141.453 500.113 141.53V142.394H487.633V141.53C488.893 141.468 489.741 141.258 490.176 140.901C490.627 140.543 490.853 140.108 490.853 139.594C490.853 138.91 490.542 137.829 489.92 136.352L488.007 131.803ZM487.354 130.077L481.988 117.294L476.483 130.077H487.354ZM521.144 110.039V120.979H520.281C520.001 118.88 519.496 117.208 518.765 115.964C518.049 114.72 517.023 113.732 515.686 113.002C514.348 112.271 512.964 111.905 511.533 111.905C509.916 111.905 508.579 112.403 507.521 113.398C506.464 114.378 505.935 115.498 505.935 116.757C505.935 117.721 506.269 118.6 506.938 119.393C507.902 120.559 510.196 122.115 513.819 124.059C516.774 125.645 518.788 126.866 519.861 127.721C520.95 128.561 521.782 129.556 522.357 130.707C522.948 131.858 523.244 133.063 523.244 134.322C523.244 136.717 522.31 138.786 520.444 140.527C518.594 142.254 516.207 143.117 513.283 143.117C512.365 143.117 511.502 143.047 510.694 142.907C510.212 142.829 509.208 142.549 507.684 142.067C506.176 141.569 505.22 141.321 504.815 141.321C504.426 141.321 504.115 141.437 503.882 141.67C503.664 141.904 503.501 142.386 503.392 143.117H502.529V132.27H503.392C503.797 134.54 504.341 136.243 505.025 137.378C505.709 138.498 506.751 139.431 508.151 140.177C509.566 140.924 511.114 141.297 512.793 141.297C514.737 141.297 516.269 140.784 517.388 139.758C518.524 138.731 519.091 137.518 519.091 136.119C519.091 135.341 518.874 134.556 518.438 133.763C518.018 132.969 517.357 132.231 516.455 131.546C515.849 131.08 514.193 130.092 511.487 128.584C508.781 127.06 506.852 125.847 505.702 124.945C504.566 124.043 503.703 123.048 503.112 121.959C502.521 120.871 502.226 119.673 502.226 118.367C502.226 116.096 503.097 114.145 504.839 112.512C506.58 110.863 508.796 110.039 511.487 110.039C513.166 110.039 514.947 110.451 516.829 111.275C517.699 111.664 518.314 111.859 518.671 111.859C519.076 111.859 519.402 111.742 519.651 111.509C519.916 111.26 520.126 110.77 520.281 110.039H521.144ZM552.042 110.762L552.392 118.18H551.506C551.335 116.874 551.101 115.941 550.806 115.381C550.324 114.479 549.678 113.818 548.87 113.398C548.077 112.963 547.027 112.745 545.721 112.745H541.265V136.912C541.265 138.856 541.475 140.069 541.895 140.551C542.486 141.204 543.396 141.53 544.624 141.53H545.721V142.394H532.307V141.53H533.427C534.765 141.53 535.713 141.126 536.273 140.317C536.615 139.82 536.786 138.685 536.786 136.912V112.745H532.984C531.507 112.745 530.457 112.854 529.835 113.072C529.026 113.367 528.334 113.935 527.759 114.774C527.183 115.614 526.841 116.749 526.732 118.18H525.846L526.219 110.762H552.042ZM577.425 141.53V142.394H563.872V141.53H564.991C566.298 141.53 567.246 141.149 567.837 140.387C568.211 139.89 568.397 138.692 568.397 136.795V116.361C568.397 114.759 568.296 113.701 568.094 113.188C567.938 112.799 567.62 112.465 567.137 112.185C566.453 111.812 565.738 111.625 564.991 111.625H563.872V110.762H577.425V111.625H576.282C574.991 111.625 574.05 112.006 573.459 112.768C573.07 113.266 572.876 114.463 572.876 116.361V136.795C572.876 138.397 572.977 139.454 573.179 139.968C573.335 140.356 573.661 140.691 574.159 140.971C574.828 141.344 575.535 141.53 576.282 141.53H577.425ZM609.442 142.394H600.998L590.291 127.604C589.498 127.635 588.852 127.651 588.355 127.651C588.153 127.651 587.935 127.651 587.702 127.651C587.468 127.635 587.227 127.62 586.979 127.604V136.795C586.979 138.786 587.196 140.022 587.632 140.504C588.223 141.188 589.109 141.53 590.291 141.53H591.527V142.394H577.974V141.53H579.164C580.501 141.53 581.458 141.095 582.033 140.224C582.36 139.742 582.523 138.599 582.523 136.795V116.361C582.523 114.37 582.305 113.134 581.87 112.652C581.263 111.967 580.361 111.625 579.164 111.625H577.974V110.762H589.498C592.857 110.762 595.33 111.011 596.916 111.509C598.518 111.991 599.871 112.893 600.975 114.215C602.094 115.521 602.654 117.084 602.654 118.903C602.654 120.847 602.017 122.535 600.741 123.965C599.482 125.396 597.522 126.407 594.863 126.998L601.395 136.072C602.888 138.156 604.171 139.54 605.244 140.224C606.317 140.908 607.716 141.344 609.442 141.53V142.394ZM586.979 126.135C587.274 126.135 587.531 126.142 587.748 126.158C587.966 126.158 588.145 126.158 588.285 126.158C591.302 126.158 593.572 125.505 595.096 124.198C596.636 122.892 597.406 121.228 597.406 119.207C597.406 117.231 596.784 115.63 595.54 114.401C594.311 113.157 592.678 112.535 590.641 112.535C589.739 112.535 588.518 112.683 586.979 112.978V126.135ZM625.061 110.039C629.167 110.039 632.72 111.602 635.722 114.728C638.739 117.838 640.247 121.726 640.247 126.391C640.247 131.197 638.731 135.186 635.698 138.358C632.666 141.53 628.996 143.117 624.688 143.117C620.334 143.117 616.671 141.569 613.701 138.475C610.746 135.38 609.269 131.375 609.269 126.461C609.269 121.438 610.98 117.34 614.401 114.168C617.371 111.415 620.925 110.039 625.061 110.039ZM624.618 111.742C621.788 111.742 619.517 112.792 617.807 114.891C615.676 117.504 614.611 121.329 614.611 126.368C614.611 131.531 615.715 135.504 617.923 138.288C619.618 140.403 621.858 141.46 624.641 141.46C627.612 141.46 630.061 140.302 631.989 137.985C633.933 135.668 634.905 132.013 634.905 127.021C634.905 121.609 633.84 117.574 631.709 114.914C629.999 112.799 627.635 111.742 624.618 111.742ZM640.05 110.762H648.635L667.973 134.486V116.244C667.973 114.3 667.755 113.087 667.319 112.605C666.744 111.952 665.834 111.625 664.59 111.625H663.494V110.762H674.504V111.625H673.385C672.047 111.625 671.098 112.03 670.539 112.838C670.196 113.336 670.025 114.471 670.025 116.244V142.907H669.186L648.331 117.434V136.912C648.331 138.856 648.541 140.069 648.961 140.551C649.552 141.204 650.462 141.53 651.69 141.53H652.81V142.394H641.8V141.53H642.896C644.249 141.53 645.205 141.126 645.765 140.317C646.107 139.82 646.279 138.685 646.279 136.912V114.914C645.361 113.841 644.661 113.134 644.179 112.792C643.713 112.449 643.021 112.131 642.103 111.835C641.652 111.695 640.968 111.625 640.05 111.625V110.762Z" fill="#E9CD83"/>
<defs>
<clipPath id="clip0_179_479">
<rect width="410.529" height="174.929" fill="white" transform="translate(0 0.245361)"/>
</clipPath>
</defs>
</svg>
