<svg width="428" height="197" viewBox="0 0 428 197" fill="none" xmlns="http://www.w3.org/2000/svg">
<path fill-rule="evenodd" clip-rule="evenodd" d="M72 0C32.2355 0 0 32.2355 0 72V125C0 164.764 32.2355 197 72 197H356C395.764 197 428 164.765 428 125V72C428 32.2355 395.764 0 356 0H72ZM158.475 60.8408L229.43 57.8741L228.753 106.213L196.72 106.307L199.359 112.133L199.359 112.134L199.359 112.134L199.363 112.146C212.2 153.363 194.366 170.799 188.011 175.494C187.059 176.194 186.365 176.614 186.07 176.784C185.968 176.843 185.913 176.871 185.913 176.871L185.917 176.87L185.913 176.872L185.973 176.856C189.734 175.913 192.889 174.349 195.535 172.371C199.091 169.762 201.663 166.475 203.516 162.957C209.735 151.594 209.231 137.685 209.173 136.471L216.13 136.14L238.725 135.342C241.238 155.627 256.152 171.247 274.206 171.247C290.166 171.247 303.672 159.04 308.327 142.195L391.132 162.979L395.465 162.63L396.112 157.999L309.494 136.739C309.867 134.313 310.061 131.816 310.061 129.267C310.061 113.819 302.925 100.3 292.291 93.0107L292.034 58.9984L301.147 48.7399L248.958 45.4035L230.782 58.6L229.789 57.6806L229.089 56.857L217.548 57.3407C225.754 47.1012 241.657 45.6066 244.299 45.4647C244.577 45.4586 244.726 45.454 244.726 45.454L248.362 42.8146H251.996C255.333 40.8227 256.329 30.5145 256.329 30.5145H255.927L256.23 30.1661C254.406 30.1661 232.403 32.5474 228.716 32.9478C228.73 32.8566 228.74 32.8051 228.74 32.8051C208.459 23.8626 183.056 24.3498 179.391 24.4716L178.096 22C176.901 22 154.84 27.4778 154.84 27.4778L160.816 34.599C159.82 39.5788 163.107 38.8816 163.805 38.7322C164.007 38.6889 165.628 38.3651 167.829 37.927C168.764 39.0714 170.971 40.0018 173.339 40.6656C173.079 41.3158 172.645 42.3044 172.319 42.5656C171.821 42.964 159.272 50.1349 159.272 50.1349C159.272 50.1349 156.781 51.6289 156.532 52.1269C156.284 52.6249 156.134 53.7204 156.931 53.8698C157.004 53.8795 157.087 53.8897 157.179 53.9009C158.03 54.0052 159.632 54.2013 160.666 54.9653C161.56 55.6262 164.458 58.3512 165.685 59.5145L45.4372 64.5546L44.9856 64.3289V64.5736L44.9346 64.5757L44.9856 64.6267V65.0761L44.4866 64.8266V82.5049L44.9856 82.0059V82.0072L46.2306 80.7623L45.9942 65.6353L46.1796 65.8207L95.9779 63.8288H97.2229L95.7289 66.5677V89.9729L92.243 90.4708L95.2309 91.7158L97.4718 91.4668V82.0051L135.568 79.2662H97.9698L97.7209 64.0777L157.229 61.0899L156.732 62.5838V84.993L152.997 85.491C152.997 85.491 154.641 87.4331 155.736 87.234C156.632 87.0845 157.578 86.985 158.475 86.985L158.723 83.9971L158.657 77.7787L188.553 75.831H158.636L158.475 60.8408ZM181.764 34.3299C182.488 34.203 183.181 34.0913 183.823 34.0003C184.012 33.9793 184.201 33.8256 184.438 33.6323C184.764 33.3672 185.181 33.0278 185.815 32.855C186.91 32.5562 188.304 33.7016 188.304 33.7016C188.304 33.7016 187.807 31.859 186.313 31.5602C185.367 31.361 183.176 31.7096 183.176 31.7096C183.125 31.112 183.026 30.4647 182.927 29.8671C182.927 29.8671 167.837 32.7056 163.605 34.0999C163.605 34.0999 162.459 33.9505 164.452 33.4525C167.045 32.5058 175.048 30.9125 179.517 30.0228L179.519 30.0225C180.456 29.836 181.237 29.6805 181.781 29.5683L180.57 27.4008L177.897 22.9462C177.897 22.9462 159.123 27.2786 156.982 27.926L161.812 34.2504C161.812 34.2504 160.816 37.8856 163.306 37.8856C164.955 37.8856 172.218 36.291 177.124 35.214L177.124 35.214C179.625 34.6649 181.513 34.2504 181.731 34.2504L181.764 34.3299ZM228.841 33.4528C231.488 32.8491 252.155 31.509 254.927 31.3311C254.794 33.0334 254.411 36.8294 253.64 37.1376C251.449 37.9842 232.675 37.3368 230.384 36.6397C228.684 36.1224 228.602 34.2622 228.673 33.3363L228.841 33.4528ZM239.073 120.85L232.95 120.937L222.721 121.49C223.612 122.28 224.43 123.14 225.167 124.07L238.677 123.588C238.784 122.665 238.916 121.752 239.073 120.85ZM251.074 106.454C249.329 108.953 247.859 111.74 246.721 114.749C248.258 114.605 250.513 114.475 253.639 114.475C260.611 114.475 254.984 119.106 254.984 119.106L253.988 121.447L265.367 123.245C265.401 123.207 265.436 123.169 265.47 123.131L265.511 123.087L265.544 123.051L254.122 106.359L251.074 106.454ZM245.508 141.03C246.758 145.643 248.756 149.847 251.328 153.434L262.958 138.794L253.215 137.728L245.508 141.03ZM253.845 156.548C256.527 159.49 259.652 161.854 263.085 163.478L269.411 139.94C268.964 139.777 268.531 139.583 268.116 139.359L266.293 139.16L253.845 156.548ZM266.839 164.917C269.151 165.604 271.569 165.968 274.057 165.968C275.328 165.968 276.58 165.873 277.808 165.689L273.565 140.482C273.284 140.507 273 140.519 272.713 140.519C272.417 140.519 272.124 140.506 271.834 140.48L266.839 164.917ZM281.875 164.731C285.975 163.403 289.729 161.055 292.937 157.926L280.113 140.673L276.358 140.261L281.875 164.731ZM295.307 155.353C298.342 151.69 300.728 147.247 302.242 142.291L301.446 143.008L284.591 141.163L295.307 155.353ZM303.734 135.325C303.966 133.513 304.086 131.656 304.086 129.764C304.086 126.64 303.758 123.609 303.142 120.718L290.217 124.198L295.121 125.081C295.121 125.081 298.457 124.434 297.461 126.725L297.113 128.717H296.116L295.768 127.073L286.596 125.172L286.172 125.286L285.212 128.17C288.846 128.618 292.482 128.867 296.167 128.818C302.79 128.818 300.15 134.445 300.15 134.445L303.734 135.325ZM302.113 116.821C300.429 111.515 297.74 106.811 294.328 103.046L279.276 122.226L281.216 122.576C281.615 122.604 282.003 122.678 282.373 122.784L284.014 123.08L302.113 116.821ZM292.508 101.193L292.354 101.39L292.351 101.046C292.404 101.095 292.456 101.144 292.508 101.193ZM256.029 136.522L263.246 133.429C263.598 134.541 264.127 135.569 264.799 136.476L264.069 137.396L256.029 136.522ZM278.874 139.005L278.037 138.914C278.209 138.801 278.377 138.682 278.542 138.558L278.874 139.005ZM294.176 140.668L283.326 139.489L280.825 136.177C280.939 136.012 281.049 135.843 281.153 135.67L294.449 139.701L294.176 140.668ZM267.746 121.273C268.345 120.916 268.984 120.621 269.653 120.398L266.328 105.977L257.989 106.238L267.746 121.273ZM289.332 105.257L279.68 105.559L275.632 120.357C276.128 120.515 276.608 120.713 277.069 120.946L289.332 105.257ZM276.218 105.667L273.421 119.929C273.187 119.912 272.951 119.903 272.713 119.903C272.517 119.903 272.322 119.909 272.128 119.92L269.698 105.871L276.218 105.667ZM235.549 45.3898C222.194 48.3777 214.497 56.0943 213.163 57.5245L195.794 58.2525L204.689 50.2842C205.285 49.9356 205.883 49.6368 206.58 49.3878C206.58 49.3878 208.672 48.2922 206.58 47.7942L197.448 42.485C207.885 42.9875 220.047 43.7152 224.806 44.458C228.256 44.9963 232.136 45.2632 235.549 45.3898ZM204.689 48.3919L191.322 58.44L169.901 59.3378C168.03 57.9875 160.576 52.662 159.272 52.575C157.778 52.4754 159.87 51.1807 159.87 51.1807C159.87 51.1807 172.717 43.7109 173.564 43.3125C174.311 43.0137 174.908 42.5157 175.307 41.8186C175.341 41.682 175.539 41.4635 175.801 41.2553C177.62 41.6227 179.305 41.8186 180.337 41.8186C181.454 41.8186 186.746 41.9996 193.386 42.2964C196.273 43.6797 204.472 47.6071 205.086 47.8939C205.086 47.8939 204.689 47.8939 204.689 48.3919ZM284.515 59.3477L284.215 61.3396L252.992 58.7003L284.515 59.3477ZM193.135 108.4L175.207 128.319L175.645 130.068C175.512 129.742 175.365 129.473 175.207 129.315C174.932 129.04 174.421 129.406 173.76 129.879C172.627 130.691 171.053 131.818 169.48 130.56C168.956 130.14 168.475 129.732 168.03 129.353L168.03 129.353C166.361 127.933 165.182 126.93 164.002 127.323C163.556 127.471 163.731 127.576 164.177 127.841C165.223 128.464 167.763 129.976 167.239 135.042C166.493 142.263 163.006 141.516 163.006 141.516L147.818 156.206L149.063 158.198L164.251 143.009L166.99 145.997L160.516 168.655L162.757 169.403L169.978 146.495C169.978 146.495 171.97 148.238 172.717 148.488L175.456 173.038H178.095L175.107 144.005C175.107 144.005 175.456 139.872 182.926 144.005C190.396 148.139 183.922 142.86 183.922 142.86L177.797 139.723C177.797 139.723 174.958 137.233 177.149 135.889C179.34 134.543 186.76 134.743 189.748 135.889C192.736 137.034 199.559 135.739 199.559 135.739C199.559 135.739 199.857 131.904 199.359 130.311L176.452 133.299C176.452 133.299 176.18 131.531 175.737 130.307L198.861 127.323C198.861 127.323 198.364 119.853 193.135 108.4ZM188.405 101.925L191.642 106.406L172.967 126.575L172.22 125.081L179.441 93.708L181.682 95.6998L180.138 106.307H186.911L188.405 101.925ZM190.895 93.2117C190.895 93.2117 194.381 96.4486 194.879 97.4446C195.377 98.4406 195.377 79.0193 195.377 79.0193L192.14 78.7703V91.2199L190.148 91.9668L190.895 93.2117ZM170.975 106.657L167.489 89.9747H167.485L167.489 89.9743C167.489 89.9743 155.186 86.1148 143.878 106.413L143.834 106.407L143.749 106.644C143.612 106.893 143.474 107.147 143.336 107.404L143.473 107.418C142.774 109.379 141.285 113.557 141.096 114.126L141.095 114.127L141.095 114.126L141.094 114.132C141.083 114.164 141.078 114.191 141.078 114.213C140.877 115.282 138.93 126.034 140.348 134.543L143.087 134.045C143.087 134.045 142.838 122.592 143.087 121.346C143.087 121.346 149.063 120.849 149.809 121.098C150.557 121.346 142.838 116.864 142.838 116.864C142.838 116.864 141.655 116.391 141.134 114.292C141.245 114.322 141.517 114.21 141.884 114.06C142.715 113.719 144.032 113.179 145.079 113.627C146.822 114.375 163.754 125.081 163.754 125.081C163.754 125.081 157.836 113.406 154.974 108.642L155.039 108.649L154.796 108.349C154.178 107.338 153.726 106.701 153.545 106.656C152.785 106.466 149.331 106.653 147.735 106.752C147.915 106.172 149.595 101.041 154.051 96.5665L159.68 106.805H159.67L165.884 118.09L166.99 120.103L166.975 120.072L166.991 120.101L165.347 106.805H160.382L154.893 95.7603C157.657 93.2387 161.369 91.0402 166.271 90.1616L170.975 122.095L174.958 106.657H170.975ZM140.846 137.282L153.794 135.788L143.585 138.777C143.834 141.765 147.568 152.222 147.568 152.222C147.568 152.222 145.079 151.973 143.834 148.985C142.589 145.997 140.846 137.282 140.846 137.282ZM223.76 63.5813C224.656 64.2287 225.204 65.2247 225.253 66.3202C225.253 68.0631 226.996 66.8182 226.996 65.8222C226.996 65.3242 226.897 64.1291 226.747 63.0335C226.599 61.9379 226.499 61.0914 226.499 61.0914L223.76 63.5813ZM225.253 89.7253C225.204 88.6297 224.656 87.6338 223.76 86.9864L226.499 84.4964C226.499 84.4964 226.599 85.343 226.747 86.4386C226.897 87.5341 226.996 88.7293 226.996 89.2273C226.996 90.2233 225.253 91.4682 225.253 89.7253ZM158.027 132.054C157.38 128.219 162.51 128.568 162.51 128.568C164.203 128.916 164.004 130.759 164.004 130.759C164.004 130.759 163.157 130.909 161.016 131.406C158.874 131.904 161.215 133.697 162.36 134.045C163.505 134.394 163.505 132.551 163.505 132.551L165.647 132.9C166.145 133.896 165.498 136.685 164.999 137.531C164.601 138.08 164.004 138.428 163.356 138.528C160.667 137.681 158.675 135.888 158.027 132.054ZM139.252 107.205L138.997 107.172C139.081 107.03 139.166 106.908 139.254 106.805L137.112 107.005L136.601 107.006H91.4204C90.728 103.857 89.8598 101.06 88.8075 99.6841C85.5706 95.4513 85.3217 100.68 85.3217 100.68C85.3217 100.68 90.0526 113.877 89.5546 129.065C89.0566 144.253 84.3257 158.695 73.8681 165.169C73.8681 165.169 95.0324 160.438 93.5384 121.595C93.5384 121.595 93.4928 121.056 93.4003 120.143L136.862 116.418C136.862 116.418 137.758 108.948 139.252 107.205ZM76.6071 82.0054C76.6071 82.0054 79.346 83.9973 80.342 85.7403C81.338 87.4832 80.5911 80.0135 80.5911 80.0135L77.3542 79.2665L76.6071 82.0054ZM85.5715 115.618L64.832 118.512C64.7979 118.568 64.7408 118.618 64.6545 118.658C64.1472 118.892 65.2602 120.685 65.7659 121.451L85.5708 118.857L86.0688 121.099C86.0688 121.099 72.3742 121.099 71.8763 124.584C71.8763 124.584 67.358 122.957 65.4044 122.476C65.178 122.687 64.9123 122.881 64.6545 122.941C64.0071 123.09 64.0071 124.932 64.5051 125.43C65.0031 125.929 68.6384 128.767 68.6384 128.767L67.6424 128.418C67.6424 128.418 65.501 128.219 64.5051 128.568C63.5091 128.916 66.6464 132.551 66.6464 132.551L66.1484 133.049L73.2696 159.94L71.9251 160.787C71.9251 160.787 64.8039 136.585 64.3059 136.237C63.8079 135.888 62.1646 136.386 62.1646 136.386L61.5172 160.14L59.6747 159.99C59.6747 159.99 60.1726 138.926 60.1726 138.228C60.1726 137.531 59.1767 136.386 59.1767 136.386L58.6787 134.045L50.0636 156.953L47.9222 155.309C47.9222 155.309 56.8361 132.851 57.0354 130.56C57.2346 128.268 54.396 129.415 54.396 129.415C54.396 129.415 42.6436 140.519 41.9465 141.017C41.2493 141.515 41.0999 144.354 41.0999 144.354L39.108 141.714C39.108 141.714 52.4041 129.115 52.9021 128.767C53.0055 128.695 53.1518 128.603 53.3233 128.495L53.3237 128.495C53.978 128.085 54.9975 127.446 55.392 126.775C55.89 125.929 56.0394 121.944 55.5414 120.451C55.0434 118.957 54.5454 119.504 54.894 120.799C55.2426 122.094 54.894 124.435 53.898 125.43C52.9319 126.397 51.544 124.41 50.8253 123.382L50.7608 123.289C50.1827 122.463 51.6929 122.014 52.5097 121.771C52.6781 121.721 52.817 121.68 52.9021 121.646L52.9236 121.637C53.4467 121.428 55.0745 120.778 53.7486 119.305C52.4041 117.811 50.4122 121.297 50.2628 121.795C50.1134 122.293 49.2668 121.297 49.2668 121.297C49.2668 121.297 49.9142 119.952 49.7648 118.957C49.6964 118.501 49.5133 118.254 49.3539 118.038C49.165 117.783 49.0094 117.573 49.1174 117.114C49.3166 116.267 52.9519 115.62 52.9519 115.62C55.0932 114.624 55.4916 116.317 55.4916 116.317C55.4916 116.317 57.8321 118.259 58.8281 117.961C59.8241 117.662 60.4715 115.321 60.4715 115.321C60.4715 115.321 61.2682 114.674 62.4633 116.168C63.6585 117.662 64.3059 117.513 64.3059 117.513C64.3059 117.513 64.3482 117.548 64.4097 117.608L81.0896 100.928C83.3305 103.916 84.5755 112.63 84.5755 112.63L78.3507 111.884L75.1138 110.141L70.6319 114.124L85.3224 114.373L85.5715 115.618ZM80.3427 98.9361L75.3628 90.9683L73.6198 96.9441L70.3829 98.9361L73.8689 88.4785L72.1259 86.4865C72.1259 86.4865 62.6642 112.88 62.4152 114.623C62.1662 116.366 65.6521 113.875 65.6521 113.875L68.64 105.908L71.3789 107.651L80.0936 99.683L80.3427 98.9361ZM62.9136 102.673L64.9055 102.922L60.4236 112.633C60.4236 112.633 60.4236 79.2675 61.1706 79.5166C61.8677 79.8652 62.565 80.2635 63.1625 80.7615L62.9136 102.673ZM34.0288 100.68C41.2496 75.781 57.6831 78.5199 57.6831 78.5199C49.7153 79.7649 51.4582 82.7528 51.4582 82.7528C51.9562 83.7488 59.177 104.166 59.177 104.166L58.928 109.146L57.6831 109.395C56.936 105.162 49.9643 82.0058 48.9684 81.5079C47.9724 81.0099 45.9804 84.7447 45.9804 84.7447L45.7315 93.4594L44.4864 91.9655V86.4877L41.0006 90.9695C39.0087 90.2225 39.0087 92.2145 39.0087 92.2145L40.0046 93.4594L36.0208 105.66H34.7758C33.5309 105.66 34.0288 107.901 34.0288 107.901C34.0288 107.901 37.0167 107.154 36.0208 109.146C35.0248 111.138 36.0208 122.841 36.0208 122.841L34.2778 123.089C32.5349 123.338 34.2778 125.081 34.2778 125.081L47.7233 124.086L36.2698 126.575C36.2698 127.322 39.5067 138.527 39.5067 138.527L34.0288 130.31C30.543 116.118 34.0288 100.68 34.0288 100.68ZM46.4791 107.204C46.4791 106.059 46.4293 104.963 46.3297 103.867L48.8196 107.204H46.4791Z" fill="black"/>
</svg>
