<svg width="200" height="200" viewBox="0 0 200 200" fill="none" xmlns="http://www.w3.org/2000/svg">
<path fill-rule="evenodd" clip-rule="evenodd" d="M100 0C44.7715 0 0 44.7715 0 100C0 155.228 44.7715 200 100 200C155.228 200 200 155.228 200 100C200 44.7715 155.228 0 100 0ZM38.1558 83.5041V78.1851H14V83.5041H29.3804L22.7753 86.3353V111.041H29.3804V83.5041H38.1558ZM83.2919 110.867C90.3748 110.867 96.1167 104.862 96.1167 97.4551C96.1167 90.0478 90.3748 84.043 83.2919 84.043C79.7265 84.043 76.5009 85.5644 74.1764 88.0204V84.9683H67.6865V123.509L74.1764 120.773V106.89C76.5009 109.346 79.7265 110.867 83.2919 110.867ZM74.1764 97.4715V97.7469C74.246 102.281 77.747 105.934 82.0557 105.934C86.408 105.934 89.9361 102.207 89.9361 97.6092C89.9361 93.0116 86.408 89.2845 82.0557 89.2845C77.747 89.2845 74.246 92.9374 74.1764 97.4715ZM105.461 84.9683H98.9717V123.509L105.461 120.773V106.889V106.888L105.462 106.889C107.787 109.345 111.013 110.867 114.579 110.867C121.662 110.867 127.404 104.862 127.404 97.4551C127.404 90.0478 121.662 84.043 114.579 84.043C111.013 84.043 107.787 85.565 105.462 88.0216L105.461 88.0226V88.0219V84.9683ZM113.343 105.934C117.695 105.934 121.223 102.207 121.223 97.6092C121.223 93.0116 117.695 89.2845 113.343 89.2845C108.99 89.2845 105.462 93.0116 105.462 97.6092C105.462 102.207 108.99 105.934 113.343 105.934ZM138.766 90.3763V102.991C138.766 103.87 138.97 104.513 139.379 104.921C139.82 105.298 140.543 105.486 141.55 105.486H144.616V111.04H140.465C134.897 111.04 132.114 108.342 132.114 102.944V90.3763H129V84.9631H132.114V78.5144H138.766V84.9631H144.616V90.3763H138.766ZM155.957 84.9631V78.5144H149.352V84.9631H155.957ZM155.957 84.9631L149.352 87.7051V111.04H155.957V84.9631ZM173.365 104.968L179.97 84.9634H186.999L177.328 111.041H169.307L159.683 84.9634H166.76L173.365 104.968ZM56.0049 84.8838H62.4948V111.095H56.0049V107.261V107.26L56.0039 107.261C53.6793 109.718 50.4534 111.24 46.8873 111.24C39.8044 111.24 34.0625 105.235 34.0625 97.8276C34.0625 90.4203 39.8044 84.4155 46.8873 84.4155C50.4534 84.4155 53.6793 85.9375 56.0039 88.3942L56.0049 88.3953V88.3941V84.8838ZM48.1235 106.307C43.7712 106.307 40.2432 102.579 40.2432 97.9818C40.2432 93.3841 43.7712 89.657 48.1235 89.657C52.4757 89.657 56.0039 93.3841 56.0039 97.9818C56.0039 102.579 52.4757 106.307 48.1235 106.307Z" fill="black"/>
</svg>
