<svg width="675" height="171" viewBox="0 0 675 171" fill="none" xmlns="http://www.w3.org/2000/svg">
<path d="M294.919 142.686C293.943 140.947 292.699 139.671 291.189 138.859C289.701 138.048 287.97 137.642 285.994 137.642C284.483 137.642 283.066 137.955 281.741 138.581C280.416 139.207 279.254 140.1 278.254 141.26C277.278 142.419 276.5 143.834 275.919 145.503C275.361 147.15 275.082 148.994 275.082 151.034C275.082 153.052 275.361 154.872 275.919 156.496C276.5 158.119 277.29 159.51 278.289 160.67C279.289 161.806 280.439 162.687 281.741 163.314C283.066 163.916 284.483 164.218 285.994 164.218C288.225 164.218 290.166 163.685 291.816 162.618C293.466 161.528 294.779 159.939 295.756 157.852L301.124 160.496C300.427 161.98 299.567 163.314 298.545 164.496C297.522 165.679 296.36 166.688 295.058 167.523C293.78 168.357 292.362 168.995 290.805 169.436C289.271 169.9 287.644 170.131 285.924 170.131C283.414 170.131 281.09 169.668 278.952 168.74C276.837 167.789 275.001 166.467 273.443 164.775C271.909 163.082 270.712 161.064 269.853 158.722C268.993 156.38 268.563 153.817 268.563 151.034C268.563 148.251 269.016 145.689 269.922 143.347C270.829 141.004 272.072 138.999 273.653 137.329C275.233 135.636 277.081 134.314 279.196 133.363C281.311 132.412 283.577 131.937 285.994 131.937C288.272 131.937 290.422 132.331 292.444 133.12C294.489 133.908 296.278 135.103 297.812 136.703H301.473V142.686H294.919Z" fill="black"/>
<path d="M305.188 151.104C305.211 148.251 305.664 145.654 306.548 143.312C307.454 140.97 308.709 138.964 310.313 137.294C311.917 135.601 313.822 134.302 316.03 133.398C318.238 132.494 320.667 132.041 323.317 132.041C325.989 132.041 328.43 132.494 330.638 133.398C332.869 134.302 334.775 135.59 336.355 137.259C337.936 138.906 339.168 140.9 340.051 143.242C340.934 145.585 341.375 148.182 341.375 151.034C341.375 153.84 340.934 156.426 340.051 158.791C339.168 161.134 337.936 163.151 336.355 164.844C334.775 166.537 332.869 167.859 330.638 168.81C328.43 169.737 325.989 170.201 323.317 170.201C320.597 170.201 318.134 169.737 315.926 168.81C313.718 167.882 311.824 166.583 310.243 164.914C308.663 163.221 307.431 161.203 306.548 158.861C305.664 156.519 305.211 153.933 305.188 151.104ZM312.056 151.104C312.056 153.168 312.346 155.035 312.928 156.704C313.532 158.374 314.345 159.8 315.368 160.983C316.414 162.142 317.611 163.047 318.959 163.696C320.33 164.322 321.783 164.635 323.317 164.635C324.92 164.635 326.408 164.322 327.779 163.696C329.174 163.07 330.382 162.177 331.405 161.018C332.427 159.835 333.229 158.409 333.81 156.739C334.391 155.069 334.682 153.191 334.682 151.104C334.682 148.924 334.391 146.988 333.81 145.295C333.229 143.602 332.427 142.187 331.405 141.051C330.405 139.915 329.208 139.057 327.814 138.477C326.419 137.897 324.92 137.607 323.317 137.607C321.783 137.607 320.33 137.897 318.959 138.477C317.611 139.057 316.414 139.915 315.368 141.051C314.345 142.187 313.532 143.602 312.928 145.295C312.346 146.988 312.056 148.924 312.056 151.104Z" fill="black"/>
<path d="M358.199 133.085H369.805V138.338H358.199V163.14H363.847V169.123H346.276V163.14H351.714V138.338H345.753V133.085H351.714V127.45C351.761 125.363 352.063 123.542 352.621 121.988C353.179 120.435 353.969 119.136 354.991 118.092C356.014 117.049 357.246 116.272 358.687 115.762C360.128 115.252 361.732 114.997 363.498 114.997C364.73 114.997 365.834 115.055 366.81 115.171C367.786 115.286 368.658 115.449 369.425 115.658C370.192 115.843 370.866 116.052 371.447 116.284C372.051 116.516 372.586 116.747 373.05 116.979L371.063 121.606C370.319 121.212 369.343 120.875 368.135 120.597C366.949 120.319 365.706 120.18 364.404 120.18C362.475 120.18 360.953 120.783 359.837 121.988C358.745 123.171 358.199 124.922 358.199 127.241V133.085Z" fill="black"/>
<path d="M382.064 133.085H390.432V138.338H382.064V163.14H387.712V169.123H370.141V163.14H375.58V138.338H369.618V133.085H375.58V127.45C375.626 125.363 375.929 123.542 376.486 121.988C377.044 120.435 377.834 119.136 378.857 118.092C379.88 117.049 381.112 116.272 382.553 115.762C383.994 115.252 385.597 114.997 387.364 114.997C388.595 114.997 389.699 115.055 390.676 115.171C391.652 115.286 392.523 115.449 393.29 115.658C394.057 115.843 394.731 116.052 395.312 116.284C395.917 116.516 396.451 116.747 396.916 116.979L394.929 121.606C394.185 121.212 393.209 120.875 392 120.597C390.815 120.319 389.572 120.18 388.27 120.18C386.341 120.18 384.819 120.783 383.703 121.988C382.611 123.171 382.064 124.922 382.064 127.241V133.085Z" fill="black"/>
<path d="M400.143 151.939C400.143 152.959 400.213 153.898 400.352 154.756C400.515 155.591 400.736 156.391 401.014 157.157C401.874 159.476 403.246 161.226 405.128 162.409C407.034 163.569 409.184 164.148 411.578 164.148C413.46 164.148 415.285 163.893 417.051 163.383C418.841 162.85 420.712 162.026 422.664 160.913L425.279 165.331C422.908 166.954 420.526 168.16 418.132 168.949C415.738 169.737 413.251 170.131 410.671 170.131C408.231 170.131 405.965 169.726 403.873 168.914C401.805 168.102 400.015 166.896 398.504 165.296C397.017 163.696 395.843 161.702 394.983 159.313C394.146 156.925 393.728 154.142 393.728 150.965C393.728 148.391 394.088 145.967 394.809 143.695C395.529 141.399 396.599 139.404 398.016 137.711C399.457 135.995 401.235 134.639 403.35 133.642C405.465 132.644 407.929 132.146 410.741 132.146C413.46 132.146 415.727 132.563 417.539 133.398C419.375 134.21 420.863 135.3 422.002 136.668C423.164 138.013 424.035 139.555 424.617 141.294C425.221 143.034 425.639 144.808 425.872 146.617C425.988 147.498 426.057 148.391 426.081 149.295C426.127 150.199 426.15 151.081 426.15 151.939H400.143ZM410.288 137.572C408.777 137.572 407.452 137.793 406.314 138.233C405.198 138.651 404.245 139.265 403.455 140.077C402.665 140.865 402.025 141.839 401.537 142.999C401.073 144.158 400.724 145.457 400.492 146.895H419.213C419.12 145.55 418.899 144.309 418.55 143.173C418.225 142.036 417.714 141.051 417.016 140.216C416.319 139.381 415.424 138.732 414.332 138.268C413.24 137.804 411.892 137.572 410.288 137.572Z" fill="black"/>
<path d="M438.999 151.939C438.999 152.959 439.069 153.898 439.209 154.756C439.371 155.591 439.592 156.391 439.871 157.157C440.731 159.476 442.102 161.226 443.985 162.409C445.891 163.569 448.041 164.148 450.434 164.148C452.317 164.148 454.141 163.893 455.908 163.383C457.697 162.85 459.568 162.026 461.521 160.913L464.135 165.331C461.765 166.954 459.383 168.16 456.989 168.949C454.595 169.737 452.108 170.131 449.528 170.131C447.088 170.131 444.822 169.726 442.73 168.914C440.661 168.102 438.872 166.896 437.361 165.296C435.873 163.696 434.7 161.702 433.84 159.313C433.003 156.925 432.585 154.142 432.585 150.965C432.585 148.391 432.945 145.967 433.665 143.695C434.386 141.399 435.455 139.404 436.873 137.711C438.314 135.995 440.092 134.639 442.207 133.642C444.322 132.644 446.785 132.146 449.598 132.146C452.317 132.146 454.583 132.563 456.396 133.398C458.232 134.21 459.72 135.3 460.858 136.668C462.02 138.013 462.892 139.555 463.473 141.294C464.077 143.034 464.496 144.808 464.728 146.617C464.844 147.498 464.914 148.391 464.937 149.295C464.984 150.199 465.007 151.081 465.007 151.939H438.999ZM449.145 137.572C447.634 137.572 446.309 137.793 445.17 138.233C444.055 138.651 443.102 139.265 442.311 140.077C441.521 140.865 440.882 141.839 440.394 142.999C439.929 144.158 439.581 145.457 439.348 146.895H458.069C457.976 145.55 457.756 144.309 457.407 143.173C457.082 142.036 456.57 141.051 455.873 140.216C455.176 139.381 454.281 138.732 453.189 138.268C452.096 137.804 450.748 137.572 449.145 137.572Z" fill="black"/>
<path d="M18.0282 107.537C14.5773 107.537 11.2453 107.269 8.03237 106.735C4.87892 106.259 2.23121 105.547 0.0892485 104.596V93.4564C2.58821 94.704 5.29541 95.6546 8.21087 96.3081C11.1858 96.9022 14.1013 97.1993 16.9572 97.1993C20.4082 97.1993 22.8179 96.8725 24.1864 96.219C25.6143 95.5061 26.3283 94.3773 26.3283 92.8326C26.3283 92.1196 26.1796 91.5255 25.8821 91.0502C25.6441 90.5155 25.1086 90.0699 24.2756 89.7135C23.5021 89.2976 22.4311 88.9114 21.0627 88.555C19.6942 88.1985 17.8795 87.842 15.6185 87.4855C10.3826 86.5944 6.45564 85.0497 3.83769 82.8515C1.27923 80.6533 0 77.4154 0 73.1378C0 68.266 1.69572 64.5231 5.08717 61.909C8.53811 59.295 13.5955 57.9879 20.2594 57.9879C23.6509 57.9879 26.6258 58.1958 29.1843 58.6117C31.8022 58.9682 34.3309 59.592 36.7704 60.4832V71.0881C33.9144 70.0781 31.2072 69.3651 28.6488 68.9493C26.1498 68.5334 23.5616 68.3255 20.8842 68.3255C17.9092 68.3255 15.797 68.6225 14.5475 69.2166C13.298 69.8107 12.6733 70.791 12.6733 72.1575C12.6733 72.811 12.7923 73.3754 13.0303 73.8507C13.3278 74.2666 13.8633 74.6824 14.6368 75.0983C15.4102 75.4548 16.511 75.8113 17.939 76.1677C19.4264 76.4648 21.3304 76.8212 23.6509 77.2371C29.1248 78.1877 33.1112 79.7621 35.6102 81.9603C38.1686 84.1585 39.4479 87.5747 39.4479 92.2087C39.4479 97.2587 37.6331 101.091 34.0037 103.705C30.3743 106.259 25.0491 107.537 18.0282 107.537Z" fill="black"/>
<path d="M59.2889 86.7726C59.8839 90.2185 61.2524 92.7732 63.3944 94.4367C65.5958 96.1002 68.7195 96.9319 72.7655 96.9319C75.8594 96.9319 78.5369 96.724 80.7978 96.3081C83.0588 95.8922 85.4388 95.1793 87.9377 94.1693V104.774C85.2603 105.725 82.5828 106.408 79.9053 106.824C77.2874 107.299 74.1934 107.537 70.6235 107.537C62.5316 107.537 56.3735 105.428 52.149 101.21C47.9841 96.9319 45.9016 90.9611 45.9016 83.2971C45.9016 79.4948 46.4371 76.0489 47.5081 72.9595C48.5791 69.8701 50.0963 67.2263 52.0598 65.0281C54.0828 62.7705 56.552 61.0476 59.4674 59.8594C62.3829 58.6117 65.6851 57.9879 69.374 57.9879C75.6809 57.9879 80.7086 59.7999 84.457 63.424C88.265 67.0481 90.1689 72.6625 90.1689 80.2671C90.1689 81.3365 90.1689 82.4356 90.1689 83.5644C90.1689 84.6338 90.1392 85.7032 90.0797 86.7726H59.2889ZM69.1955 68.8601C66.6371 68.8601 64.4951 69.6028 62.7696 71.0881C61.1036 72.5734 59.9732 74.9201 59.3782 78.1283H77.8526C77.6741 74.8013 76.8114 72.4248 75.2644 70.999C73.7174 69.5731 71.6945 68.8601 69.1955 68.8601Z" fill="black"/>
<path d="M110.537 86.7726C111.132 90.2185 112.501 92.7732 114.643 94.4367C116.844 96.1002 119.968 96.9319 124.014 96.9319C127.108 96.9319 129.785 96.724 132.046 96.3081C134.307 95.8922 136.687 95.1793 139.186 94.1693V104.774C136.508 105.725 133.831 106.408 131.154 106.824C128.536 107.299 125.442 107.537 121.872 107.537C113.78 107.537 107.622 105.428 103.397 101.21C99.2323 96.9319 97.1498 90.9611 97.1498 83.2971C97.1498 79.4948 97.6853 76.0489 98.7563 72.9595C99.8273 69.8701 101.345 67.2263 103.308 65.0281C105.331 62.7705 107.8 61.0476 110.716 59.8594C113.631 58.6117 116.933 57.9879 120.622 57.9879C126.929 57.9879 131.957 59.7999 135.705 63.424C139.513 67.0481 141.417 72.6625 141.417 80.2671C141.417 81.3365 141.417 82.4356 141.417 83.5644C141.417 84.6338 141.387 85.7032 141.328 86.7726H110.537ZM120.444 68.8601C117.885 68.8601 115.743 69.6028 114.018 71.0881C112.352 72.5734 111.221 74.9201 110.626 78.1283H129.101C128.922 74.8013 128.06 72.4248 126.513 70.999C124.966 69.5731 122.943 68.8601 120.444 68.8601Z" fill="black"/>
<path d="M197.217 97.1102C198.347 97.1102 199.448 96.9319 200.519 96.5755V106.2C199.032 106.675 197.574 106.972 196.146 107.091C194.718 107.269 193.201 107.359 191.594 107.359C189.036 107.359 187.043 106.883 185.615 105.933C184.187 104.982 183.116 103.675 182.402 102.012C180.557 103.913 178.326 105.309 175.708 106.2C173.09 107.091 170.532 107.537 168.033 107.537C161.785 107.537 156.936 105.517 153.485 101.477C150.094 97.4369 148.398 91.3473 148.398 83.208C148.398 79.2274 148.963 75.6924 150.094 72.6031C151.284 69.4543 152.92 66.8105 155.002 64.6717C157.144 62.4734 159.673 60.8099 162.589 59.6811C165.504 58.5523 168.687 57.9879 172.138 57.9879C173.864 57.9879 175.44 58.077 176.868 58.2553C178.356 58.3741 179.784 58.6414 181.152 59.0573V25.0001L194.45 21.0001V93.0999C194.45 95.7734 195.372 97.1102 197.217 97.1102ZM171.246 96.3081C175.173 96.3081 178.475 94.7931 181.152 91.7632V70.3751C178.891 69.6028 176.214 69.2166 173.12 69.2166C169.431 69.2166 166.605 70.4048 164.641 72.7813C162.678 75.1577 161.696 78.4848 161.696 82.7624C161.696 91.7929 164.879 96.3081 171.246 96.3081Z" fill="black"/>
<path d="M255.722 97.1102C256.198 97.1102 256.734 97.0805 257.329 97.021C257.924 96.9022 258.489 96.724 259.024 96.4863V106.022C257.537 106.497 256.02 106.824 254.473 107.002C252.985 107.24 251.438 107.359 249.832 107.359C247.511 107.359 245.637 107.002 244.209 106.289C242.841 105.636 241.799 104.715 241.085 103.527C240.371 102.279 239.895 100.853 239.657 99.249C239.479 97.6449 239.39 95.9219 239.39 94.0802V77.5045C239.39 74.831 238.765 72.7813 237.515 71.3554C236.266 69.8701 234.303 69.1275 231.625 69.1275C230.078 69.1275 228.472 69.3354 226.806 69.7513C225.199 70.1672 223.533 70.9098 221.808 71.9792V106.2H208.599V21.5391L221.808 26.3906V61.7308C225.854 59.2949 230.108 58.077 234.57 58.077C241.056 58.077 245.667 59.7405 248.404 63.0676C251.2 66.3946 252.598 71.2663 252.598 77.6827V93.0999C252.598 94.5258 252.807 95.5655 253.223 96.219C253.699 96.8131 254.532 97.1102 255.722 97.1102Z" fill="black"/>
<path d="M287.945 107.537C284.137 107.537 280.716 106.972 277.681 105.844C274.707 104.715 272.178 103.111 270.095 101.031C268.013 98.8925 266.406 96.3378 265.276 93.3673C264.205 90.3373 263.669 86.9211 263.669 83.1188C263.669 79.3165 264.235 75.8707 265.365 72.7813C266.496 69.6919 268.132 67.0481 270.274 64.8499C272.416 62.6517 275.004 60.9585 278.038 59.7702C281.073 58.582 284.494 57.9879 288.302 57.9879C292.051 57.9879 295.412 58.5523 298.387 59.6811C301.422 60.8099 303.98 62.4437 306.063 64.5825C308.145 66.6619 309.722 69.2166 310.793 72.2466C311.923 75.2766 312.488 78.6927 312.488 82.495C312.488 86.2973 311.923 89.7432 310.793 92.8326C309.662 95.9219 308.026 98.5658 305.884 100.764C303.802 102.903 301.243 104.566 298.209 105.754C295.174 106.943 291.753 107.537 287.945 107.537ZM288.124 96.3081C291.575 96.3081 294.282 95.1496 296.245 92.8326C298.209 90.5155 299.19 87.1588 299.19 82.7624C299.19 78.3659 298.209 75.0092 296.245 72.6922C294.282 70.3751 291.575 69.2166 288.124 69.2166C284.613 69.2166 281.876 70.3751 279.913 72.6922C277.949 75.0092 276.968 78.3659 276.968 82.7624C276.968 87.1588 277.949 90.5155 279.913 92.8326C281.876 95.1496 284.613 96.3081 288.124 96.3081Z" fill="black"/>
<path d="M367.652 97.1102C368.783 97.1102 369.943 96.9022 371.133 96.4863V106.2C369.646 106.675 368.188 106.972 366.76 107.091C365.332 107.269 363.755 107.359 362.03 107.359C359.531 107.359 357.567 106.883 356.139 105.933C354.711 104.982 353.67 103.735 353.016 102.19C348.91 105.755 343.883 107.537 337.933 107.537C331.804 107.537 327.491 105.962 324.992 102.814C322.552 99.6648 321.332 94.7634 321.332 88.1094V59.4138H334.63V86.6835C334.63 89.8917 335.196 92.2087 336.326 93.6346C337.457 95.0605 339.271 95.7734 341.77 95.7734C343.496 95.7734 345.192 95.4467 346.858 94.7931C348.523 94.1396 350.13 93.0108 351.677 91.4067V59.4138H364.975V93.6346C364.975 94.7634 365.153 95.6249 365.51 96.219C365.867 96.8131 366.581 97.1102 367.652 97.1102Z" fill="black"/>
<path d="M394.859 107.537C391.408 107.537 388.076 107.269 384.863 106.735C381.71 106.259 379.062 105.547 376.92 104.596V93.4564C379.419 94.704 382.126 95.6546 385.042 96.3081C388.017 96.9022 390.932 97.1993 393.788 97.1993C397.239 97.1993 399.649 96.8725 401.017 96.219C402.445 95.5061 403.159 94.3773 403.159 92.8326C403.159 92.1196 403.011 91.5255 402.713 91.0502C402.475 90.5155 401.94 90.0699 401.107 89.7135C400.333 89.2976 399.262 88.9114 397.894 88.555C396.525 88.1985 394.71 87.842 392.45 87.4855C387.214 86.5944 383.287 85.0497 380.669 82.8515C378.11 80.6533 376.831 77.4154 376.831 73.1378C376.831 68.266 378.527 64.5231 381.918 61.909C385.369 59.295 390.427 57.9879 397.09 57.9879C400.482 57.9879 403.457 58.1958 406.015 58.6117C408.633 58.9682 411.162 59.592 413.601 60.4832V71.0881C410.746 70.0781 408.038 69.3651 405.48 68.9493C402.981 68.5334 400.393 68.3255 397.715 68.3255C394.74 68.3255 392.628 68.6225 391.379 69.2166C390.129 69.8107 389.504 70.791 389.504 72.1575C389.504 72.811 389.623 73.3754 389.861 73.8507C390.159 74.2666 390.694 74.6824 391.468 75.0983C392.241 75.4548 393.342 75.8113 394.77 76.1677C396.258 76.4648 398.161 76.8212 400.482 77.2371C405.956 78.1877 409.942 79.7621 412.441 81.9603C415 84.1585 416.279 87.5747 416.279 92.2087C416.279 97.2587 414.464 101.091 410.835 103.705C407.205 106.259 401.88 107.537 394.859 107.537Z" fill="black"/>
<path d="M436.12 86.7726C436.715 90.2185 438.083 92.7732 440.225 94.4367C442.427 96.1002 445.551 96.9319 449.596 96.9319C452.69 96.9319 455.368 96.724 457.629 96.3081C459.89 95.8922 462.27 95.1793 464.769 94.1693V104.774C462.091 105.725 459.414 106.408 456.736 106.824C454.118 107.299 451.025 107.537 447.455 107.537C439.363 107.537 433.205 105.428 428.98 101.21C424.815 96.9319 422.733 90.9611 422.733 83.2971C422.733 79.4948 423.268 76.0489 424.339 72.9595C425.41 69.8701 426.927 67.2263 428.891 65.0281C430.914 62.7705 433.383 61.0476 436.298 59.8594C439.214 58.6117 442.516 57.9879 446.205 57.9879C452.512 57.9879 457.54 59.7999 461.288 63.424C465.096 67.0481 467 72.6625 467 80.2671C467 81.3365 467 82.4356 467 83.5644C467 84.6338 466.97 85.7032 466.911 86.7726H436.12ZM446.027 68.8601C443.468 68.8601 441.326 69.6028 439.601 71.0881C437.935 72.5734 436.804 74.9201 436.209 78.1283H454.684C454.505 74.8013 453.642 72.4248 452.095 70.999C450.549 69.5731 448.526 68.8601 446.027 68.8601Z" fill="black"/>
<g clip-path="url(#clip0_1601_130)">
<path d="M521.534 56.0327C519.643 58.4606 518.461 61.3529 518.115 64.3967C519.53 63.1226 520.468 61.4132 520.776 59.546C520.888 58.3495 521.142 57.1702 521.534 56.0327Z" fill="black"/>
<path d="M518.229 87.1092C518.126 86.6073 518.049 86.1004 518 85.5905V95.3599C518.744 92.6674 518.822 89.8379 518.229 87.1092Z" fill="black"/>
<path d="M520.547 81.2384C521.466 80.794 522.242 80.1042 522.785 79.2469C523.329 78.3896 523.618 77.3992 523.621 76.3877C523.6 74.8375 523.919 73.3011 524.557 71.8846C525.195 70.468 526.136 69.2049 527.316 68.1824C529.134 66.1417 530.813 63.9836 532.341 61.7224C535.392 57.5012 539.627 54.2548 544.525 52.3837C547.411 51.2439 550.081 49.6265 552.418 47.6011C555.561 44.4957 555.837 37.1291 554.873 29.8304L525.159 52.5424C524.216 54.7984 523.517 57.146 523.071 59.5464C523.071 62.4704 520.638 65.1904 518 67.8197V84.5024C518.154 83.8064 518.463 83.1528 518.903 82.5885C519.343 82.0241 519.905 81.5631 520.547 81.2384Z" fill="black"/>
<path d="M529.472 154.905C529.472 153.341 529.472 149.941 527.178 148.241C525.572 146.971 522.956 146.79 519.445 147.651C518.984 147.78 518.531 147.939 518.092 148.127V153.93C519.721 153.93 521.442 154.293 523.117 154.542C525.196 155.039 527.349 155.162 529.472 154.905Z" fill="black"/>
<path d="M539.821 145.341C544.066 143.414 547.668 138.405 549.228 132.239C550.38 126.916 550.85 121.471 550.628 116.033C550.34 111.068 550.836 106.09 552.097 101.277C553.358 97.5366 559.118 84.4126 563.363 85.138C565.657 85.5006 565.657 89.082 565.657 90.4193C565.618 93.5118 566.155 96.585 567.24 99.486C568.365 102.841 569.191 105.266 565.451 110.819C560.127 118.73 555.469 140.286 557.833 142.167C557.993 142.303 558.888 142.167 560.862 140.286C572.564 128.726 584.358 128.726 595.761 128.726C600.087 128.859 604.338 129.878 608.244 131.718C612.833 133.599 615.127 134.393 617.697 131.854C621.942 127.638 623.479 127.729 626.279 128.295C627.451 128.575 628.652 128.719 629.858 128.726C632.231 128.361 634.365 127.091 635.801 125.19C636.604 124.317 637.523 123.554 638.532 122.923C639.087 122.596 639.741 122.469 640.381 122.564C641.021 122.659 641.608 122.97 642.042 123.445C642.611 124.02 643.147 124.625 643.648 125.258C645.255 127.275 646.402 128.726 652.597 128.726C654.917 128.747 657.231 128.473 659.481 127.91C660.781 127.508 662.152 127.383 663.505 127.543C664.858 127.704 666.161 128.145 667.328 128.839C668.459 129.588 669.803 129.958 671.163 129.892C672.523 129.827 673.825 129.331 674.877 128.477V122.969C674.459 123.154 674.004 123.247 673.546 123.241C672.537 123.148 671.555 122.863 670.655 122.402C669.711 121.908 668.66 121.649 667.592 121.649C666.524 121.649 665.472 121.908 664.529 122.402C663.115 123.012 661.554 123.207 660.031 122.961C658.509 122.716 657.091 122.042 655.947 121.019C655.349 120.592 654.898 119.992 654.656 119.303C654.414 118.614 654.392 117.868 654.593 117.166C655.259 115.489 657.461 114.65 661.179 114.65C666.061 114.21 670.773 112.659 674.946 110.117V100.733C673.378 101.283 671.846 101.926 670.357 102.659C664.643 105.47 658.746 108.394 652.781 108.394C647.572 108.394 647.572 108.394 645.071 110.865C637.545 118.299 632.29 121.631 629.009 121.11C628.399 121.016 627.822 120.774 627.33 120.406C626.837 120.039 626.445 119.556 626.187 119.002C625.407 117.461 624.627 115.534 623.892 113.517C621.804 108.258 619.189 101.73 615.403 99.9166C609.192 96.8222 603.37 93.0184 598.056 88.5833C597.436 87.994 596.702 87.1553 595.761 86.158C592.595 82.486 587.822 76.9553 581.352 74.8246L579.539 74.2353C572.22 71.9686 569.214 70.926 569.214 59.7286C569.214 53.7673 564.946 46.99 562.33 44.0886C562.468 44.406 562.651 44.7686 562.858 45.1766C565.611 50.6393 566.346 59.6606 554.116 71.742C553.333 72.5505 552.641 73.4396 552.051 74.394C550.459 77.0193 548.099 79.1059 545.282 80.378C544.353 80.6879 543.533 81.2537 542.919 82.0088C542.306 82.7638 541.923 83.6765 541.817 84.6393C541.569 86.0747 540.861 87.3937 539.798 88.402C538.696 89.49 538.696 89.8753 538.696 90.4193C538.704 91.1117 538.55 91.7965 538.248 92.4213C537.946 93.046 537.503 93.594 536.953 94.0233C535.513 95.5881 534.454 97.4563 533.855 99.486C533.194 101.348 532.428 103.172 531.56 104.949C530.681 106.546 529.584 108.018 528.302 109.323C525.136 112.814 523.071 115.103 528.509 120.498C533.947 125.893 536.356 132.738 534.061 136.727C533.144 138.314 530.711 140.762 524.585 139.243L518 137.543V140.014C523.471 141.237 528.778 143.093 533.809 145.545C534.761 145.962 535.797 146.161 536.839 146.126C537.88 146.09 538.9 145.822 539.821 145.341ZM581.122 106.241C582.044 105.932 582.856 105.369 583.462 104.617C584.068 103.866 584.443 102.958 584.541 102.002C584.728 100.518 585.396 99.1346 586.446 98.0579C589.612 94.93 603.333 101.322 607.601 103.43C612.534 105.062 615.081 106.83 615.586 109.006C615.713 109.887 615.602 110.785 615.263 111.609C614.925 112.433 614.371 113.154 613.659 113.698C610.424 116.871 601.498 116.985 595.303 113.902C593.169 112.859 591.631 113.721 589.337 115.239C587.804 116.516 585.917 117.306 583.922 117.506C582.937 117.499 581.969 117.258 581.099 116.803C577.795 115.171 576.189 113.471 576.189 111.59C576.189 109.709 577.795 107.873 581.099 106.241H581.122Z" fill="black"/>
<path d="M582.109 114.673C584.243 115.716 585.78 114.855 588.075 113.336C590.369 111.817 592.893 110.163 596.335 111.863C601.934 114.628 609.804 114.288 612.053 112.067C613.108 111.024 613.544 110.185 613.384 109.505C613.223 108.825 612.122 107.239 606.821 105.539H606.661C599.364 101.935 592.067 99.4186 589.222 99.4186C588.823 99.3676 588.419 99.4734 588.098 99.7133C587.392 100.462 586.95 101.416 586.836 102.433C586.68 103.728 586.17 104.956 585.362 105.986C584.553 107.016 583.477 107.809 582.247 108.281C579.952 109.415 578.621 110.548 578.621 111.477C578.621 112.407 579.814 113.54 582.109 114.673Z" fill="black"/>
<path d="M525.044 137.044C528.486 137.883 530.941 137.384 531.928 135.616C533.442 132.964 531.928 127.207 526.742 122.016C519.858 115.216 523.323 111.182 526.444 107.714C527.608 106.589 528.625 105.325 529.472 103.951C530.528 101.843 531.193 100.166 531.767 98.6922C532.464 96.3538 533.696 94.2053 535.369 92.4136C536.448 91.3482 536.448 90.9629 536.448 90.4189C536.443 89.7246 536.6 89.0386 536.907 88.4137C537.213 87.7889 537.66 87.2419 538.215 86.8149C538.942 86.0508 539.394 85.0707 539.5 84.0269C539.663 82.719 540.189 81.481 541.019 80.4493C541.849 79.4175 542.951 78.6319 544.203 78.1789C546.672 77.0723 548.738 75.2449 550.123 72.9429C550.77 71.8694 551.54 70.8731 552.418 69.9736C563.638 58.9349 563.11 50.7976 560.678 46.0149C558.934 42.5469 558.98 41.4816 559.623 40.7109C559.842 40.475 560.131 40.3146 560.449 40.2534C560.767 40.1922 561.097 40.2334 561.389 40.3709C564.12 41.4136 571.394 51.1602 571.394 59.5469C571.394 69.0896 573.069 69.6336 580.136 71.9002L581.971 72.4896C589.038 74.7562 594.063 80.6496 597.391 84.5029C598.217 85.4322 598.905 86.2482 599.456 86.7696C604.607 91.0564 610.234 94.752 616.229 97.7856C620.818 100.052 623.456 106.716 625.82 112.632C626.623 114.604 627.357 116.486 628.114 117.936C628.21 118.172 628.366 118.38 628.567 118.539C628.768 118.698 629.007 118.802 629.262 118.843C630.661 119.047 634.333 118.095 643.327 109.21C646.517 106.082 646.861 106.082 652.666 106.082C658.081 106.082 663.748 103.294 669.209 100.596C671.073 99.725 672.988 98.968 674.946 98.3296V85.7269C673.34 85.8629 671.619 85.9309 669.714 85.9309C666.284 86.0905 662.876 85.3058 659.871 83.6642C657.576 82.5082 655.924 81.6469 650.096 83.0976C638.725 85.9309 626.82 85.9309 615.449 83.0976C603.769 80.2189 595.05 71.5829 592.182 68.7722C591.425 68.0016 590.186 67.0269 588.786 65.8709C585.023 62.8336 579.952 58.6856 577.658 54.4016C574.835 48.8256 569.03 34.5002 569.03 25.8189C569.058 23.6305 568.874 21.4445 568.479 19.2909L557.007 28.1536C558.223 35.8602 558.361 44.9269 554.116 49.0976C551.596 51.3534 548.69 53.1493 545.534 54.4016C541.028 56.1259 537.118 59.0918 534.268 62.9469C532.682 65.28 530.95 67.5132 529.082 69.6336C526.788 72.1722 525.939 73.2149 525.939 76.4336C525.942 77.8077 525.566 79.1568 524.85 80.3351C524.134 81.5135 523.107 82.4765 521.878 83.1202C520.845 83.8682 520.248 84.2989 520.248 84.8429C520.282 85.4906 520.366 86.1348 520.501 86.7696C521.61 91.6544 520.711 96.7745 518 101.004V135.186H518.229C520.294 135.798 522.589 136.41 525.044 137.044Z" fill="black"/>
<path d="M656.75 117.868C656.75 118.118 656.75 118.639 657.484 119.228C658.285 119.945 659.276 120.421 660.34 120.601C661.405 120.782 662.499 120.66 663.496 120.248C664.739 119.622 666.115 119.295 667.511 119.295C668.907 119.295 670.283 119.622 671.527 120.248C673.317 120.951 673.821 121.064 674.579 120.248L674.923 119.908V112.655C670.711 115.053 666.004 116.479 661.156 116.826C657.966 116.826 656.888 117.506 656.75 117.868Z" fill="black"/>
<path d="M673.133 166.691C671.557 167.846 669.901 168.891 668.177 169.819C670.156 169.4 671.917 168.289 673.133 166.691Z" fill="black"/>
<path d="M585.39 42.0712C587.821 45.5662 590.612 48.8022 593.719 51.7272C596.958 54.7493 599.865 58.0998 602.393 61.7232C607.716 69.5432 612.856 72.5352 621.392 72.5352C625.006 72.5329 628.599 73.0912 632.038 74.1898C634.102 74.8891 636.259 75.2788 638.44 75.3458C644.107 75.3458 646.7 75.3458 652.207 72.6485C653.35 71.979 654.674 71.6723 655.999 71.7696C657.325 71.8668 658.588 72.3635 659.618 73.1925C661.744 74.6964 664.301 75.4905 666.915 75.4592C669.21 75.4592 672.055 75.4592 674.992 75.4592V72.6485C673.972 72.7736 672.945 72.8417 671.917 72.8525C670.024 72.9117 668.141 72.5475 666.41 71.7872C664.682 70.9343 663.229 69.6237 662.211 68.0018C661.064 66.3698 660.72 65.8712 656.131 68.9085C647.274 74.7338 635.801 71.9912 635.319 71.8552H635.021L634.792 71.6285C633.048 70.092 630.919 69.0459 628.626 68.5993C626.334 68.1528 623.962 68.3222 621.759 69.0898C613.085 71.9685 605.192 55.7845 601.429 48.0098C601.062 47.2618 600.741 46.6045 600.465 46.0832C597.173 38.8279 595.208 31.0541 594.66 23.1218C594.619 21.5942 594.107 20.1153 593.192 18.8832C591.746 16.4805 589.956 13.4885 591.861 5.98583C592.273 4.30071 592.565 2.58889 592.733 0.863159C592.212 1.11357 591.72 1.41747 591.264 1.76983L579.952 10.4738V11.8112C579.952 17.2738 579.952 34.0018 585.39 42.0712Z" fill="black"/>
<path d="M630.432 36.0642C632.061 36.8802 633.484 37.4468 634.608 37.9228C637.499 39.1015 639.587 39.9402 639.587 42.6828C639.573 42.8117 639.581 42.9419 639.61 43.0682L639.908 43.2042C641.17 43.7028 642.409 44.5189 642.409 48.2589C642.513 49.487 642.946 50.6656 643.664 51.6736C644.382 52.6815 645.358 53.4823 646.494 53.9935C648.274 54.8872 650.275 55.2657 652.264 55.0852C654.253 54.9047 656.15 54.1727 657.737 52.9735C661.614 50.3895 663.542 49.8682 664.85 50.3215L627.151 21.3535C625.705 27.5188 625.957 33.8655 630.432 36.0642Z" fill="black"/>
<path d="M613.819 19.8794C613.269 25.1154 612.167 35.9728 616.733 44.9941C617.903 47.2608 618.707 49.0288 619.349 50.3661C621.253 54.4008 621.253 54.4008 625.177 56.9621L627.701 58.5941C629.858 60.0221 631.326 61.0874 632.29 61.8808C635.181 64.0114 635.181 64.0114 641.193 64.0114C649.752 64.0114 654.96 64.0114 660.261 58.7301C662.073 56.9621 663.266 56.3274 664.391 56.4634C665.515 56.5994 666.18 58.0501 666.685 59.4328C666.919 60.376 667.342 61.2633 667.929 62.042C668.516 62.8207 669.256 63.475 670.104 63.9661C671.572 64.4988 673.159 64.6242 674.693 64.3288C674.588 63.425 674.412 62.5307 674.165 61.6541C673.509 61.6667 672.861 61.5105 672.284 61.2008C671.963 61.0178 671.698 60.753 671.516 60.4339C671.334 60.1149 671.243 59.7534 671.251 59.3874C671.111 57.6655 670.676 55.9796 669.966 54.4008C669.447 53.8616 668.887 53.3615 668.291 52.9048L667.351 52.1341C666.525 52.8821 665.584 53.4261 664.414 52.5194C663.794 52.0434 661.958 52.7914 658.976 54.7861C657.031 56.1901 654.733 57.0385 652.333 57.2384C649.933 57.4383 647.524 56.982 645.369 55.9194C643.878 55.2213 642.606 54.1392 641.685 52.787C640.765 51.4348 640.23 49.8625 640.137 48.2354C640.137 45.6968 639.587 45.4928 639.059 45.2661C638.515 45.0938 638.047 44.7444 637.73 44.2751C637.413 43.8057 637.267 43.2442 637.315 42.6821C637.315 41.5714 636.719 41.2314 633.759 40.0074C632.588 39.5314 631.12 38.9421 629.422 38.1034C624.305 35.5648 622.814 28.8101 625.2 19.8341L613.727 11.0394C613.929 13.1641 614.021 15.2975 614.003 17.4314C614.003 17.9301 613.934 18.7688 613.819 19.8794Z" fill="black"/>
<path d="M595.165 17.6585C596.295 19.2389 596.919 21.1184 596.954 23.0531C597.506 30.6318 599.393 38.0571 602.53 44.9945C602.783 45.5385 603.127 46.1958 603.494 46.9664C606.706 53.5851 614.255 69.1118 621.024 66.8904C623.574 66.0037 626.315 65.7988 628.971 66.2964C631.626 66.794 634.101 67.9764 636.145 69.7238C637.889 70.0864 647.618 71.8091 654.845 67.0038C660.329 63.3998 662.027 63.8078 664.024 66.7091C664.812 68.0018 665.948 69.0532 667.305 69.7465C669.709 70.6634 672.328 70.8836 674.854 70.3811V66.7318C674.142 66.7318 673.477 66.7318 672.835 66.7318C671.559 66.7871 670.288 66.5546 669.117 66.0518C667.997 65.4279 667.014 64.5893 666.226 63.5851C665.438 62.5808 664.861 61.4313 664.528 60.2038C664.361 59.6503 664.114 59.1235 663.794 58.6398C663.092 59.0943 662.446 59.6266 661.867 60.2265C655.855 66.1651 649.683 66.1651 641.216 66.1651C634.699 66.1651 634.332 66.1651 630.936 63.5811C629.881 62.8105 628.458 61.7451 626.347 60.3624L623.938 58.9345C619.533 56.1011 619.349 55.9425 617.261 51.3865C616.642 50.0718 615.838 48.3718 614.668 46.0825C609.781 36.4038 610.974 25.0931 611.525 19.6531C611.639 18.6558 611.708 17.8851 611.708 17.3865C611.752 14.6026 611.561 11.82 611.135 9.06779L601.658 1.76912C600.753 1.04823 599.707 0.51922 598.586 0.215043C597.465 -0.0891343 596.293 -0.161954 595.142 0.00112111C594.952 2.15487 594.599 4.29154 594.086 6.39312C592.411 13.0798 593.719 15.3918 595.165 17.6585Z" fill="black"/>
<path d="M579.792 53.4045C581.719 57.2351 586.675 61.2018 590.209 64.1031C591.677 65.3045 592.939 66.3698 593.788 67.1631C596.542 69.8831 604.94 78.1565 615.976 80.8991C626.986 83.6413 638.513 83.6413 649.523 80.8991C656.2 79.2445 658.379 80.3778 660.995 81.6471C663.669 83.1352 666.719 83.8353 669.783 83.6645C671.711 83.6645 673.409 83.6645 675.015 83.4378V77.4538C672.078 77.4538 669.301 77.4538 666.938 77.4538C663.919 77.5094 660.955 76.6469 658.448 74.9831C657.754 74.3477 656.865 73.9583 655.922 73.8762C654.98 73.7942 654.036 74.0241 653.24 74.5298C648.719 76.8678 643.616 77.8822 638.532 77.4538C636.133 77.3918 633.758 76.9715 631.487 76.2071C628.219 75.2107 624.811 74.7363 621.392 74.8018C612.076 74.8018 606.248 71.4245 600.603 62.9698C598.171 59.463 595.363 56.2256 592.228 53.3138C588.99 50.2916 586.083 46.9412 583.555 43.3178C577.658 34.8178 577.658 18.2485 577.658 12.2418L570.43 17.7498C571.066 20.4015 571.389 23.1168 571.394 25.8418C571.394 34.1378 577.038 47.9871 579.792 53.4045Z" fill="black"/>
<path d="M612.075 151.256C618.064 146.722 621.254 146.722 623.778 146.722C626.302 146.722 627.931 146.722 631.854 142.846C632.841 141.849 634.401 140.058 633.667 139.038C632.015 136.772 622.883 137.112 618.959 139.038C614.554 141.305 612.924 140.353 610.24 138.472C609.08 137.62 607.852 136.862 606.569 136.205C603.815 134.845 600.97 135.797 597.39 137.021C594.142 138.296 590.696 139.009 587.203 139.129C581.398 139.129 572.426 144.886 565.887 149.057C563.225 150.757 560.953 152.23 559.301 153.046C558.315 153.545 557.167 154.18 555.859 154.928C549.504 158.532 539.912 163.994 530.092 161.569C525.503 160.413 521.969 160.64 519.858 162.272C519.238 162.767 518.73 163.384 518.367 164.085C518.898 165.798 519.971 167.297 521.429 168.362C522.887 169.427 524.653 170.002 526.466 170.001H546.36C546.36 165.468 547.071 162.362 552.67 159.574C555.969 158.087 559.447 157.021 563.018 156.401C566.297 155.734 569.537 154.894 572.724 153.885C575.137 153.053 577.388 151.819 579.378 150.236C580.82 148.852 582.648 147.925 584.626 147.574C586.605 147.223 588.644 147.463 590.484 148.264C596.84 150.349 599.662 152.298 599.914 154.588C600.167 156.877 597.253 158.328 596.335 158.781C594.04 159.869 594.04 160.186 593.788 161.569C593.178 164.623 591.885 167.504 590.002 170.001H594.109C599.003 162.81 605.075 156.475 612.075 151.256Z" fill="black"/>
<path d="M624.237 156.65C628.826 156.65 637.293 154.542 637.293 146.563C637.172 145.5 637.279 144.424 637.607 143.405C637.935 142.385 638.477 141.446 639.197 140.647C641.033 139.015 643.648 139.287 646.425 139.582C647.544 139.715 648.67 139.79 649.798 139.809C655.511 139.809 660.903 139.809 666.341 137.111C669.079 136.091 672 135.636 674.923 135.774V131.037C673.587 131.722 672.094 132.053 670.59 131.997C669.085 131.942 667.622 131.501 666.341 130.719C665.414 130.135 664.364 129.766 663.271 129.64C662.178 129.514 661.07 129.635 660.031 129.994C657.615 130.584 655.132 130.874 652.643 130.855C645.346 130.855 643.671 128.747 641.882 126.549C641.449 125.963 640.974 125.41 640.459 124.894C640.161 124.599 640.023 124.599 639.633 124.894C638.841 125.425 638.116 126.049 637.476 126.753C636.561 127.915 635.42 128.885 634.119 129.605C632.819 130.325 631.386 130.781 629.904 130.946C628.533 130.907 627.171 130.717 625.843 130.379C623.709 129.949 622.906 129.79 619.326 133.326C615.747 136.862 611.777 135.593 607.395 133.689C603.768 131.952 599.813 130.987 595.784 130.855C584.312 130.855 573.527 130.855 562.491 141.735C559.921 144.297 557.902 144.977 556.41 143.775C551.821 140.058 559.531 115.419 563.569 109.435C566.667 104.902 566.139 103.27 565.084 100.119C563.931 97.0127 563.356 93.7262 563.386 90.4178C563.386 87.7885 562.881 87.3352 562.881 87.3352C561.573 87.3352 556.709 94.7018 554.253 102.001C553.079 106.582 552.622 111.313 552.9 116.031C553.126 121.661 552.633 127.297 551.431 132.805C549.687 139.605 545.695 145.158 540.762 147.402C539.527 148.028 538.166 148.37 536.779 148.401C535.392 148.432 534.015 148.153 532.754 147.583C528.051 145.282 523.102 143.511 518 142.302V145.725C518.275 145.725 518.527 145.521 518.803 145.453C523.025 144.41 526.306 144.75 528.509 146.45C531.606 148.717 531.606 153.25 531.606 154.973C531.613 155.287 531.548 155.598 531.417 155.885C531.286 156.171 531.092 156.425 530.849 156.627C529.541 157.738 527.017 157.421 522.681 156.786C521.097 156.559 519.491 156.31 518.092 156.197V161.183C518.263 160.983 518.447 160.794 518.642 160.617C521.327 158.554 525.526 158.169 530.826 159.506C539.752 161.773 548.861 156.514 554.896 153.091C556.25 152.343 557.443 151.663 558.452 151.165C559.99 150.394 562.238 148.898 564.831 147.311C571.715 142.959 580.893 136.998 587.386 136.998C590.622 136.869 593.812 136.195 596.817 135.003C600.603 133.734 604.159 132.533 607.785 134.323C609.169 135.021 610.497 135.824 611.754 136.726C614.049 138.29 614.714 138.811 618.133 137.111C622.263 135.094 633.002 134.119 635.709 137.837C636.604 139.083 636.994 141.259 633.667 144.637C629.078 149.17 626.577 149.17 623.961 149.17C621.346 149.17 619.028 149.17 613.636 153.159C607.209 157.881 601.566 163.563 596.909 170.001H605.192C606.476 168.416 607.847 166.903 609.299 165.467C614.921 159.755 618.064 156.65 624.237 156.65Z" fill="black"/>
<path d="M642.272 160.935C645.736 159.552 649.339 158.147 652.138 156.742C654.723 155.338 657.05 153.514 659.022 151.347C661.159 149.024 663.662 147.058 666.433 145.522L669.209 144.071C671.036 142.984 672.984 142.109 675.015 141.464V138.042C672.448 137.902 669.88 138.28 667.466 139.152C661.546 142.076 655.626 142.076 649.89 142.076C648.677 142.063 647.467 141.98 646.264 141.827C643.97 141.6 641.905 141.374 640.826 142.326C639.899 143.537 639.487 145.058 639.679 146.564C639.679 155.064 631.717 158.918 624.328 158.918C619.12 158.918 616.55 161.456 610.928 167.01C609.919 168.007 609.024 169.004 608.175 170.002H624.81C627.114 168.106 629.641 166.493 632.336 165.196C635.136 163.768 638.761 162.34 642.272 160.935Z" fill="black"/>
<path d="M668.544 155.743C670.437 153.955 672.567 152.43 674.877 151.21V143.866C673.281 144.482 671.745 145.241 670.288 146.133L667.443 147.629C664.859 149.034 662.532 150.857 660.559 153.023C658.431 155.356 655.927 157.325 653.148 158.849C650.28 160.277 646.631 161.705 643.121 163.087C639.61 164.47 636.076 165.875 633.277 167.258C631.621 168.057 630.026 168.974 628.505 170.001H643.052C647.651 166.789 652.668 164.205 657.966 162.317C661.936 160.914 665.546 158.671 668.544 155.743Z" fill="black"/>
<path d="M674.831 162.363C674.831 162.113 674.831 161.887 674.831 161.637V153.749C673.095 154.826 671.466 156.063 669.967 157.444C666.737 160.567 662.863 162.964 658.609 164.471C654.575 165.857 650.724 167.714 647.136 170.001H661.913C666.542 168.367 670.806 165.857 674.464 162.612C674.593 162.539 674.716 162.456 674.831 162.363Z" fill="black"/>
<path d="M595.302 156.765C597.046 155.903 597.597 155.178 597.597 154.77C597.597 154.362 597.092 152.866 589.75 150.441C588.261 149.755 586.593 149.543 584.977 149.836C583.362 150.128 581.878 150.91 580.732 152.073C578.544 153.811 576.068 155.161 573.413 156.062C570.159 157.108 566.85 157.978 563.5 158.669C560.118 159.236 556.825 160.234 553.703 161.638C549.251 163.905 548.723 165.741 548.655 170.025H587.203C589.344 167.463 590.831 164.432 591.539 161.185C591.906 159.326 592.251 158.283 595.302 156.765Z" fill="black"/>
</g>
<defs>
<clipPath id="clip0_1601_130">
<rect width="156.923" height="170" fill="white" transform="translate(518)"/>
</clipPath>
</defs>
</svg>
