<svg width="127" height="127" viewBox="0 0 127 127" fill="none" xmlns="http://www.w3.org/2000/svg">
<g filter="url(#filter0_ii_57_999)">
<path fill-rule="evenodd" clip-rule="evenodd" d="M12.0032 74.5405C12.5823 77.1726 13.4246 79.6994 14.4248 82.1736C15.2671 84.1214 16.162 86.0165 17.2148 87.9116C24.4795 100.704 37.1663 111.706 51.6955 115.022C64.3822 117.865 81.7542 113.285 85.2812 99.0718C85.8707 96.6841 85.9981 94.2139 86.1255 91.7444C86.2255 89.8037 86.3256 87.8634 86.6499 85.9639C87.7027 79.5942 91.5456 73.7509 96.9151 70.2765C98.7197 69.0871 100.7 68.1613 102.676 67.2377C105.772 65.7905 108.856 64.3486 111.234 61.9064C117.235 55.7999 116.761 45.5346 113.129 37.7435C107.917 26.5833 97.4942 18.5291 86.0708 14.3177C77.0163 11.0012 67.1196 9.89574 57.5387 10.8959C42.5358 12.4226 28.4803 18.9502 19.7943 31.5317C11.2136 44.0079 8.52885 59.8533 12.0032 74.5405ZM68.4354 23.689C64.0743 23.689 60.5391 27.2243 60.5391 31.5853C60.5391 35.9463 64.0743 39.4816 68.4354 39.4816C72.7965 39.4816 76.3317 35.9463 76.3317 31.5853C76.3317 27.2243 72.7965 23.689 68.4354 23.689ZM94.7547 39.4819C90.3936 39.4819 86.8584 43.0173 86.8584 47.3783C86.8584 51.7392 90.3936 55.2746 94.7547 55.2746C99.1159 55.2746 102.651 51.7392 102.651 47.3783C102.651 43.0173 99.1159 39.4819 94.7547 39.4819ZM34.2187 42.1126C34.2187 37.7516 37.7541 34.2163 42.1151 34.2163C46.4761 34.2163 50.0114 37.7516 50.0114 42.1126C50.0114 46.4737 46.4761 50.009 42.1151 50.009C37.7541 50.009 34.2187 46.4737 34.2187 42.1126ZM31.5848 60.5381C27.2238 60.5381 23.6885 64.0733 23.6885 68.4344C23.6885 72.7956 27.2238 76.3308 31.5848 76.3308C35.9458 76.3308 39.4812 72.7956 39.4812 68.4344C39.4812 64.0733 35.9458 60.5381 31.5848 60.5381ZM48.8826 84.434C51.2857 82.6317 54.4848 81.5947 57.9067 81.5947C61.3285 81.5947 64.5277 82.6317 66.9308 84.434C69.3346 86.2369 71.0672 88.9285 71.0672 92.1232C71.0672 95.3178 69.3346 98.0094 66.9308 99.8124C64.5277 101.615 61.3285 102.652 57.9067 102.652C54.4848 102.652 51.2857 101.615 48.8826 99.8124C46.4788 98.0095 44.7461 95.3179 44.7461 92.1232C44.7461 88.9285 46.4788 86.2369 48.8826 84.434Z" fill="#221B38"/>
<path fill-rule="evenodd" clip-rule="evenodd" d="M12.0032 74.5405C12.5823 77.1726 13.4246 79.6994 14.4248 82.1736C15.2671 84.1214 16.162 86.0165 17.2148 87.9116C24.4795 100.704 37.1663 111.706 51.6955 115.022C64.3822 117.865 81.7542 113.285 85.2812 99.0718C85.8707 96.6841 85.9981 94.2139 86.1255 91.7444C86.2255 89.8037 86.3256 87.8634 86.6499 85.9639C87.7027 79.5942 91.5456 73.7509 96.9151 70.2765C98.7197 69.0871 100.7 68.1613 102.676 67.2377C105.772 65.7905 108.856 64.3486 111.234 61.9064C117.235 55.7999 116.761 45.5346 113.129 37.7435C107.917 26.5833 97.4942 18.5291 86.0708 14.3177C77.0163 11.0012 67.1196 9.89574 57.5387 10.8959C42.5358 12.4226 28.4803 18.9502 19.7943 31.5317C11.2136 44.0079 8.52885 59.8533 12.0032 74.5405ZM68.4354 23.689C64.0743 23.689 60.5391 27.2243 60.5391 31.5853C60.5391 35.9463 64.0743 39.4816 68.4354 39.4816C72.7965 39.4816 76.3317 35.9463 76.3317 31.5853C76.3317 27.2243 72.7965 23.689 68.4354 23.689ZM94.7547 39.4819C90.3936 39.4819 86.8584 43.0173 86.8584 47.3783C86.8584 51.7392 90.3936 55.2746 94.7547 55.2746C99.1159 55.2746 102.651 51.7392 102.651 47.3783C102.651 43.0173 99.1159 39.4819 94.7547 39.4819ZM34.2187 42.1126C34.2187 37.7516 37.7541 34.2163 42.1151 34.2163C46.4761 34.2163 50.0114 37.7516 50.0114 42.1126C50.0114 46.4737 46.4761 50.009 42.1151 50.009C37.7541 50.009 34.2187 46.4737 34.2187 42.1126ZM31.5848 60.5381C27.2238 60.5381 23.6885 64.0733 23.6885 68.4344C23.6885 72.7956 27.2238 76.3308 31.5848 76.3308C35.9458 76.3308 39.4812 72.7956 39.4812 68.4344C39.4812 64.0733 35.9458 60.5381 31.5848 60.5381ZM48.8826 84.434C51.2857 82.6317 54.4848 81.5947 57.9067 81.5947C61.3285 81.5947 64.5277 82.6317 66.9308 84.434C69.3346 86.2369 71.0672 88.9285 71.0672 92.1232C71.0672 95.3178 69.3346 98.0094 66.9308 99.8124C64.5277 101.615 61.3285 102.652 57.9067 102.652C54.4848 102.652 51.2857 101.615 48.8826 99.8124C46.4788 98.0095 44.7461 95.3179 44.7461 92.1232C44.7461 88.9285 46.4788 86.2369 48.8826 84.434Z" fill="url(#paint0_radial_57_999)"/>
</g>
<defs>
<filter id="filter0_ii_57_999" x="10.5273" y="6.54102" width="109.286" height="113.283" filterUnits="userSpaceOnUse" color-interpolation-filters="sRGB">
<feFlood flood-opacity="0" result="BackgroundImageFix"/>
<feBlend mode="normal" in="SourceGraphic" in2="BackgroundImageFix" result="shape"/>
<feColorMatrix in="SourceAlpha" type="matrix" values="0 0 0 0 0 0 0 0 0 0 0 0 0 0 0 0 0 0 127 0" result="hardAlpha"/>
<feOffset dx="4" dy="4"/>
<feGaussianBlur stdDeviation="2"/>
<feComposite in2="hardAlpha" operator="arithmetic" k2="-1" k3="1"/>
<feColorMatrix type="matrix" values="0 0 0 0 1 0 0 0 0 1 0 0 0 0 1 0 0 0 0.25 0"/>
<feBlend mode="normal" in2="shape" result="effect1_innerShadow_57_999"/>
<feColorMatrix in="SourceAlpha" type="matrix" values="0 0 0 0 0 0 0 0 0 0 0 0 0 0 0 0 0 0 127 0" result="hardAlpha"/>
<feOffset dy="-4"/>
<feGaussianBlur stdDeviation="4"/>
<feComposite in2="hardAlpha" operator="arithmetic" k2="-1" k3="1"/>
<feColorMatrix type="matrix" values="0 0 0 0 0.192157 0 0 0 0 0 0 0 0 0 0.65098 0 0 0 0.2 0"/>
<feBlend mode="normal" in2="effect1_innerShadow_57_999" result="effect2_innerShadow_57_999"/>
</filter>
<radialGradient id="paint0_radial_57_999" cx="0" cy="0" r="1" gradientUnits="userSpaceOnUse" gradientTransform="translate(59.25 62.9995) rotate(180) scale(50.75 375.7)">
<stop stop-color="#489BF9"/>
<stop offset="1" stop-color="#6CDDED"/>
</radialGradient>
</defs>
</svg>
