<svg width="132" height="57" viewBox="0 0 132 57" fill="none" xmlns="http://www.w3.org/2000/svg">
<g clip-path="url(#clip0_49_837)">
<path d="M50.4787 1C50.4787 0.447716 50.0309 0 49.4787 0H1C0.447717 0 0 0.447715 0 1V6.73481C0 7.28709 0.447715 7.73481 1 7.73481H20.9621V55C20.9621 55.5523 21.4098 56 21.9621 56H28.5165C29.0688 56 29.5165 55.5523 29.5165 55V7.73481H49.4787C50.0309 7.73481 50.4787 7.28709 50.4787 6.73481V1Z" fill="#173C34"/>
<path d="M108.761 56.0204C107.251 56.0204 105.961 55.7595 104.889 55.2377C103.817 54.7017 102.999 53.8767 102.435 52.7625C101.885 51.6483 101.61 50.2309 101.61 48.5102C101.61 45.9716 102.231 44.0887 103.472 42.8617C104.727 41.6206 106.49 41 108.761 41C110.002 41 111.116 41.2116 112.103 41.6347C113.09 42.0578 113.866 42.6924 114.43 43.5387C114.851 44.1551 115.119 44.8875 115.234 45.7358C115.307 46.2832 114.85 46.7332 114.298 46.7332H113.124C112.572 46.7332 112.147 46.2769 112.005 45.7431C111.934 45.4787 111.833 45.2375 111.701 45.0196C111.433 44.5541 111.045 44.2015 110.538 43.9618C110.044 43.7079 109.466 43.581 108.803 43.581C107.9 43.581 107.153 43.7573 106.56 44.1099C105.982 44.4625 105.552 44.9843 105.27 45.6754C105.002 46.3524 104.868 47.1845 104.868 48.1717V48.8276C104.868 49.843 105.009 50.6963 105.291 51.3874C105.573 52.0644 105.996 52.5791 106.56 52.9317C107.139 53.2702 107.879 53.4395 108.782 53.4395C109.487 53.4395 110.1 53.3196 110.622 53.0798C111.144 52.8401 111.546 52.4875 111.828 52.022C111.96 51.8041 112.061 51.5629 112.132 51.2985C112.273 50.7647 112.699 50.3084 113.251 50.3084H114.298C114.85 50.3084 115.307 50.7583 115.235 51.3059C115.124 52.1542 114.862 52.8866 114.451 53.5029C113.901 54.3492 113.133 54.9838 112.145 55.4069C111.158 55.8159 110.03 56.0204 108.761 56.0204Z" fill="#173C34"/>
<path d="M124.551 56.0204C123.014 56.0204 121.688 55.7454 120.574 55.1954C119.46 54.6453 118.606 53.8132 118.014 52.699C117.422 51.5848 117.125 50.1886 117.125 48.5102C117.125 46.8037 117.422 45.4004 118.014 44.3003C118.606 43.1861 119.46 42.361 120.574 41.8251C121.688 41.275 123.014 41 124.551 41C126.117 41 127.449 41.275 128.549 41.8251C129.664 42.361 130.517 43.1861 131.109 44.3003C131.702 45.4004 131.998 46.8037 131.998 48.5102C131.998 50.1886 131.702 51.5848 131.109 52.699C130.517 53.8132 129.664 54.6453 128.549 55.1954C127.449 55.7454 126.117 56.0204 124.551 56.0204ZM124.551 53.4395C125.242 53.4395 125.849 53.3407 126.37 53.1433C126.892 52.9458 127.329 52.6497 127.682 52.2548C128.035 51.8599 128.303 51.3803 128.486 50.8162C128.669 50.2379 128.761 49.5821 128.761 48.8487V48.1929C128.761 47.4454 128.669 46.7825 128.486 46.2043C128.303 45.626 128.035 45.1465 127.682 44.7657C127.329 44.3708 126.892 44.0746 126.37 43.8772C125.849 43.6797 125.242 43.581 124.551 43.581C123.874 43.581 123.275 43.6797 122.753 43.8772C122.231 44.0746 121.794 44.3708 121.441 44.7657C121.089 45.1465 120.821 45.626 120.637 46.2043C120.468 46.7825 120.383 47.4454 120.383 48.1929V48.8487C120.383 49.5821 120.468 50.2379 120.637 50.8162C120.821 51.3803 121.089 51.8599 121.441 52.2548C121.794 52.6497 122.231 52.9458 122.753 53.1433C123.275 53.3407 123.874 53.4395 124.551 53.4395Z" fill="#173C34"/>
<path fill-rule="evenodd" clip-rule="evenodd" d="M81.8946 5.24236C81.5484 1.93304 77.2883 0.807569 75.3558 3.52272L64.9398 18.1574C62.3383 15.7094 58.8842 13.4046 55.2247 12.1926C50.897 10.7592 46.0471 10.8008 42.1446 14.2996C39.6425 16.5429 38.3937 19.1276 38.1474 21.8378C37.9048 24.5073 38.6458 27.161 39.8664 29.5847C42.0193 33.8597 45.8081 37.709 49.2478 40.2051L40.7602 52.1304C39.5822 53.7855 40.7655 56.08 42.797 56.08H45.4973C46.3062 56.08 47.0651 55.6887 47.5341 55.0297L55.4492 43.9088C61.842 47.2292 69.2317 50.0425 76.6839 50.3636C77.3085 51.7438 77.9107 53.1338 78.4909 54.5336C78.8771 55.4654 79.787 56.08 80.8036 56.08H84.4372C85.9208 56.08 87.078 54.7955 86.9236 53.32L86.4912 49.1863C96.1681 46.3433 103.608 38.9282 110.24 32.3186C110.455 32.1039 110.67 31.89 110.884 31.6773C110.965 31.5958 111.068 31.4985 111.184 31.3878C111.71 30.888 112.523 30.1154 113.021 29.3022C113.351 28.7638 113.65 28.056 113.619 27.2324C113.587 26.3685 113.2 25.5956 112.558 24.947C111.921 24.304 111.159 23.91 110.302 23.8641C109.483 23.8202 108.775 24.1055 108.235 24.4262C107.407 24.9168 106.627 25.7255 106.124 26.2469C106.019 26.3553 105.927 26.4513 105.848 26.5294C105.464 26.9121 105.079 27.2962 104.693 27.6808C98.9322 33.4319 93.059 39.2945 85.7262 41.8724L81.8946 5.24236ZM77.9436 36.6807C75.5305 32.2084 72.8597 27.8372 69.7885 23.7617L75.7206 15.427L77.9436 36.6807ZM46.9509 19.6605C48.8446 17.9627 51.3922 18.0804 54.2773 19.4236C56.7079 20.5553 59.0466 22.4299 60.7031 24.1101L53.4252 34.3357C51.3125 32.796 48.6356 30.3801 46.9164 27.7694C45.8884 26.2082 45.288 24.7052 45.2372 23.3644C45.1894 22.1038 45.6182 20.8553 46.9509 19.6605ZM59.6722 37.9753L65.3831 29.9513C68.2114 33.9745 70.6828 38.2793 72.9606 42.6921C68.4072 41.8548 63.8874 40.0818 59.6722 37.9753Z" fill="#173C34"/>
</g>
<defs>
<clipPath id="clip0_49_837">
<rect width="132" height="57" fill="white"/>
</clipPath>
</defs>
</svg>
