<svg width="33" height="37" viewBox="0 0 33 37" fill="none" xmlns="http://www.w3.org/2000/svg">
<path fill-rule="evenodd" clip-rule="evenodd" d="M19.4335 0.0229129L18.2295 12.3764C18.2117 12.5589 18.0583 12.6981 17.8749 12.6981L15.8492 12.6981C15.6388 12.6981 15.4742 12.5167 15.4946 12.3073L16.4212 2.80025C10.4787 3.25093 5.64035 7.91442 5.05307 13.9357L3.02198 34.0479H13.3062L14.9668 17.7228H13.1503C12.9535 17.7228 12.794 17.5633 12.794 17.3666V15.3375C12.794 15.1407 12.9535 14.9812 13.1503 14.9812L17.5817 14.9812C17.7925 14.9812 17.9573 15.1633 17.9362 15.3731L15.7781 36.8156L0.393208 36.7901C0.182602 36.7898 0.0182666 36.6078 0.0393345 36.3983L2.32444 13.6696C3.05756 6.15296 9.21372 0.368448 16.6905 0.0378642C18.3442 -0.0352626 19.4335 0.0229129 19.4335 0.0229129Z" fill="white" fill-opacity="0.8"/>
<path fill-rule="evenodd" clip-rule="evenodd" d="M18.0762 36.7898H29.5449C30.0141 36.7898 30.407 36.4345 30.4541 35.9677L32.4094 16.6041C33.1305 9.21024 28.4161 2.63954 21.6687 0.642578L21.3966 3.43434C26.6466 5.24027 30.2528 10.4727 29.6808 16.338L27.9256 33.6374C27.9019 33.8707 27.7055 34.0482 27.471 34.0482H18.3434L18.0762 36.7898ZM20.2712 14.9815L20.004 17.7231H22.733C22.9297 17.7231 23.0892 17.5636 23.0892 17.3668V15.3377C23.0892 15.141 22.9297 14.9815 22.733 14.9815H20.2712Z" fill="white"/>
</svg>
