<svg xmlns="http://www.w3.org/2000/svg" version="1.1" xmlns:xlink="http://www.w3.org/1999/xlink" width="1000" height="1000"><style>
    #light-icon {
      display: inline;
    }
    #dark-icon {
      display: none;
    }

    @media (prefers-color-scheme: dark) {
      #light-icon {
        display: none;
      }
      #dark-icon {
        display: inline;
      }
    }
  </style><g id="light-icon"><svg xmlns="http://www.w3.org/2000/svg" version="1.1" xmlns:xlink="http://www.w3.org/1999/xlink" width="1000" height="1000"><g><g transform="matrix(8.771929824561404,0,0,8.771929824561404,-5.684341886080802e-14,-5.684341886080802e-14)"><svg xmlns="http://www.w3.org/2000/svg" version="1.1" xmlns:xlink="http://www.w3.org/1999/xlink" width="114" height="114"><svg width="114" height="114" viewBox="0 0 114 114" fill="none" xmlns="http://www.w3.org/2000/svg">
<path d="M50.4787 30C50.4787 29.4477 50.0309 29 49.4787 29H1C0.447717 29 0 29.4477 0 30V35.7348C0 36.2871 0.447715 36.7348 1 36.7348H20.9621V84C20.9621 84.5523 21.4098 85 21.9621 85H28.5165C29.0688 85 29.5165 84.5523 29.5165 84V36.7348H49.4787C50.0309 36.7348 50.4787 36.2871 50.4787 35.7348V30Z" fill="black"></path>
<path d="M75.3554 32.5226C77.2879 29.8075 81.5482 30.9332 81.8945 34.2424L85.7265 70.8722C93.0592 68.2943 98.932 62.4318 104.693 56.6808C105.079 56.2962 105.464 55.9121 105.849 55.5295C105.927 55.4514 106.02 55.3555 106.124 55.2472C106.627 54.7259 107.407 53.9166 108.234 53.426C108.775 53.1052 109.484 52.8205 110.303 52.8644C111.16 52.9104 111.922 53.3045 112.559 53.9474C113.201 54.5959 113.587 55.3688 113.619 56.2326C113.65 57.056 113.351 57.7635 113.021 58.3019C112.523 59.115 111.71 59.8881 111.185 60.3879C111.068 60.4986 110.966 60.5965 110.884 60.6779C110.67 60.8906 110.455 61.104 110.24 61.3185C103.608 67.9282 96.1681 75.3437 86.4912 78.1867L86.9238 82.3205C87.0779 83.7958 85.9208 85.0801 84.4375 85.0803H80.8037C79.7871 85.0803 78.8774 84.4651 78.4912 83.5334C77.911 82.1337 77.3082 80.7436 76.6836 79.3635C69.2316 79.0423 61.8419 76.2297 55.4492 72.9094L47.5342 84.0295C47.0651 84.6885 46.3059 85.0803 45.497 85.0803H42.7969C40.7657 85.0801 39.5824 82.786 40.7597 81.131L49.248 69.2053C45.8083 66.7092 42.0191 62.8601 39.8662 58.5851C38.6456 56.1615 37.9049 53.5075 38.1474 50.8381C38.3937 48.128 39.6425 45.5432 42.1445 43.3C46.047 39.8012 50.8969 39.7593 55.2246 41.1926C58.8839 42.4045 62.3379 44.7095 64.9394 47.1574L75.3554 32.5226ZM59.6719 66.9758C63.887 69.0823 68.4075 70.8553 72.9609 71.6926C70.6831 67.2798 68.211 62.9745 65.3828 58.9513L59.6719 66.9758ZM69.7881 52.7619C72.8593 56.8373 75.5302 61.2086 77.9433 65.6808L75.7207 44.4269L69.7881 52.7619ZM54.2773 48.424C51.3925 47.0808 48.8448 46.9628 46.9511 48.6603C45.6185 49.8551 45.1895 51.1039 45.2373 52.3644C45.2881 53.7052 45.888 55.2086 46.916 56.7697C48.6351 59.3803 51.3121 61.7965 53.4248 63.3361L60.7031 53.1105C59.0466 51.4303 56.708 49.5557 54.2773 48.424Z" fill="black"></path>
</svg></svg></g></g></svg></g><g id="dark-icon"><svg xmlns="http://www.w3.org/2000/svg" version="1.1" xmlns:xlink="http://www.w3.org/1999/xlink" width="1000" height="1000"><g><g transform="matrix(8.771929824561404,0,0,8.771929824561404,-5.684341886080802e-14,-5.684341886080802e-14)"><svg xmlns="http://www.w3.org/2000/svg" version="1.1" xmlns:xlink="http://www.w3.org/1999/xlink" width="114" height="114"><svg width="114" height="114" viewBox="0 0 114 114" fill="none" xmlns="http://www.w3.org/2000/svg">
<path d="M50.4787 30C50.4787 29.4477 50.0309 29 49.4787 29H1C0.447717 29 0 29.4477 0 30V35.7348C0 36.2871 0.447715 36.7348 1 36.7348H20.9621V84C20.9621 84.5523 21.4098 85 21.9621 85H28.5165C29.0688 85 29.5165 84.5523 29.5165 84V36.7348H49.4787C50.0309 36.7348 50.4787 36.2871 50.4787 35.7348V30Z" fill="#EBEBEB"></path>
<path d="M75.3555 32.5225C77.2879 29.8074 81.5482 30.933 81.8945 34.2422L85.7266 70.8721C93.0592 68.2941 98.9321 62.4316 104.693 56.6807C105.079 56.296 105.464 55.9119 105.849 55.5293C105.927 55.4512 106.02 55.3553 106.124 55.2471C106.627 54.7257 107.407 53.9164 108.234 53.4258C108.775 53.105 109.484 52.8203 110.303 52.8643C111.16 52.9102 111.922 53.3043 112.559 53.9473C113.201 54.5958 113.587 55.3686 113.619 56.2324C113.65 57.0558 113.351 57.7633 113.021 58.3018C112.523 59.1149 111.71 59.888 111.185 60.3877C111.068 60.4984 110.966 60.5963 110.884 60.6777C110.67 60.8904 110.455 61.1038 110.24 61.3184C103.608 67.928 96.1681 75.3435 86.4912 78.1865L86.9238 82.3203C87.0779 83.7956 85.9208 85.0799 84.4375 85.0801H80.8037C79.7871 85.0801 78.8774 84.4649 78.4912 83.5332C77.911 82.1335 77.3082 80.7434 76.6836 79.3633C69.2316 79.0422 61.8419 76.2295 55.4492 72.9092L47.5342 84.0293C47.0651 84.6883 46.3059 85.0801 45.4971 85.0801H42.7969C40.7657 85.08 39.5824 82.7859 40.7598 81.1309L49.248 69.2051C45.8083 66.709 42.0191 62.8599 39.8662 58.585C38.6456 56.1613 37.9049 53.5074 38.1475 50.8379C38.3938 48.1278 39.6425 45.543 42.1445 43.2998C46.047 39.8011 50.8969 39.7591 55.2246 41.1924C58.8839 42.4043 62.3379 44.7093 64.9395 47.1572L75.3555 32.5225ZM59.6719 66.9756C63.8871 69.0821 68.4075 70.8551 72.9609 71.6924C70.6831 67.2796 68.211 62.9743 65.3828 58.9512L59.6719 66.9756ZM69.7881 52.7617C72.8593 56.8371 75.5303 61.2084 77.9434 65.6807L75.7207 44.4268L69.7881 52.7617ZM54.2773 48.4238C51.3925 47.0807 48.8448 46.9626 46.9512 48.6602C45.6185 49.855 45.1896 51.1038 45.2373 52.3643C45.2881 53.7051 45.888 55.2084 46.916 56.7695C48.6351 59.3801 51.3121 61.7963 53.4248 63.3359L60.7031 53.1104C59.0466 51.4301 56.708 49.5555 54.2773 48.4238Z" fill="#EBEBEB"></path>
</svg></svg></g></g></svg></g></svg>