<svg width="127" height="127" viewBox="0 0 127 127" fill="none" xmlns="http://www.w3.org/2000/svg">
<g filter="url(#filter0_ii_57_1008)">
<path fill-rule="evenodd" clip-rule="evenodd" d="M10.5273 39.0005H115.812V21.0572C115.812 18.1619 113.443 15.793 110.548 15.793H15.7916C12.8962 15.793 10.5273 18.1619 10.5273 21.0572V39.0005ZM23.6885 26.3221C23.6885 24.8684 24.8669 23.6899 26.3206 23.6899H26.3731C27.8268 23.6899 29.0052 24.8684 29.0052 26.3221C29.0052 27.7757 27.8268 28.9542 26.3731 28.9542H26.3206C24.8669 28.9542 23.6885 27.7757 23.6885 26.3221ZM39.4287 26.3221C39.4287 24.8684 40.6071 23.6899 42.0608 23.6899H42.1134C43.567 23.6899 44.7455 24.8684 44.7455 26.3221C44.7455 27.7757 43.567 28.9542 42.1134 28.9542H42.0608C40.6071 28.9542 39.4287 27.7757 39.4287 26.3221ZM57.8538 23.6899C56.4001 23.6899 55.2217 24.8684 55.2217 26.3221C55.2217 27.7757 56.4001 28.9542 57.8538 28.9542H57.9063C59.36 28.9542 60.5384 27.7757 60.5384 26.3221C60.5384 24.8684 59.36 23.6899 57.9063 23.6899H57.8538ZM15.7916 105.285H110.548C113.443 105.285 115.812 102.916 115.812 100.021V44.7471H10.5273V100.021C10.5273 102.916 12.8962 105.285 15.7916 105.285Z" fill="url(#paint0_radial_57_1008)"/>
</g>
<defs>
<filter id="filter0_ii_57_1008" x="10.5273" y="11.793" width="109.284" height="97.4922" filterUnits="userSpaceOnUse" color-interpolation-filters="sRGB">
<feFlood flood-opacity="0" result="BackgroundImageFix"/>
<feBlend mode="normal" in="SourceGraphic" in2="BackgroundImageFix" result="shape"/>
<feColorMatrix in="SourceAlpha" type="matrix" values="0 0 0 0 0 0 0 0 0 0 0 0 0 0 0 0 0 0 127 0" result="hardAlpha"/>
<feOffset dx="4" dy="4"/>
<feGaussianBlur stdDeviation="2"/>
<feComposite in2="hardAlpha" operator="arithmetic" k2="-1" k3="1"/>
<feColorMatrix type="matrix" values="0 0 0 0 1 0 0 0 0 1 0 0 0 0 1 0 0 0 0.25 0"/>
<feBlend mode="normal" in2="shape" result="effect1_innerShadow_57_1008"/>
<feColorMatrix in="SourceAlpha" type="matrix" values="0 0 0 0 0 0 0 0 0 0 0 0 0 0 0 0 0 0 127 0" result="hardAlpha"/>
<feOffset dy="-4"/>
<feGaussianBlur stdDeviation="4"/>
<feComposite in2="hardAlpha" operator="arithmetic" k2="-1" k3="1"/>
<feColorMatrix type="matrix" values="0 0 0 0 0.711637 0 0 0 0 0.0583309 0 0 0 0 0 0 0 0 0.5 0"/>
<feBlend mode="normal" in2="effect1_innerShadow_57_1008" result="effect2_innerShadow_57_1008"/>
</filter>
<radialGradient id="paint0_radial_57_1008" cx="0" cy="0" r="1" gradientUnits="userSpaceOnUse" gradientTransform="translate(63.3418 47.5005) rotate(90) scale(51.5 324.075)">
<stop stop-color="#FF5748"/>
<stop offset="1" stop-color="#FF7A77"/>
</radialGradient>
</defs>
</svg>
