<svg fill="none" height="37" viewBox="0 0 35 37" width="35" xmlns="http://www.w3.org/2000/svg" xmlns:xlink="http://www.w3.org/1999/xlink"><clipPath id="a"><path d="m.894531 0h34.0153v36.8499h-34.0153z"/></clipPath><g clip-path="url(#a)" fill="#fff"><path d="m1.66296 12.1465c-.40975.5263-.666023 1.1532-.741085 1.813.306855-.2762.510185-.6467.576955-1.0514.02411-.2594.0792-.515.16413-.7616z"/><path d="m.946222 18.8829c-.022423-.1088-.039025-.2187-.049738-.3292v2.1177c.161276-.5837.178336-1.197.049738-1.7885z"/><path d="m1.44857 17.6102c.19938-.0963.36748-.2458.48527-.4317.11778-.1858.18056-.4005.18121-.6197-.00464-.3361.06454-.6691.20279-.9762.13824-.307.34226-.5808.59798-.8025.39416-.4423.75805-.9101 1.08924-1.4003.66142-.915 1.57953-1.6187 2.64105-2.0242.62578-.2471 1.20438-.5977 1.71097-1.0368.6814-.67308.74108-2.26991.53218-3.852l-6.44097 4.9231c-.20425.4891-.35595.9979-.45261 1.5183 0 .6338-.52722 1.2234-1.099196 1.7933v3.6162c.033472-.1508.100332-.2925.195786-.4148.09545-.1224.21713-.2223.3563-.2927z"/><path d="m3.38298 33.5789c0-.3391 0-1.0761-.49737-1.4446-.34816-.2751-.91516-.3144-1.67614-.1277-.10007.0278-.19811.0623-.293454.1032v1.2578c.353134 0 .726164.0786 1.089244.1326.45073.1078.91743.1344 1.37772.0787z"/><path d="m5.6265 31.5054c.92014-.4176 1.70101-1.5034 2.03923-2.8399.24967-1.1538.3516-2.3341.3034-3.513-.06237-1.076.04501-2.1551.31831-3.1986.27356-.8107 1.52197-3.6555 2.44206-3.4983.4974.0787.4974.855.4974 1.1449-.0084.6703.1079 1.3365.3432 1.9653.2437.7272.4228 1.2529-.3879 2.4566-1.154 1.7148-2.16362 6.3874-1.65132 6.7952.03481.0295.22879 0 .65652-.4078 2.5366-2.5058 5.0931-2.5058 7.565-2.5058.9377.0288 1.859.2496 2.7058.6485.9947.4078 1.4921.5798 2.0491.0295.9202-.9139 1.2534-.8942 1.8602-.7714.2541.0606.5145.0919.7759.0934.5144-.0792.9769-.3544 1.2882-.7665.1741-.1893.3732-.3545.5919-.4913.1205-.071.2622-.0985.4009-.0779.1388.0206.266.088.3601.1909.1232.1246.2394.2559.3481.393.3482.4373.5969.7518 1.9398.7518.503.0045 1.0045-.0549 1.4921-.1769.2818-.0871.5792-.1142.8724-.0795.2932.0348.5756.1305.8286.2809.2451.1624.5366.2425.8314.2283.2947-.0142.577-.1218.805-.3069v-1.1939c-.0907.0402-.1892.0603-.2885.0589-.2188-.0201-.4316-.0818-.6267-.1817-.2045-.1072-.4325-.1632-.664-.1632s-.4595.056-.664.1632c-.3063.1323-.6448.1744-.9748.1212s-.6375-.1993-.8854-.421c-.1296-.0927-.2274-.2225-.2798-.3719-.0525-.1494-.0573-.3112-.0136-.4633.1442-.3636.6217-.5454 1.4275-.5454 1.0582-.0953 2.0797-.4316 2.9842-.9827v-2.0341c-.3398.1193-.672.2588-.9948.4176-1.2384.6093-2.5167 1.2431-3.8098 1.2431-1.1291 0-1.1291 0-1.6712.5356-1.6314 1.6115-2.7704 2.3338-3.4816 2.2208-.1322-.0204-.2573-.0728-.3641-.1525-.1067-.0797-.1918-.1843-.2477-.3044-.1691-.3342-.3382-.7518-.4974-1.1891-.4526-1.1399-1.0196-2.5549-1.8402-2.948-1.3464-.6707-2.6084-1.4953-3.7602-2.4566-.1343-.1278-.2934-.3096-.4974-.5258-.6863-.7959-1.7209-1.9948-3.1235-2.4566l-.3929-.1278c-1.5866-.4913-2.2382-.7173-2.2382-3.1445 0-1.2922-.9251-2.7613-1.4921-3.39018.0299.06878.0697.1474.1144.23584.5969 1.18414.756 3.13964-1.89497 5.75844-.16959.1752-.31966.368-.44763.5748-.34493.5691-.85656 1.0214-1.46725 1.2971-.20133.0672-.37901.1899-.51208.3536-.13307.1636-.21598.3615-.23896.5702-.05373.3111-.20715.597-.43768.8156-.23874.2358-.23874.3193-.23874.4373.00157.15-.03168.2985-.09721.4339-.06552.1354-.16158.2542-.2808.3473-.31195.3392-.54158.7441-.67145 1.1841-.14326.4036-.30931.7989-.49737 1.1841-.19072.3463-.42833.6653-.70627.9483-.68638.7566-1.13401 1.2529.04476 2.4222 1.17878 1.1694 1.70102 2.6532 1.20364 3.518-.19894.3439-.72616.8745-2.05415.5454l-1.427456-.3685v.5355c1.186046.2651 2.336296.6675 3.426896 1.1989.20643.0905.43098.1336.65671.1259s.44675-.0658.64641-.1702zm8.9527-8.4754c.1997-.0668.3758-.189.5072-.3519s.2126-.3597.2339-.5669c.0404-.3216.1853-.6216.4128-.855.6864-.678 3.6607.7076 4.5858 1.1645 1.0693.3538 1.6214.737 1.7309 1.2087.0275.1909.0034.3855-.07.5642s-.1934.3349-.3478.4528c-.7013.6879-2.6361.7125-3.979.0443-.4626-.2261-.7958-.0393-1.2932.2898-.3323.2768-.7414.4481-1.1738.4914-.2133-.0015-.4232-.0538-.6118-.1523-.7162-.3538-1.0643-.7223-1.0643-1.1301s.3481-.8058 1.0643-1.1595z"/><path d="m14.7931 24.8572c.4626.2261.7958.0393 1.2932-.2898.4974-.3292 1.0445-.6879 1.7905-.3194 1.2136.5994 2.9196.5257 3.407.0442.2288-.226.3233-.4078.2885-.5552s-.2735-.4913-1.4225-.8598h-.0348c-1.5816-.7812-3.1633-1.3266-3.78-1.3266-.0866-.0111-.1741.0118-.2437.0638-.153.1624-.2489.3692-.2736.5896-.0338.2806-.1443.5468-.3195.7701s-.4086.3953-.6752.4976c-.4974.2457-.7859.4913-.7859.6928 0 .2014.2586.4471.756.6927z"/><path d="m2.42342 29.7064c.74606.1818 1.27825.0737 1.49212-.3096.32826-.5748 0-1.8228-1.12407-2.948-1.49211-1.474-.74108-2.3485-.06465-3.1003.25237-.2438.47293-.5178.65653-.8156.22879-.4569.37303-.8205.49737-1.1399.15101-.5069.41821-.9726.78088-1.361.23376-.2309.23376-.3144.23376-.4323-.00098-.1505.03304-.2992.09944-.4347.0664-.1354.16341-.254.28354-.3466.15772-.1656.25563-.378.27853-.6043.03546-.2835.1494-.5519.3293-.7755.17989-.2237.41876-.394.69031-.4921.53511-.2399.98296-.636 1.28322-1.135.14024-.2327.30713-.4487.49738-.6437 2.43212-2.3928 2.31772-4.1566 1.79052-5.19335-.37798-.75174-.36804-.98266-.22877-1.14972.04746-.05114.11027-.08589.17917-.09916.069-.01326.1404-.00434.2038.02546.5919.22602 2.1686 2.33877 2.1686 4.15667 0 2.0685.363 2.1864 1.8949 2.6778l.3979.1277c1.5319.4913 2.6212 1.7688 3.3424 2.6041.179.2014.3283.3783.4476.4913 1.1166.9292 2.3364 1.7303 3.6358 2.3879.9948.4913 1.5667 1.9358 2.079 3.2182.1741.4275.3333.8353.4974 1.1497.0208.0512.0546.0962.0982.1306.0435.0345.0954.0572.1505.066.3034.0442 1.0992-.1622 3.0489-2.0882.6913-.678.7659-.678 2.0243-.678 1.1738 0 2.4023-.6044 3.5861-1.1891.4038-.1888.8191-.3529 1.2434-.4913v-2.7318c-.3482.0295-.7212.0442-1.134.0442-.7436.0346-1.4823-.1355-2.1338-.4913-.4973-.2506-.8554-.4373-2.1188-.1228-2.4648.6141-5.0454.6141-7.5103 0-2.5316-.624-4.4216-2.496-5.0434-3.1053-.1641-.167-.4327-.3783-.7361-.6289-.8157-.6584-1.9148-1.5575-2.4122-2.4861-.6118-1.2087-1.8701-4.31392-1.8701-6.19572.006-.47436-.034-.94821-.1194-1.41504l-2.48688 1.92111c.26361 1.67053.29345 3.63586-.62669 4.53995-.54628.489-1.17611.8782-1.86017 1.1497-.97675.3738-1.82435 1.0167-2.4421 1.8523-.34386.5057-.71928.9898-1.12406 1.4494-.49738.5503-.68141.7763-.68141 1.474.00073.2979-.08088.5903-.23602.8458-.15514.2554-.37792.4641-.64433.6037-.22381.1621-.35313.2555-.35313.3734.00719.1404.02548.28.05471.4176.24052 1.0589.04552 2.1687-.542136 3.0856v7.4093h.049738c.447638.1326.945008.2653 1.477198.4029z"/><path d="m30.9727 25.55c0 .054 0 .167.1591.2948.1736.1552.3883.2584.6191.2976.2307.0391.468.0126.684-.0765.2696-.1359.5678-.2067.8704-.2067s.6009.0708.8704.2067c.388.1523.4974.1769.6615 0l.0746-.0737v-1.5723c-.913.5198-1.9332.8289-2.9842.9041-.6913 0-.9251.1474-.9549.226z"/><path d="m34.5235 36.1328c-.3416.2505-.7006.477-1.0743.678.4292-.0907.8107-.3314 1.0743-.678z"/><path d="m15.5049 9.1209c.5268.75759 1.1319 1.4591 1.8055 2.0931.7019.6551 1.3321 1.3813 1.8801 2.1668 1.1539 1.6951 2.268 2.3436 4.1182 2.3436.7836-.0005 1.5623.1205 2.3078.3587.4473.1516.9151.236 1.3877.2506 1.2285 0 1.7905 0 2.9842-.5847.2479-.1451.5348-.2116.8221-.1905.2873.021.5611.1287.7845.3084.4607.326 1.0149.4981 1.5816.4913h1.7508v-.6092c-.2212.0271-.4437.0419-.6665.0442-.4105.0128-.8185-.0661-1.1937-.2309-.3746-.1849-.6897-.469-.9102-.8206-.2487-.3537-.3233-.4618-1.3181.1966-1.9198 1.2627-4.4067.6682-4.5111.6387h-.0647l-.0497-.0491c-.378-.3331-.8395-.5598-1.3364-.6566s-1.011-.0601-1.4887.1063c-1.8801.624-3.591-2.8841-4.4067-4.5694-.0796-.1621-.1492-.3046-.2089-.41764-.7136-1.57268-1.1396-3.25776-1.2584-4.9772-.0089-.33114-.1199-.6517-.3183-.91879-.3133-.52081-.7013-1.16937-.2885-2.79568.0895-.365274.1526-.736337.189-1.110413-.1128.05428-.2195.120155-.3183.196533l-2.452 1.88672v.28988c0 1.18411 0 4.81015 1.1787 6.55929z"/><path d="m25.2684 7.81765c.3532.17688.6615.29972.9052.4029.6267.25549 1.0793.43728 1.0793 1.0318-.003.02792-.0013.05614.005.08352l.0647.02948c.2735.10809.5421.28498.5421 1.09565.0225.2662.1164.5217.272.7402s.3673.3921.6133.5029c.3861.1937.8197.2757 1.2509.2366s.8424-.1978 1.1863-.4577c.8405-.5601 1.2583-.6731 1.5418-.5749l-8.1718-6.27919c-.3134 1.33642-.2586 2.71215.7112 3.18874z"/><path d="m21.667 4.30975c-.1194 1.13498-.3581 3.48846.6317 5.44397.2536.49128.4277.87458.567 1.16448.4128.8745.4128.8745 1.2633 1.4298l.5471.3537c.4675.3096.7859.5405.9948.7124.6267.4619.6267.4619 1.9298.4619 1.8552 0 2.9842 0 4.1331-1.1448.393-.3832.6516-.5208.8953-.4913.2437.0294.388.3439.4974.6436.0506.2045.1423.3968.2696.5656s.2876.3106.4715.4171c.3181.1154.6621.1426.9947.0786-.0227-.1959-.061-.3898-.1144-.5798-.1423.0027-.2828-.0311-.4078-.0983-.0696-.0396-.1271-.097-.1665-.1662-.0394-.0691-.0592-.1475-.0573-.2268-.0305-.3733-.1247-.7387-.2786-1.081-.1126-.1168-.234-.2252-.3631-.3242l-.2039-.1671c-.179.1622-.383.2801-.6366.0835-.1343-.1031-.5322.059-1.1788.4914-.4215.3043-.9196.4882-1.4398.5315-.5202.0434-1.0425-.0555-1.5096-.2859-.3231-.1513-.5989-.3859-.7985-.679s-.3155-.6339-.3355-.9866c0-.55027-.1194-.59449-.2338-.64362-.1178-.03736-.2194-.11309-.288-.21483-.0687-.10173-.1004-.22346-.09-.34529 0-.24076-.1293-.31446-.7709-.57978-.2537-.10318-.572-.23092-.9401-.41272-1.1091-.55029-1.4324-2.01446-.9151-3.96014l-2.4869-1.90637c.0437.46056.0636.92301.0597 1.38556 0 .1081-.0149.28989-.0398.53064z"/><path d="m17.6229 3.82827c.245.34258.3802.74999.388 1.16937.1195 1.64279.5285 3.25233 1.2086 4.7561.0547.11792.1293.26036.2089.42746.6963 1.4347 2.3327 4.8003 3.7999 4.3188.5526-.1922 1.1469-.2366 1.7225-.1288.5757.1079 1.1122.3642 1.5552.743.378.0786 2.4869.452 4.0536-.5896 1.1887-.7812 1.5568-.6928 1.9895-.0639.1709.2802.4171.5081.7112.6584.5211.1988 1.0888.2465 1.6364.1376v-.7911c-.1542 0-.2985 0-.4377 0-.2765.012-.552-.0384-.8058-.1474-.2429-.1352-.456-.317-.6268-.5347s-.2959-.4668-.3679-.7329c-.0363-.12-.0899-.2342-.1592-.339-.1521.0985-.2922.2139-.4178.3439-1.3031 1.2873-2.641 1.2873-4.4763 1.2873-1.4126 0-1.4921 0-2.2282-.5601-.2288-.1671-.5372-.398-.9948-.6977l-.5222-.3096c-.955-.6141-.9948-.6485-1.4474-1.6361-.1343-.285-.3084-.6535-.562-1.14972-1.0594-2.09799-.8008-4.54974-.6814-5.72894.0248-.21618.0398-.38324.0398-.49133.0096-.60344-.032-1.20661-.1244-1.80319l-2.0541-1.58209c-.1962-.156263-.4229-.270934-.6659-.3368691-.243-.0659347-.4972-.0817195-.7467-.04637057-.041.46685667-.1175.93001067-.2288 1.38555967-.363 1.44943-.0795 1.95059.2338 2.44192z"/><path d="m14.293 11.5769c.4177.8303 1.4921 1.6902 2.258 2.3191.3183.2604.5919.4913.7759.6633.5969.5896 2.4173 2.3829 4.8096 2.9775 2.3865.5944 4.8851.5944 7.2716 0 1.4474-.3587 1.9199-.113 2.4869.1621.5796.3226 1.2407.4743 1.9049.4373.4178 0 .7859 0 1.134-.0491v-1.2972c-.6366 0-1.2384 0-1.7507 0-.6545.0121-1.297-.1749-1.8403-.5355-.1505-.1378-.3431-.2222-.5475-.24-.2044-.0177-.409.0321-.5815.1417-.98.5068-2.0861.7267-3.1882.6338-.5199-.0134-1.0347-.1045-1.5269-.2702-.7085-.216-1.4472-.3188-2.1885-.3046-2.0193 0-3.2826-.7321-4.5062-2.5648-.5272-.7601-1.1358-1.4619-1.8154-2.0931-.7019-.6551-1.3321-1.3813-1.8801-2.16673-1.2782-1.8425-1.2782-5.43414-1.2782-6.73617l-1.5667 1.19393c.1377.57479.2078 1.16338.2089 1.75406 0 1.79828 1.2235 4.80031 1.8204 5.97461z"/><path d="m21.2893 32.7876c1.2981-.9826 1.9895-.9826 2.5366-.9826s.9002 0 1.7507-.8402c.2139-.2162.5521-.6043.3929-.8254-.3581-.4914-2.3376-.4177-3.1881 0-.955.4913-1.3081.2849-1.89-.1229-.2515-.1846-.5177-.3489-.7958-.4913-.5969-.2948-1.2136-.0885-1.9895.1769-.7042.2763-1.4512.4308-2.2084.4569-1.2583 0-3.203 1.248-4.6205 2.152-.577.3685-1.0694.6879-1.42751.8648-.21387.1081-.46255.2457-.74606.4078-1.37772.7812-3.45674 1.9653-5.58549 1.4396-.99475-.2506-1.7607-.2014-2.21829.1523-.13433.1073-.24446.2412-.323288.3931.115048.3713.347738.6963.663808.9272.31608.2308.69883.3553 1.09192.3552h4.31222c0-.9827.15419-1.6558 1.36778-2.2602.71515-.3223 1.46892-.5535 2.24311-.6878.7107-.1447 1.413-.3267 2.1039-.5454.5231-.1803 1.0109-.4479 1.4424-.7911.3126-.2999.7087-.5008 1.1376-.5769.4288-.0762.8709-.0241 1.2697.1495 1.3777.452 1.9895.8745 2.0442 1.3708.0547.4962-.577.8107-.7759.909-.4974.2358-.4974.3046-.5521.6043-.1322.6621-.4126 1.2866-.8207 1.8278h.8903c1.0608-1.5587 2.3769-2.9319 3.8945-4.0634z"/><path d="m23.9248 33.9566c.9948 0 2.8301-.4569 2.8301-2.1864-.0262-.2304-.003-.4637.0681-.6847.0712-.2209.1886-.4246.3447-.5977.3979-.3538.9649-.2948 1.5667-.2309.2427.0287.4868.0451.7312.0491 1.2384 0 2.4073 0 3.586-.5847.5935-.2212 1.2266-.3199 1.8602-.2899v-1.0269c-.2896.1486-.6132.2203-.9393.2083-.326-.0121-.6433-.1075-.9209-.2771-.2011-.1267-.4286-.2066-.6656-.2339-.2369-.0272-.477-.001-.7021.0767-.5239.128-1.0619.1908-1.6016.1867-1.5816 0-1.9447-.4569-2.3327-.9335-.0937-.1269-.1968-.2468-.3083-.3587-.0647-.0639-.0945-.0639-.1791 0-.1717.1152-.3287.2505-.4675.4029-.1984.252-.4458.4623-.7277.6184s-.5925.2549-.9136.2906c-.2972-.0083-.5925-.0496-.8804-.1229-.4626-.0933-.6366-.1277-1.4125.6388s-1.6364.4913-2.5864.0786c-.7861-.3765-1.6435-.5857-2.5167-.6142-2.4868 0-4.8245 0-7.2169 2.3584-.55702.5552-.9947.7026-1.318.4422-.99474-.8058.67643-6.1466 1.5518-7.4437.6715-.9826.5571-1.3364.3283-2.0193-.2498-.6734-.3745-1.3858-.3681-2.1029 0-.57-.1094-.6683-.1094-.6683-.2835 0-1.33794 1.5969-1.87013 3.179-.25456.993-.35353 2.0187-.29345 3.0413.04918 1.2204-.05777 2.442-.31831 3.6359-.37801 1.474-1.24344 2.6777-2.31279 3.1642-.26751.1357-.56269.2097-.86334.2165-.30066.0068-.59896-.0538-.87249-.1772-1.01927-.4988-2.09203-.8828-3.198106-1.1448v.7419c.059685 0 .114396-.0443.174076-.059.91517-.226 1.62641-.1523 2.10389.2162.67145.4913.67145 1.474.67145 1.8474.00143.0681-.01256.1356-.04096.1977-.0284.062-.07048.1171-.12317.161-.2835.2407-.83061.1719-1.77065.0344-.34318-.0492-.69134-.1032-.994741-.1278v1.081c.037213-.0434.077077-.0844.119371-.1229.58192-.4471 1.49212-.5306 2.64105-.2407 1.93478.4913 3.90935-.6486 5.21744-1.3905.29345-.1621.55208-.3095.77093-.4176.33324-.1671.82063-.4914 1.38273-.8353 1.4921-.9434 3.4816-2.2356 4.8891-2.2356.7014-.0278 1.3928-.1741 2.0442-.4323.8207-.2752 1.5916-.5356 2.3775-.1474.3001.1512.5878.3253.8604.5208.4974.339.6416.452 1.3827.0835.8953-.4373 3.223-.6486 3.8099.1572.194.2703.2785.7419-.4427 1.474-.9947.9827-1.5368.9827-2.1038.9827s-1.0694 0-2.2382.8647c-1.3932 1.0236-2.6164 2.2552-3.6259 3.6506h1.7955c.2783-.3434.5755-.6715.8903-.9826 1.2186-1.2382 1.9-1.9113 3.2379-1.9113z"/><path d="m27.8343 34.8856c.7511-.2997 1.5319-.6043 2.1387-.909.5604-.3042 1.0648-.6995 1.4921-1.1693.4634-.5035 1.0059-.9298 1.6066-1.2628l.6018-.3144c.396-.2357.8182-.4253 1.2583-.565v-.7419c-.5563-.0304-1.1131.0515-1.6363.2407-1.2832.6338-2.5665.6338-3.8099.6338-.2628-.0028-.5252-.0208-.7859-.054-.4973-.0492-.945-.0983-1.1787.1081-.201.2625-.2902.5922-.2487.9188 0 1.8425-1.7259 2.6777-3.3274 2.6777-1.1291 0-1.6861.5503-2.9047 1.7541-.2188.2162-.4128.4324-.5968.6485h3.6059c.4993-.4109 1.0471-.7606 1.6314-1.0416.6068-.3095 1.3926-.6191 2.1536-.9237z"/><path d="m33.5288 33.7611c.4102-.3876.8721-.7182 1.3727-.9827v-1.5919c-.346.1337-.6789.2981-.9947.4914l-.6168.3242c-.5601.3046-1.0644.6999-1.4921 1.1694-.4612.5057-1.0041.9324-1.6065 1.2627-.6217.3096-1.4125.6191-2.1735.9188s-1.527.6044-2.1338.9041c-.3589.1731-.7047.3718-1.0345.5945h3.1534c.997-.6961 2.0844-1.2564 3.2329-1.6656.8604-.304 1.643-.7904 2.2929-1.4249z"/><path d="m34.892 35.1942c0-.054 0-.1032 0-.1572v-1.7099c-.3764.2334-.7295.5015-1.0545.8009-.7001.6769-1.5399 1.1964-2.462 1.5231-.8742.3005-1.7091.703-2.4868 1.1989h3.2031c1.0035-.3543 1.9276-.8984 2.7206-1.6017.028-.0158.0546-.0339.0796-.0541z"/><path d="m17.6526 33.9818c.378-.1867.4974-.3439.4974-.4324 0-.0884-.1094-.4127-1.701-.9384-.3227-.1487-.6843-.1945-1.0345-.1311s-.6718.2328-.9202.4848c-.4742.3768-1.0111.6694-1.5866.8648-.7053.2267-1.4226.4153-2.1487.565-.7331.123-1.44696.3394-2.12376.6437-.96491.4913-1.0793.8893-1.09422 1.8179h8.35588c.4641-.5552.7865-1.2123.94-1.9162.0796-.4029.1542-.6289.8157-.9581z"/></g></svg>