<svg fill="none" height="37" viewBox="0 0 27 37" width="27" xmlns="http://www.w3.org/2000/svg"><g stroke="#fff" stroke-width=".603207"><circle cx="12.9877" cy="1.72888" r="1.25443"/><circle cx="11.1947" cy="4.79724" r="1.25443"/><circle cx="14.7826" cy="4.79724" r="1.25443"/></g><path clip-rule="evenodd" d="m22.5382 6.93882-.0001.01107c-.0059 2.93817-2.3896 5.31821-5.3292 5.31821h-3.5414v5.8904c1.0402-2.2483 3.3159-3.8081 5.956-3.8081h4.4983.6032v.6032.1256c0 3.6225-2.9366 6.5591-6.559 6.5591h-4.4983-.0002v2.2014h12.4381c.0417 0 .0754.0337.0754.0754v.3455c0 7.0338-5.6968 12.7358-12.7243 12.7358-7.02742 0-12.724278-5.702-12.724278-12.7358v-.3455c0-.0417.033758-.0754.075401-.0754h12.256477v-11.5716h-.0004v-.5922l.0001-.011c.0059-2.93822 2.3896-5.31822 5.3292-5.31822h3.5417.6033zm-9.4739 19.37488v-1.8708h-11.72733c.01862 1.2656.23082 2.4842.60828 3.6275 2.84179-.797 5.081-1.1459 7.2963-.9496 2.06235.1828 4.08205.836 6.52975 2.0048.4012-.2114.8032-.4381 1.2047-.6808 3.0561-1.8478 5.9459-2.2088 8.3705-1.8132.1404-.7093.219-1.4408.23-2.1887h-11.909v1.8708c0 .1666-.135.3016-.3016.3016s-.3016-.135-.3016-.3016zm12.1501.9076c-2.2778-.3637-5.0093-.024-7.9263 1.7396-.2832.1712-.5666.3346-.8498.4905l.1507.0756c2.3377 1.1766 5.1215.9386 7.7854.0105.3547-.7339.6377-1.509.84-2.3162zm-1.2457 3.084c-2.5674.7895-5.2926.9475-7.6509-.2395-.1815-.0914-.3603-.18-.5367-.2658-4.2893 2.1909-8.48389 2.7084-11.32901 2.5825 2.21855 2.4627 5.43112 4.0107 9.00461 4.0107 4.4952 0 8.4192-2.4494 10.512-6.0879zm-20.05253 1.4398c2.65346.2124 6.83843-.1682 11.17223-2.2739-2.2181-1.0245-4.0508-1.5857-5.90009-1.7495-2.10179-.1863-4.24996.1385-7.03912.918.43559 1.1261 1.03425 2.1709 1.76698 3.1054zm14.47703-24.79521c-.7542 0-1.4671.17664-2.0996.4908l.1411 2.43924c.9433-.52678 1.9072-1.07322 2.7587-1.57003.7248-.42294 1.3653-.80835 1.8416-1.11434.1397-.08981.2641-.172.3716-.24567zm-4.7181 4.44971c.0864-1.49893.8714-2.81054 2.0342-3.61424l.14 2.42044c-.787.4368-1.5388.8488-2.1742 1.1938zm3.5338.2653h-2.7596c.5689-.3106 1.2037-.6597 1.8586-1.0238 1.0435-.5802 2.1392-1.19864 3.1016-1.759l1.9901.24361c-.7891 1.50919-2.3696 2.53919-4.1907 2.53919zm4.7104-4.33816c-.0347.42591-.1257.83586-.2658 1.22234l-1.3901-.17016c.4166-.24896.7896-.47794 1.0976-.67589.2192-.14081.4084-.26778.5583-.37629zm-18.2159.53771c-.00063-.03131-.00094-.06269-.00094-.09415v-.50906h.6032 2.96022c2.49886 0 4.53052 2.00054 4.58062 4.48736.0006.0313.0009.0627.0009.0942v.5091h-.6032-2.96019c-2.49887 0-4.53048-2.0006-4.58061-4.48745zm4.40649.08971c-.27202-.05877-.5544-.08971-.84401-.08971h-2.0828c.53516.26335 1.18583.59426 1.60603.83289.1165.06616.21944.12444.3128.17729l.00003.00002.00003.00002c.4033.22832.62795.3555.99593.58048l-.12132-1.49014zm.48214.13667.14335 1.76083c1.07808.67754 1.83362 1.17364 2.49162 1.61834-.1457-1.56838-1.2019-2.87265-2.63497-3.37917zm2.65037 3.62947-.0192.0283h.0199zm-.6823.0283c-.60433-.4038-1.31173-.8635-2.27326-1.4663-.71894-.45069-.92582-.56781-1.48138-.88233l-.2057-.11652-1.75809.48254c.6888 1.18551 1.97248 1.98261 3.44234 1.98261zm-5.98457-2.53508 1.25823-.34534c-.53902-.27964-1.1538-.58106-1.51316-.75074.03315.38351.12071.75146.25493 1.09608zm-.2666-1.28051.03199-.06856h-.03417c.00054.0229.00126.04575.00218.06856zm1.89996 8.11129h-.35808v1.9521c.18932.1132.35964.2161.51889.3123.71993.435 1.21341.7332 2.21068 1.2261.98159.4851 1.91362.9222 2.65602 1.2574-.1491-2.6472-2.343-4.7479-5.02751-4.7479zm-3.19694 0h2.23566v1.5865c-.4668-.2909-.9564-.615-1.38599-.9232-.28646-.2055-.54323-.4018-.7476-.5749-.03624-.0307-.07026-.0601-.10207-.0884zm1.06562 3.7521c-.95427-.8666-1.57447-2.0946-1.64459-3.4677.08643.0859.18549.1748.29126.2644.22093.187.49166.3936.78574.6046.58843.4222 1.2824.8707 1.88504 1.2292.2441.1452.45793.2744.65612.3942h.00002.00009c.45284.2737.82402.498 1.28792.7509l-3.26292.2033zm3.38439 1.3069c-.9825 0-1.89929-.2814-2.67417-.768l3.59749-.2241c.74348.3666 1.45678.705 2.07982.9921zm-5.03562-5.6622h-.60321v.6032.0234c0 3.1142 2.52459 5.6388 5.63883 5.6388h3.78254.6032v-.6032-.0233c0-3.1143-2.52457-5.6389-5.63881-5.6389zm21.30966-.4875h-4.1125c-.6043 0-1.1876.09-1.7372.2574l-.5676 2.2878c.7731-.4057 1.6028-.7286 2.4441-.8771.6639-.1171 1.0152-.2081 1.5092-.3756.737-.2498 1.3536-.5515 1.8128-.8299.292-.1771.5084-.3376.6512-.4626zm-6.5347.5132c-1.8764.8363-3.2405 2.6145-3.4919 4.7338.6769-.6804 1.6997-1.5622 2.8856-2.2898zm-3.5336 5.5572v.0111h.0125zm.0823.0111h4.416c2.2452 0 4.2003-1.2424 5.2152-3.0772l-2.0405-1.0988c-.4654.1529-.8389.2448-1.4731.3567-.9726.1716-1.9527.6053-2.8545 1.1469-1.4468.8688-2.6571 1.9936-3.2631 2.6724zm9.8961-3.6196c.2633-.6167.4255-1.2868.4658-1.9896-.185.1594-.4288.3329-.7144.5061-.356.2159-.7942.4416-1.3005.6493z" fill="#fff" fill-rule="evenodd"/><path clip-rule="evenodd" d="m22.5382 6.93882-.0001.01107c-.0059 2.93817-2.3896 5.31821-5.3292 5.31821h-3.5414v5.8904c1.0402-2.2483 3.3159-3.8081 5.956-3.8081h4.4983.6032v.6032.1256c0 3.6225-2.9366 6.5591-6.559 6.5591h-4.4983-.0002v2.2014h12.4381c.0417 0 .0754.0337.0754.0754v.3455c0 7.0338-5.6968 12.7358-12.7243 12.7358-7.02742 0-12.724278-5.702-12.724278-12.7358v-.3455c0-.0417.033758-.0754.075401-.0754h12.256477v-11.5716h-.0004v-.5922l.0001-.011c.0059-2.93822 2.3896-5.31822 5.3292-5.31822h3.5417.6033zm-9.4739 19.37488v-1.8708h-11.72733c.01862 1.2656.23082 2.4842.60828 3.6275 2.84179-.797 5.081-1.1459 7.2963-.9496 2.06235.1828 4.08205.836 6.52975 2.0048.4012-.2114.8032-.4381 1.2047-.6808 3.0561-1.8478 5.9459-2.2088 8.3705-1.8132.1404-.7093.219-1.4408.23-2.1887h-11.909v1.8708c0 .1666-.135.3016-.3016.3016s-.3016-.135-.3016-.3016zm12.1501.9076c-2.2778-.3637-5.0093-.024-7.9263 1.7396-.2832.1712-.5666.3346-.8498.4905l.1507.0756c2.3377 1.1766 5.1215.9386 7.7854.0105.3547-.7339.6377-1.509.84-2.3162zm-1.2457 3.084c-2.5674.7895-5.2926.9475-7.6509-.2395-.1815-.0914-.3603-.18-.5367-.2658-4.2893 2.1909-8.48389 2.7084-11.32901 2.5825 2.21855 2.4627 5.43112 4.0107 9.00461 4.0107 4.4952 0 8.4192-2.4494 10.512-6.0879zm-20.05253 1.4398c2.65346.2124 6.83843-.1682 11.17223-2.2739-2.2181-1.0245-4.0508-1.5857-5.90009-1.7495-2.10179-.1863-4.24996.1385-7.03912.918.43559 1.1261 1.03425 2.1709 1.76698 3.1054zm14.47703-24.79521c-.7542 0-1.4671.17664-2.0996.4908l.1411 2.43924c.9433-.52678 1.9072-1.07322 2.7587-1.57003.7248-.42294 1.3653-.80835 1.8416-1.11434.1397-.08981.2641-.172.3716-.24567zm-4.7181 4.44971c.0864-1.49893.8714-2.81054 2.0342-3.61424l.14 2.42044c-.787.4368-1.5388.8488-2.1742 1.1938zm3.5338.2653h-2.7596c.5689-.3106 1.2037-.6597 1.8586-1.0238 1.0435-.5802 2.1392-1.19864 3.1016-1.759l1.9901.24361c-.7891 1.50919-2.3696 2.53919-4.1907 2.53919zm4.7104-4.33816c-.0347.42591-.1257.83586-.2658 1.22234l-1.3901-.17016c.4166-.24896.7896-.47794 1.0976-.67589.2192-.14081.4084-.26778.5583-.37629zm-18.2159.53771c-.00063-.03131-.00094-.06269-.00094-.09415v-.50906h.6032 2.96022c2.49886 0 4.53052 2.00054 4.58062 4.48736.0006.0313.0009.0627.0009.0942v.5091h-.6032-2.96019c-2.49887 0-4.53048-2.0006-4.58061-4.48745zm4.40649.08971c-.27202-.05877-.5544-.08971-.84401-.08971h-2.0828c.53516.26335 1.18583.59426 1.60603.83289.1165.06616.21944.12444.3128.17729l.00003.00002.00003.00002c.4033.22832.62795.3555.99593.58048l-.12132-1.49014zm.48214.13667.14335 1.76083c1.07808.67754 1.83362 1.17364 2.49162 1.61834-.1457-1.56838-1.2019-2.87265-2.63497-3.37917zm2.65037 3.62947-.0192.0283h.0199zm-.6823.0283c-.60433-.4038-1.31173-.8635-2.27326-1.4663-.71894-.45069-.92582-.56781-1.48138-.88233l-.2057-.11652-1.75809.48254c.6888 1.18551 1.97248 1.98261 3.44234 1.98261zm-5.98457-2.53508 1.25823-.34534c-.53902-.27964-1.1538-.58106-1.51316-.75074.03315.38351.12071.75146.25493 1.09608zm-.2666-1.28051.03199-.06856h-.03417c.00054.0229.00126.04575.00218.06856zm1.89996 8.11129h-.35808v1.9521c.18932.1132.35964.2161.51889.3123.71993.435 1.21341.7332 2.21068 1.2261.98159.4851 1.91362.9222 2.65602 1.2574-.1491-2.6472-2.343-4.7479-5.02751-4.7479zm-3.19694 0h2.23566v1.5865c-.4668-.2909-.9564-.615-1.38599-.9232-.28646-.2055-.54323-.4018-.7476-.5749-.03624-.0307-.07026-.0601-.10207-.0884zm1.06562 3.7521c-.95427-.8666-1.57447-2.0946-1.64459-3.4677.08643.0859.18549.1748.29126.2644.22093.187.49166.3936.78574.6046.58843.4222 1.2824.8707 1.88504 1.2292.2441.1452.45793.2744.65612.3942h.00002.00009c.45284.2737.82402.498 1.28792.7509l-3.26292.2033zm3.38439 1.3069c-.9825 0-1.89929-.2814-2.67417-.768l3.59749-.2241c.74348.3666 1.45678.705 2.07982.9921zm-5.03562-5.6622h-.60321v.6032.0234c0 3.1142 2.52459 5.6388 5.63883 5.6388h3.78254.6032v-.6032-.0233c0-3.1143-2.52457-5.6389-5.63881-5.6389zm21.30966-.4875h-4.1125c-.6043 0-1.1876.09-1.7372.2574l-.5676 2.2878c.7731-.4057 1.6028-.7286 2.4441-.8771.6639-.1171 1.0152-.2081 1.5092-.3756.737-.2498 1.3536-.5515 1.8128-.8299.292-.1771.5084-.3376.6512-.4626zm-6.5347.5132c-1.8764.8363-3.2405 2.6145-3.4919 4.7338.6769-.6804 1.6997-1.5622 2.8856-2.2898zm-3.5336 5.5572v.0111h.0125zm.0823.0111h4.416c2.2452 0 4.2003-1.2424 5.2152-3.0772l-2.0405-1.0988c-.4654.1529-.8389.2448-1.4731.3567-.9726.1716-1.9527.6053-2.8545 1.1469-1.4468.8688-2.6571 1.9936-3.2631 2.6724zm9.8961-3.6196c.2633-.6167.4255-1.2868.4658-1.9896-.185.1594-.4288.3329-.7144.5061-.356.2159-.7942.4416-1.3005.6493z" fill="#fff" fill-rule="evenodd"/></svg>