<svg width="584" height="157" viewBox="0 0 584 157" fill="none" xmlns="http://www.w3.org/2000/svg">
<path d="M181.229 26.898H203.137V147.765L181.229 157V26.898Z" fill="white"/>
<path fill-rule="evenodd" clip-rule="evenodd" d="M233.912 114.327C257.822 114.327 277.205 94.056 277.205 69.051C277.205 44.046 257.822 23.7755 233.912 23.7755C210.001 23.7755 190.618 44.046 190.618 69.051C190.618 94.056 210.001 114.327 233.912 114.327ZM229.739 97.6735C244.431 97.6735 256.341 85.0918 256.341 69.5714C256.341 54.051 244.431 41.4694 229.739 41.4694C215.047 41.4694 203.137 54.051 203.137 69.5714C203.137 85.0918 215.047 97.6735 229.739 97.6735Z" fill="white"/>
<path d="M286.844 26.898H308.751V37.2064V100.896V147.765L286.844 157V26.898Z" fill="white"/>
<path fill-rule="evenodd" clip-rule="evenodd" d="M339.526 114.327C363.436 114.327 382.819 94.056 382.819 69.051C382.819 44.046 363.436 23.7755 339.526 23.7755C327.488 23.7755 316.598 28.9133 308.751 37.2064C301.012 45.3859 296.233 56.6348 296.233 69.051C296.233 81.4673 301.012 92.7162 308.751 100.896C316.598 109.189 327.488 114.327 339.526 114.327ZM335.353 97.6735C350.045 97.6735 361.955 85.0918 361.955 69.5714C361.955 54.051 350.045 41.4694 335.353 41.4694C320.661 41.4694 308.751 54.051 308.751 69.5714C308.751 85.0918 320.661 97.6735 335.353 97.6735Z" fill="white"/>
<path d="M81.5432 4V21.9555H51.9201V114.911H29.6231V31.5129L51.9201 21.9555H0V4H81.5432Z" fill="white"/>
<path d="M421.176 45.1546V87.7392C421.176 90.7053 421.866 92.8769 423.247 94.254C424.733 95.5252 427.175 96.1608 430.573 96.1608H440.925V114.911H426.91C408.117 114.911 398.72 105.801 398.72 87.5803V45.1546H388.209V26.8813H398.72V5.11228H421.176V26.8813H440.925V45.1546H421.176Z" fill="white"/>
<path d="M479.206 5.11228V114.911H456.909V36.1375L479.206 26.8813H456.909V5.11228H479.206Z" fill="white"/>
<path d="M537.973 94.4129L560.27 26.8813H584L551.351 114.911H524.276L491.786 26.8813H515.676L537.973 94.4129Z" fill="white"/>
<path d="M163.704 26.613H141.796V38.4627V102.152V115.096H163.704V26.613Z" fill="white"/>
<path fill-rule="evenodd" clip-rule="evenodd" d="M111.021 115.583C87.111 115.583 67.728 95.3123 67.728 70.3073C67.728 45.3023 87.111 25.0318 111.021 25.0318C123.059 25.0318 133.949 30.1696 141.796 38.4627C149.536 46.6422 154.315 57.8911 154.315 70.3073C154.315 82.7236 149.536 93.9725 141.796 102.152C133.949 110.445 123.059 115.583 111.021 115.583ZM115.194 98.9298C100.502 98.9298 88.5923 86.3481 88.5923 70.8277C88.5923 55.3073 100.502 42.7257 115.194 42.7257C129.886 42.7257 141.796 55.3073 141.796 70.8277C141.796 86.3481 129.886 98.9298 115.194 98.9298Z" fill="white"/>
</svg>
