<svg width="200" height="200" viewBox="0 0 200 200" fill="none" xmlns="http://www.w3.org/2000/svg">
<path fill-rule="evenodd" clip-rule="evenodd" d="M100 0C44.7715 0 0 44.7715 0 100C0 155.228 44.7715 200 100 200C155.228 200 200 155.228 200 100C200 44.7715 155.228 0 100 0ZM73.329 79.9059L107.867 78.4618L107.538 101.991L91.9444 102.037L93.2291 104.873L93.2292 104.873L93.2291 104.873L93.2318 104.882C99.5152 125.06 90.6957 133.528 87.6515 135.754C87.2588 136.039 86.9626 136.223 86.8069 136.315C86.7735 136.335 86.7465 136.35 86.7264 136.361C86.6987 136.377 86.6843 136.384 86.6843 136.384L86.6866 136.384L86.6843 136.385L86.7277 136.373C88.5446 135.916 90.0706 135.16 91.352 134.206C93.0929 132.932 94.3508 131.326 95.2558 129.606C98.2789 124.077 98.0341 117.312 98.0063 116.719L101.41 116.557L112.391 116.17C113.615 126.044 120.874 133.647 129.662 133.647C137.431 133.647 144.005 127.705 146.271 119.506L186.576 129.622L188.685 129.453L189 127.198L146.839 116.85C147.02 115.669 147.114 114.454 147.114 113.213C147.114 105.694 143.641 99.1132 138.465 95.565L138.34 79.0093L142.775 74.0159L117.372 72.3918L108.525 78.8153L108.042 78.3684L107.701 77.9667L102.082 78.2022C106.076 73.219 113.814 72.4908 115.103 72.4215C115.239 72.4185 115.312 72.4162 115.312 72.4162L117.082 71.1315H118.851C120.475 70.1619 120.96 65.1443 120.96 65.1443H120.765L120.912 64.9747C120.024 64.9747 109.314 66.1338 107.519 66.3287C107.526 66.2844 107.531 66.2593 107.531 66.2593C97.658 61.906 85.2913 62.1437 83.5095 62.203L82.8792 61.0001C82.2977 61.0001 71.5594 63.6664 71.5594 63.6664L74.4683 67.1327C73.9834 69.5566 75.5831 69.2173 75.9228 69.1446C76.0212 69.1235 76.8107 68.9658 77.8823 68.7525C78.3375 69.3094 79.4117 69.7623 80.564 70.0854C80.4374 70.4019 80.2263 70.8832 80.0675 71.0104C79.8252 71.2043 73.7168 74.6948 73.7168 74.6948C73.7168 74.6948 72.5045 75.422 72.3834 75.6644C72.2623 75.9068 72.1894 76.44 72.5774 76.5128L72.6105 76.5171L72.6981 76.5279C73.1125 76.5787 73.8922 76.6741 74.3953 77.046C74.8304 77.3677 76.2409 78.694 76.8386 79.2603L18.3071 81.7136L18.0875 81.6038V81.7228L18.0629 81.7239L18.0875 81.7485V81.9677L17.8441 81.846V90.451L18.0875 90.2076V90.2088L18.6935 89.6028L18.5784 82.2394L18.6689 82.3299L42.9085 81.3603H43.5144L42.7872 82.6935V94.0861L41.0905 94.3285L42.5448 94.9344L43.6356 94.8132V90.2077L62.179 88.8745H43.878L43.7568 81.4815L72.7229 80.0271L72.4807 80.7543V91.6621L70.6628 91.9045C70.6628 91.9045 71.4629 92.8498 71.9961 92.7529C72.4324 92.6802 72.8928 92.6317 73.329 92.6317L73.4502 91.1773L73.4176 88.1507L87.9702 87.2026H73.4075L73.329 79.9059ZM84.6648 67.0016C85.0175 66.9398 85.3547 66.8854 85.6675 66.8411C85.7595 66.8309 85.8514 66.756 85.967 66.662C86.1255 66.5329 86.3286 66.3677 86.637 66.2836C87.1703 66.1381 87.8488 66.6957 87.8488 66.6957C87.8488 66.6957 87.6065 65.7988 86.8793 65.6533C86.4189 65.5564 85.3524 65.7261 85.3524 65.7261C85.3278 65.4352 85.2795 65.1201 85.2312 64.8292C85.2312 64.8292 77.8864 66.2109 75.8262 66.8896C75.8262 66.8896 75.2684 66.8168 76.2384 66.5744C77.5005 66.1136 81.396 65.3381 83.5715 64.9051L83.5716 64.905C84.028 64.8142 84.4087 64.7384 84.6734 64.6838L84.0932 63.6455L82.7822 61.4606C82.7822 61.4606 73.6441 63.5695 72.6017 63.8846L74.9529 66.963C74.9529 66.963 74.4683 68.7325 75.6801 68.7325C76.483 68.7325 80.0184 67.9563 82.406 67.4321C83.6234 67.1648 84.5424 66.963 84.6488 66.963L84.6648 67.0016ZM107.58 66.5745C108.869 66.2807 118.929 65.6283 120.278 65.5418C120.213 66.3704 120.026 68.2181 119.651 68.3682C118.585 68.7803 109.447 68.4651 108.331 68.1258C107.504 67.874 107.464 66.9685 107.498 66.5178L107.58 66.5745ZM112.561 109.115L109.581 109.158L104.601 109.427C105.034 109.812 105.433 110.23 105.791 110.683L112.368 110.448C112.42 109.999 112.484 109.555 112.561 109.115ZM118.402 102.109C117.553 103.325 116.837 104.681 116.284 106.146C117.032 106.076 118.129 106.013 119.651 106.013C123.044 106.013 120.305 108.267 120.305 108.267L119.82 109.406L125.359 110.282C125.388 110.25 125.416 110.218 125.445 110.187L119.886 102.062L118.402 102.109ZM115.693 118.939C116.302 121.184 117.274 123.23 118.525 124.976L124.186 117.85L119.444 117.331L115.693 118.939ZM119.751 126.492C121.056 127.924 122.577 129.075 124.249 129.865L127.328 118.408C127.11 118.329 126.9 118.234 126.697 118.125L125.81 118.028L119.751 126.492ZM126.076 130.566C127.201 130.9 128.378 131.077 129.59 131.077C130.208 131.077 130.817 131.031 131.415 130.941L129.35 118.672C129.213 118.684 129.075 118.69 128.935 118.69C128.791 118.69 128.648 118.683 128.507 118.671L126.076 130.566ZM133.395 130.475C135.391 129.829 137.218 128.686 138.779 127.163L132.537 118.764L130.71 118.564L133.395 130.475ZM139.933 125.91C141.41 124.128 142.572 121.965 143.309 119.553L142.921 119.901L134.716 119.003L139.933 125.91ZM144.035 116.161C144.148 115.279 144.206 114.376 144.206 113.455C144.206 111.934 144.046 110.459 143.747 109.051L137.455 110.745L139.842 111.175C139.842 111.175 141.466 110.86 140.981 111.975L140.812 112.945H140.327L140.157 112.145L135.693 111.22L135.486 111.275L135.019 112.679C136.788 112.897 138.558 113.018 140.351 112.994C143.575 112.994 142.29 115.733 142.29 115.733L144.035 116.161ZM143.245 107.155C142.426 104.572 141.117 102.282 139.456 100.45L132.13 109.786L133.075 109.956C133.269 109.97 133.456 110.006 133.636 110.057L134.436 110.201L143.245 107.155ZM138.571 99.5476L138.496 99.6437L138.494 99.4764L138.536 99.5155L138.571 99.5476ZM120.814 116.744L124.327 115.238C124.498 115.78 124.756 116.28 125.083 116.722L124.727 117.169L120.814 116.744ZM131.934 117.953L131.527 117.908C131.61 117.853 131.692 117.796 131.772 117.735L131.934 117.953ZM139.382 118.762L134.101 118.188L132.884 116.576C132.939 116.496 132.992 116.413 133.043 116.33L139.515 118.292L139.382 118.762ZM126.517 109.322C126.809 109.148 127.12 109.004 127.445 108.896L125.827 101.876L121.768 102.003L126.517 109.322ZM137.024 101.526L132.327 101.673L130.356 108.876C130.598 108.953 130.831 109.049 131.055 109.163L137.024 101.526ZM130.641 101.726L129.28 108.667C129.166 108.659 129.051 108.655 128.935 108.655C128.839 108.655 128.744 108.657 128.65 108.663L127.467 101.825L130.641 101.726ZM110.844 72.3849C104.344 73.8394 100.597 77.5957 99.9477 78.2917L91.4945 78.646L95.8242 74.7674C96.1147 74.5977 96.4057 74.4523 96.7449 74.3311C96.7449 74.3311 97.7632 73.7978 96.7449 73.5554L92.2999 70.971C97.3798 71.2156 103.3 71.5698 105.616 71.9314C107.295 72.1934 109.183 72.3233 110.844 72.3849ZM95.8242 73.8463L89.3182 78.7372L78.8906 79.1743C77.9797 78.5169 74.3517 75.9249 73.7168 75.8825C72.9895 75.8341 74.0077 75.2038 74.0077 75.2038C74.0077 75.2038 80.2615 71.5679 80.6736 71.374C81.037 71.2285 81.328 70.9861 81.522 70.6468C81.5386 70.5803 81.635 70.4738 81.7624 70.3725C82.6481 70.5513 83.4684 70.6467 83.9707 70.6467C84.5143 70.6467 87.0903 70.7348 90.3223 70.8792C91.7276 71.5525 95.7187 73.4643 96.0177 73.6039C96.0177 73.6039 95.8242 73.6039 95.8242 73.8463ZM134.68 79.1793L134.534 80.1488L119.336 78.8642L134.68 79.1793ZM90.2003 103.056L81.4738 112.751L81.6877 113.606C81.6225 113.446 81.5507 113.313 81.4733 113.236C81.3394 113.102 81.0905 113.28 80.7689 113.511C80.2171 113.906 79.4514 114.455 78.6855 113.842C78.4302 113.638 78.1965 113.439 77.9797 113.255L77.9797 113.255C77.1673 112.564 76.5933 112.075 76.0192 112.266C75.8022 112.339 75.8874 112.389 76.1041 112.519C76.6136 112.822 77.8498 113.558 77.5948 116.024C77.2314 119.538 75.5342 119.175 75.5342 119.175L68.1416 126.325L68.7472 127.295L76.1404 119.902L77.4737 121.356L74.3225 132.385L75.4131 132.749L78.9282 121.599C78.9282 121.599 79.8977 122.447 80.2611 122.569L81.5944 134.519H82.8791L81.4246 120.387C81.4246 120.387 81.5944 118.375 85.2302 120.387C88.8664 122.399 85.7152 119.829 85.7152 119.829L82.7338 118.302C82.7338 118.302 81.3517 117.09 82.4187 116.436C83.4852 115.781 87.0968 115.878 88.5513 116.436C90.0054 116.993 93.3264 116.363 93.3264 116.363C93.3264 116.363 93.4717 114.496 93.2294 113.721L82.079 115.175C82.079 115.175 81.9467 114.315 81.731 113.719L92.9876 112.267C92.9876 112.267 92.7454 108.631 90.2003 103.056ZM87.8972 99.9039L89.4729 102.085L80.383 111.903L80.0192 111.175L83.5342 95.9043L84.6249 96.8739L83.8735 102.037H87.17L87.8972 99.9039ZM89.1098 95.6628C89.1098 95.6628 90.8066 97.2383 91.0489 97.7231C91.2915 98.2079 91.2915 88.7545 91.2915 88.7545L89.7159 88.6333V94.6932L88.746 95.0568L89.1098 95.6628ZM79.4128 102.207L77.716 94.087L77.7167 94.0868C77.7167 94.0868 71.7286 92.2082 66.2239 102.088L66.2024 102.086L66.1608 102.202C66.094 102.323 66.0272 102.446 65.9606 102.571L66.0268 102.578C65.6863 103.532 64.9617 105.566 64.8695 105.843L64.8693 105.843L64.869 105.844C64.8636 105.861 64.861 105.875 64.8611 105.886C64.7619 106.413 63.8161 111.642 64.5059 115.781L65.8389 115.538C65.8389 115.538 65.7177 109.963 65.8389 109.357C65.8389 109.357 68.7478 109.115 69.1112 109.236C69.4751 109.357 65.7177 107.176 65.7177 107.176C65.7177 107.176 65.1422 106.945 64.8884 105.924C64.9428 105.938 65.0751 105.884 65.2535 105.811C65.6576 105.645 66.2987 105.382 66.8085 105.6C67.6569 105.964 75.8984 111.175 75.8984 111.175C75.8984 111.175 73.018 105.492 71.6246 103.173L71.6569 103.177L71.5371 103.029C71.2367 102.538 71.0172 102.229 70.9293 102.207C70.5594 102.114 68.8785 102.205 68.1016 102.254C68.189 101.972 69.007 99.4739 71.1756 97.2958L73.9155 102.279H73.9108L77.0167 107.92L77.474 108.752L77.4676 108.739L77.4742 108.751L76.6741 102.279H74.2573L71.5855 96.9034C72.9309 95.676 74.7373 94.6059 77.1233 94.1782L79.4128 109.722L81.3518 102.207H79.4128ZM64.7474 117.114L71.0499 116.387L66.0808 117.842C66.2019 119.296 68.0198 124.386 68.0198 124.386C68.0198 124.386 66.808 124.265 66.2019 122.811C65.5962 121.356 64.7474 117.114 64.7474 117.114ZM105.107 81.2399C105.543 81.555 105.809 82.0398 105.834 82.5731C105.834 83.4214 106.682 82.8155 106.682 82.3307C106.682 82.0883 106.634 81.5065 106.561 80.9733C106.488 80.44 106.44 80.0279 106.44 80.0279L105.107 81.2399ZM105.834 93.9656C105.809 93.4323 105.543 92.9475 105.107 92.6324L106.44 91.4204C106.44 91.4204 106.488 91.8325 106.561 92.3658C106.634 92.899 106.682 93.4808 106.682 93.7232C106.682 94.208 105.834 94.814 105.834 93.9656ZM73.1106 114.569C72.7955 112.703 75.2924 112.872 75.2924 112.872C76.1166 113.042 76.0196 113.939 76.0196 113.939C76.0196 113.939 75.6075 114.012 74.5651 114.254C73.5228 114.496 74.6621 115.369 75.2195 115.539C75.7769 115.709 75.7769 114.811 75.7769 114.811L76.8193 114.981C77.062 115.466 76.7469 116.823 76.5042 117.235C76.3102 117.502 76.0196 117.672 75.7045 117.72C74.3953 117.308 73.4258 116.436 73.1106 114.569ZM63.9723 102.474L63.8484 102.458C63.889 102.389 63.9306 102.329 63.9732 102.279L62.9308 102.376L62.6809 102.377H40.6898C40.3527 100.845 39.9301 99.483 39.4179 98.8131C37.8423 96.7528 37.7212 99.2979 37.7212 99.2979C37.7212 99.2979 40.0239 105.722 39.7815 113.114C39.5391 120.507 37.2364 127.537 32.1461 130.688C32.1461 130.688 42.4479 128.385 41.7207 109.479C41.7207 109.479 41.6985 109.216 41.6535 108.772L62.8088 106.958C62.8088 106.958 63.245 103.323 63.9723 102.474ZM33.4795 90.208C33.4795 90.208 34.8127 91.1775 35.2975 92.026C35.7823 92.8743 35.4187 89.2384 35.4187 89.2384L33.8431 88.8748L33.4795 90.208ZM37.8425 106.569L27.7478 107.978C27.7312 108.005 27.7034 108.029 27.6614 108.048C27.4145 108.163 27.9563 109.036 28.2025 109.408L37.8425 108.146L38.0849 109.237C38.0849 109.237 31.419 109.237 31.1767 110.933C31.1767 110.933 28.9773 110.141 28.0264 109.907C27.9162 110.01 27.7869 110.104 27.6614 110.133C27.3463 110.206 27.3463 111.103 27.5887 111.345C27.8311 111.588 29.6006 112.969 29.6006 112.969L29.1158 112.799C29.1158 112.799 28.0735 112.702 27.5887 112.872C27.1039 113.042 28.631 114.811 28.631 114.811L28.3886 115.054L31.8549 128.143L31.2004 128.555C31.2004 128.555 27.7341 116.775 27.4917 116.605C27.2493 116.436 26.4495 116.678 26.4495 116.678L26.1343 128.24L25.2375 128.167C25.2375 128.167 25.4799 117.914 25.4799 117.575C25.4799 117.235 24.9951 116.678 24.9951 116.678L24.7527 115.539L20.5592 126.689L19.5169 125.889C19.5169 125.889 23.8558 114.957 23.9528 113.842C24.0497 112.727 22.6681 113.284 22.6681 113.284C22.6681 113.284 16.9475 118.69 16.6082 118.932C16.2688 119.174 16.1961 120.556 16.1961 120.556L15.2265 119.271C15.2265 119.271 21.6985 113.139 21.9409 112.969C21.9912 112.934 22.0625 112.889 22.1459 112.837L22.1462 112.837L22.1462 112.837C22.4647 112.637 22.9609 112.326 23.1529 112C23.3953 111.588 23.468 109.648 23.2256 108.921C22.9832 108.194 22.7408 108.461 22.9105 109.091C23.0801 109.721 22.9105 110.86 22.4257 111.345C21.9554 111.815 21.2798 110.849 20.93 110.348L20.8986 110.303C20.6172 109.901 21.3523 109.682 21.7499 109.564C21.8318 109.54 21.8995 109.52 21.9409 109.503L21.9513 109.499C22.206 109.397 22.9983 109.081 22.3529 108.364C21.6985 107.636 20.7289 109.333 20.6562 109.576C20.5835 109.818 20.1714 109.333 20.1714 109.333C20.1714 109.333 20.4865 108.679 20.4138 108.194C20.3805 107.972 20.2914 107.852 20.2138 107.747C20.1218 107.623 20.0461 107.521 20.0987 107.297C20.1956 106.885 21.9651 106.57 21.9651 106.57C23.0074 106.085 23.2013 106.909 23.2013 106.909C23.2013 106.909 24.3406 107.854 24.8254 107.709C25.3102 107.564 25.6253 106.425 25.6253 106.425C25.6253 106.425 26.0131 106.109 26.5949 106.837C27.1766 107.564 27.4917 107.491 27.4917 107.491C27.4917 107.491 27.5123 107.509 27.5421 107.538L35.6609 99.4185C36.7517 100.873 37.3577 105.115 37.3577 105.115L34.3277 104.751L32.7522 103.903L30.5706 105.842L37.7213 105.963L37.8425 106.569ZM35.2977 98.4491L32.8737 94.5708L32.0254 97.4795L30.4498 98.4491L32.1466 93.3588L31.2982 92.3892C31.2982 92.3892 26.6927 105.236 26.5714 106.085C26.4503 106.933 28.147 105.721 28.147 105.721L29.6014 101.843L30.9346 102.691L35.1765 98.8127L35.2977 98.4491ZM26.8141 100.268L27.7837 100.389L25.6021 105.116C25.6021 105.116 25.6021 88.8752 25.9657 88.9965C26.3051 89.1661 26.6444 89.36 26.9353 89.6024L26.8141 100.268ZM12.7541 99.298C16.2689 87.1782 24.2679 88.5114 24.2679 88.5114C20.3896 89.1174 21.238 90.5718 21.238 90.5718C21.4804 91.0566 24.9951 100.995 24.9951 100.995L24.8739 103.419L24.2679 103.54C23.9043 101.48 20.5108 90.2082 20.026 89.9658C19.5412 89.7234 18.5716 91.5414 18.5716 91.5414L18.4504 95.7833L17.8444 95.0561V92.3898L16.1477 94.5713C15.1781 94.2077 15.1781 95.1773 15.1781 95.1773L15.6629 95.7833L13.7237 101.722H13.1177C12.5117 101.722 12.7541 102.813 12.7541 102.813C12.7541 102.813 14.2085 102.449 13.7237 103.419C13.2389 104.388 13.7237 110.085 13.7237 110.085L12.8753 110.206C12.0269 110.327 12.8753 111.175 12.8753 111.175L19.42 110.691L13.8449 111.903C13.8449 112.266 15.4205 117.72 15.4205 117.72L12.7541 113.721C11.0573 106.812 12.7541 99.298 12.7541 99.298ZM18.8146 102.474C18.8146 101.916 18.7904 101.383 18.7419 100.849L19.9539 102.474H18.8146Z" fill="black"/>
</svg>
