<svg fill="none" height="37" viewBox="0 0 29 37" width="29" xmlns="http://www.w3.org/2000/svg"><g clip-rule="evenodd" fill="#fff" fill-rule="evenodd"><path d="m.738281 3.14198c0-1.73527 1.391159-3.14198 3.107239-3.14198h23.60448c.6922 0 1.2534.561152 1.2534 1.25337v2.517 7.36883c0 .589-.7377.8541-1.1126.3998l-2.3297-2.82246c-.1851-.22432-.2864-.50611-.2864-.79697v-3.52106c0-.34691-.2812-.62814-.6281-.62814h-19.25295c-.34611 0-.62669.28058-.62669.62669v19.57584c0 .1832.08011.3571.21927.4762l9.62717 8.2372c.2346.2006.5803.2006.8149 0l9.6272-8.2372c.1391-.1191.2192-.293.2192-.4762v-8.4422l3.7287 4.0449v5.444c0 .6287-.275 1.2259-.7526 1.6346l-11.2229 9.6024c-1.1585.9912-2.8556.9912-4.0142 0l-10.87528-9.3051c-.69773-.597-1.100139-1.4744-1.100139-2.3986z"/><path d="m10.5411 9.12531c-.2359-.1825-.58147-.07541-.67283.20853l-3.10655 9.65526 3.06247-5.609c.15384-.2817.34631-.5406.57191-.769l.8659-.8768c.1629-.165.4272-.1712.5977-.0141l7.6921 7.0894c.1194.1101.2906.1435.4427.0865l3.896-1.461c.1501-.0563.319-.0244.4383.0826l.4391.3939c.1329.1192.2087.2892.2087.4676v2.7025l3.0268.3494c.373.0431.7002-.2485.7002-.624v-1.5708c0-.1463-.0511-.2881-.1446-.4008l-3.3264-4.0129c-.1112-.1341-.2923-.1879-.4587-.1363l-4.8136 1.4939c-.134.0416-.2798.0152-.3908-.0706z"/></g></svg>