<svg fill="none" height="37" viewBox="0 0 88 37" width="88" xmlns="http://www.w3.org/2000/svg" xmlns:xlink="http://www.w3.org/1999/xlink"><clipPath id="a"><path d="m.910156 0h86.8285v37h-86.8285z"/></clipPath><g clip-path="url(#a)" fill="#fff"><path clip-rule="evenodd" d="m48.2621 8.75308-.3211-.29731-.1617 11.89253 15.1939-.4757-.0797-11.01962 2.1704-2.45819-12.461-.79323zm12.7582.6541.0784-.4757-7.5315-.15818z" fill-rule="evenodd"/><path d="m35.888.606532s6.6598-.316341 11.8925 1.982478c0 0-.1581.7528.3972.91216.5554.15936 5.0341.31634 5.5491.11893.2378-.09039.3175-1.58647.3175-1.58647h.3175s-.2378 2.45819-1.031 2.93389h-.8718l-.8729.63387s-2.6948.07968-4.757-.23785c-2.0621-.31753-9.91-.63387-10.6236-.63387-.7135 0-2.7352-.39602-3.0528-1.03108 0 0 2.4582-.63388 3.8853-.83248.1023-.01308.2176-.19742.4757-.2771s.5946.19861.5946.19861-.1189-.43646-.4757-.51614c-.22-.04876-.7528.04044-.7528.04044-.0118-.14647-.0316-.29217-.0594-.43646 0 0-3.6082.67431-4.6191 1.01087 0 0-.2771-.03925.1986-.15817.7528-.27829 3.3894-.7754 4.1422-.93238z"/><path d="m45.104 8.4562-1.1001.0892s2.765-3.18125 7.8788-3.24071l-.2973.29731s-4.3408.17839-6.4814 2.8542z"/><path d="m34.6036 4.3252s-.1784.50543-.2973.59462c-.1189.0892-3.1218 1.81361-3.1218 1.81361s-.5946.35678-.6541.4757c-.0595.11893-.0892.38651.0892.41624s.6244.05946.8919.26758c.2676.20812 1.338 1.21898 1.338 1.21898l.9811-.08919s-2.2893-1.66495-2.6461-1.69468.1487-.32705.1487-.32705 3.0623-1.78388 3.2704-1.87307c.1741-.0701.3203-.19545.4162-.35678.0298-.08919.383-.35677.4757-.23785.0928.11893.2379-.11892.2379-.11892z"/><path d="m39.092 4.74208s2.8542 1.36764 3.0326 1.45683c0 0-.0892 0-.0892.11893l-3.3596 2.52716 1.0703-.02973 2.2893-2.05146c.1402-.08629.2898-.15612.446-.20812 0 0 .5054-.26758 0-.38651l-2.5569-1.48656z"/><path d="m48.0576 8.57476-17.0598.71237.0594 5.52997-.0594.7136c-.2192.0037-.4379.0235-.6541.0595-.2617.0428-.6541-.4163-.6541-.4163l.8919-.1189v-5.35164l.1189-.35677-14.2115.71351.0594 3.6273h8.9789l-9.0978.654v2.2596l-.5351.0595-.7136-.2973.8325-.119v-5.5894l.3568-.6541h-.2974l-11.89247.4757-.29732-.2973 43.97619-1.84219z"/><path d="m3.89648 10.1211v4.2218l.29732-.2973-.05947-3.8056z"/><path d="m60.6633 25.8596c0 1.3569-1.0644 2.4569-2.3785 2.4569-1.3142 0-2.3786-1.1-2.3786-2.4569 0-1.357 1.0644-2.4582 2.3786-2.4582 1.3141 0 2.3785 1.0965 2.3785 2.4582z"/><path d="m56.7394 20.0314.9514 4.122.5542-.1582-.7135-4.1231h-.9514"/><path d="m59.1178 19.9521-.7135 3.6475.4757.2378 1.1096-4.0435z"/><path d="m59.039 23.9959 4.2813-5.4705.6339.4757-4.5192 5.4705-.5541-.3175"/><path d="m65.5404 22.5684-5.7084 1.9824.0785.5542 5.8678-1.5852z"/><path d="m57.3744 24.1538-2.4582-3.9638-1.1096-.0796 3.0921 4.5191z"/><path d="m56.6595 27.0078-3.7259 4.6785.4757.9514 3.8056-5.3124z"/><path d="m57.6118 27.7217-1.7446 6.5016.8729.5554 1.4271-6.9773z"/><path d="m58.4039 27.881 1.1893 7.0558 1.0298-.1582-1.6649-7.3733-.6339.3163"/><path d="m59.5139 27.6432 3.8853 5.2327.5542-.635-3.8841-5.1531 3.4084 1.0311 1.9028.5542.3175-.2378 20.8512 5.2327 1.0311-.0785.1581-1.1108-22.9121-5.6287s.6339-1.3474-.9514-1.3474c-.8748.0075-1.749-.0458-2.6164-.1594l.2379-.7135s-.7932-.8718-1.665-.5542c-.8717.3175-1.2689 1.2677-1.2689 1.2677z"/><path d="m65.7376 28.3755-2.1799-.5745-.1582.5554-10.9411-1.1892-1.2689-.1594.1581.3972 13.7953 1.5056z"/><path d="m59.6722 23.916 3.965.7136s.792-.1582.5542.3972l-.0785.4757h-.2378l-.0797-.3972-2.2988-.4757-.2379.7135-.7932.3972-.8717-1.6649"/><path d="m56.8188 24.2334-3.0123-.4757.2378-.5554s1.3474-1.1095-.3175-1.1095c-1.665 0-2.2988.1581-2.2988.1581s-.3961 5.63 0 6.3435l4.9948-2.1406z"/><path d="m58.6407 15.6006c-4.7296 0-8.5626 4.4894-8.5626 10.0289 0 5.5396 3.833 10.029 8.5626 10.029 4.7297 0 8.5627-4.4906 8.5627-10.029 0-5.5383-3.8342-10.0289-8.5627-10.0289zm-.0368 18.7902c-3.9638 0-7.176-3.8687-7.176-8.6423 0-4.7737 3.211-8.6411 7.176-8.6411 3.9649 0 7.1747 3.8686 7.1747 8.6411 0 4.7724-3.2121 8.6423-7.1747 8.6423z"/><path d="m50.2777 27.0095-7.4923.3567s1.0704 7.968-5.2327 9.633c0 0 7.1355-3.8056 3.211-15.4603 0 0 .7136-.5946.5946-.9514-.1189-.3568 4.1624 2.4974 4.1624 2.4974l.7136.5947c.3702.3058.6911.6668.9514 1.0703.3567.5946 2.9731-.4757 2.9731-.4757z"/><path d="m45.8779 23.798 4.4002-.2378 1.546-3.4489-2.9731.2379-5.7084.1189z"/><path d="m39.2774 20.6465-4.2813 4.757.1189.4757 5.53-.7136s-.1189-1.7838-1.3676-4.5191z"/><path d="m38.9193 20.1713-.773-1.0704-.3568 1.0501h-1.6245l.3758-2.5366-.5351-.4757-1.7245 7.4923.1784.3567z"/><path d="m38.7409 17.0201s.8325.773.9514 1.0109c.1189.2378.1189-4.4002.1189-4.4002l-.773-.0595v2.9731l-.4757.1784z"/><path d="m33.1528 16.2471.8325 3.9828h.9514l-.9514 3.6878-1.1298-7.6706z"/><path d="m33.1526 16.2467s-3.0326-.9514-5.7678 4.1624l2.7947.2973-.3568-.4364h-1.3866s1.0299-3.5476 4.7165-4.0233z"/><path d="m31.2891 20.2695h1.3474l.396 3.1718z"/><path d="m50.5156 27.0685-7.4126.2568s.4757 8.1666-5.5503 9.6734c0 0 6.8977-3.6272 3.211-15.4603l-.6339-1.3878 12.1102-.0393-1.9623 3.5083-4.1624.0595.7136.7135 3.3299-.1189z"/><path d="m27.5039 20.1709s-.5946 1.665-.6541 1.8433c-.0594.1784.5352-.2973.9514-.1189.4163.1784 4.4597 2.7353 4.4597 2.7353s-2.2001-4.342-2.4379-4.4002c-.2379-.0583-1.5853.0404-1.5853.0404z"/><path d="m26.8499 22.0146s-.5352 2.7353-.1784 4.876l.6541-.1189s-.0595-2.7353 0-3.0326c0 0 1.4271-.119 1.6054-.0595.1784.0595-1.6649-1.0109-1.6649-1.0109s-.2973-.1189-.4162-.6541z"/><path d="m29.8811 27.1875-3.092.3568s.4162 2.0812.7135 2.7947c.2973.7136.892.773.892.773s-.892-2.4974-.9514-3.2109z"/><path d="m46.5898 9.94326c.1052.07484.192.17264.2538.28594s.097.2392.103.3681c0 .4163.4163.119.4163-.1189 0-.1189-.0298-.4079-.0595-.66239-.0297-.2545-.0595-.46738-.0595-.46738z"/><path d="m46.5898 15.5331c.1052.0749.192.1726.2538.286.0618.1133.097.2392.103.3681 0 .4162.4163.1189.4163-.1189 0-.119-.0298-.4079-.0595-.6624s-.0595-.4674-.0595-.4674z"/><path d="m40.7638 25.8796-5.4705.7135s-.119-.773-.2973-.9514c-.1784-.1784-.7731.773-1.3677.2973s-.9514-.8919-1.3082-.773c-.3567.119.9514.119.7731 1.8434-.1784 1.7244-1.0109 1.546-1.0109 1.546l-3.6272 3.5083.2973.4757 3.6272-3.6272.6541.7135-1.546 5.4111.5351.1784 1.7244-5.4705s.4757.4162.6541.4757l.6541 5.8665h.6351l-.7136-6.9369s.0785-.9918 1.8624 0c1.7839.9919.2379-.2783.2379-.2783l-1.4664-.7528s-.6743-.5946-.1582-.9121c.5162-.3175 2.2989-.2771 3.0124 0 .7136.2771 2.3393-.0393 2.3393-.0393s.0785-.9121-.0405-1.2879z"/><path d="m31.9633 25.4637s-1.2285-.0797-1.0703.8325c.1581.9121.635 1.3474 1.2689 1.546.158-.0245.3002-.1098.396-.2379.1189-.1986.2783-.8729.1594-1.1107l-.5162-.0785s0 .4352-.2771.3568c-.277-.0785-.8324-.5162-.3175-.6351.515-.1189.7136-.1582.7136-.1582s.0404-.4364-.3568-.5149z"/><path d="m3.77734 10.2363v4.2219l.29732-.2973-.05947-3.8056z"/><path d="m25.8984 20.309-10.8222.0392s.3567 2.7353.3567 3.0921l10.406-.892s.2188-1.8635.5756-2.2797z"/><path d="m26.0573 20.3096h-11.2194s.5946 2.7769.5946 3.1336l10.406-.8919s.2188-1.7839.5756-2.2025z"/><path d="m13.5302 18.8047s1.1298 3.1515 1.0109 6.7787c-.119 3.6272-1.2487 7.076-3.7462 8.6221 0 0 5.0543-1.1298 4.6976-10.406 0 0-.3568-4.2218-1.1298-5.2327s-.8325.2379-.8325.2379z"/><path d="m11.4492 14.3445s.6541.4757.892.892c.2378.4162.0594-1.3677.0594-1.3677l-.773-.1784z"/><path d="m12.5181 18.8643-4.04349 4.0434v.1784l5.11379-.7135-.0595-.2974-3.5083-.0594 1.0704-.9514.773.4162 1.4865.1784s-.2973-2.0812-.8324-2.7947z"/><path d="m12.341 18.3882-1.1893-1.9028-.4162 1.4271-.77302.4757.83252-2.4975-.4163-.4757s-2.25956 6.3031-2.31902 6.7193.77301-.1784.77301-.1784l.71356-1.9028.65405.4163 2.0812-1.9028"/><path d="m8.65431 19.3398-.4757-.0594.05946-5.2328c-.14551-.1186-.30533-.2184-.4757-.2973-.17839-.0594-.17839 7.9086-.17839 7.9086z"/><path d="m8.59375 23.7996 4.99485-.6541.1189.5352s-3.2704 0-3.3893.8324c0 0-1.4866-.5351-1.72445-.5351"/><path d="m6.92909 13.5125s-3.92453-.6541-5.64894 5.2922c0 0-.832481 3.6866 0 7.076l1.30817 1.9623s-.77301-2.6759-.77301-2.8542l2.73528-.5947-3.21098.2379s-.41624-.4163 0-.4757l.41624-.0595s-.23785-2.7947 0-3.2704-.4757-.2973-.4757-.2973-.11893-.5352.17838-.5352h.29732l.9514-2.9137-.23785-.2973s0-.4757.4757-.2973l.83247-1.0703v1.3082l.29732.3567.05946-2.0812s.4757-.8919.71355-.773c.23785.119 1.9028 5.649 2.08119 6.6598l.29731-.0594.05947-1.1893s-1.72442-4.8759-1.84334-5.1138c0 0-.41624-.7135 1.48656-1.0108z"/><path d="m5.80043 22.3724s-.87173.1582-.91216.3568c-.04044.1986.11892.1974.15936.4353.04043.2378-.11893.5553-.11893.5553s.19742.2379.23785.119c.04044-.119.51495-.9514.83248-.5947.31753.3568-.07968.515-.1986.5554-.11893.0405-.67431.1582-.51495.3961.15936.2378.51495.7527.7528.5149.23785-.2379.31753-.792.23785-1.1096-.07968-.3175.03924-.4364.15817-.0797.11892.3568.07968 1.3082-.03925 1.5068-.11892.1986-.4757.396-.59462.4757-.11893.0797-3.29066 3.0921-3.29066 3.0921l.4757.6339s.04043-.6732.1986-.7921 2.97313-2.7757 2.97313-2.7757.67431-.2771.63387.2783c-.04043.5554-2.1799 5.9058-2.1799 5.9058l.51495.3972 2.06216-5.4705.11893.5541s.23785.2783.23785.4365-.11893 5.1935-.11893 5.1935l.43527.0392.15936-5.6692s.39602-.1189.51494-.0392c.11893.0797 1.8231 5.8666 1.8231 5.8666l.3176-.1974-1.70424-6.422.11892-.1189s-.75398-.8729-.51613-.9514.75399-.0405.75399-.0405l.23785.0797s-.87291-.6743-.99184-.7932-.11893-.5542.04043-.5946c.15936-.0405.31635-.2771.31635-.2771s-.47571-.6743-.31635-.7528-.07968-.2783-.07968-.2783-.15817.0404-.43645-.3163c-.27829-.3568-.4757-.1987-.4757-.1987s-.15817.5554-.39602.6339-.79323-.396-.79323-.396-.11893-.396-.63387-.1582z"/><path d="m4.21484 19.5576c.02829.2635.0414.5283.03925.7932h.55538z"/><path d="m47.6484 2.64501s6.2234-.67431 6.6991-.67431l-.2379.27829s-5.6287.35677-6.303.51494z"/><path d="m36.5623 1.7829-.9252-1.546026s-4.4799 1.031086-4.9949 1.189256l1.15 1.50678s-.2378.87172.3568.87172 4.2421-.87172 4.4003-.87172l.0796.19741s-4.2028.83248-4.361.87291c-.1581.04044-.9514.19742-.7135-.99183l-1.4235-1.7042s5.2683-1.30817656 5.5502-1.30817656l.396.75279656z"/></g></svg>