<svg fill="none" height="37" viewBox="0 0 37 37" width="37" xmlns="http://www.w3.org/2000/svg" xmlns:xlink="http://www.w3.org/1999/xlink"><linearGradient id="a" gradientUnits="userSpaceOnUse" x1="18.7542" x2="18.3766" y1=".03733" y2="36.95"><stop offset="0" stop-color="#f4864d"/><stop offset=".2633" stop-color="#f37d4b"/><stop offset=".6994" stop-color="#f16347"/><stop offset="1" stop-color="#ef4e44"/></linearGradient><clipPath id="b"><path d="m0 0h36.8936v36.8936h-36.8936z"/></clipPath><g clip-path="url(#b)"><path clip-rule="evenodd" d="m18.5666 36.8568c10.1936 0 18.4572-8.2636 18.4572-18.4572 0-10.19364-8.2636-18.4572172-18.4572-18.4572172-10.19364 0-18.457225 8.2635772-18.457225 18.4572172 0 10.1936 8.263585 18.4572 18.457225 18.4572zm-2.7545-21.3932h2.2829c2.0812 0 3.7679-1.6868 3.7679-3.768v-3.69214c0-1.00233-.8124-1.81477-1.8147-1.81477h-2.9618c-1.0023 0-1.8155.81244-1.8155 1.81547v6.91894c0 .1002-.0807.1808-.1808.1808h-6.75271-.16694c-1.00233 0-1.81477.8125-1.81477 1.8148v2.9618c0 1.0023.81244 1.8155 1.81547 1.8155h3.69215c2.0812 0 3.7679-1.6868 3.7679-3.768v-2.2829c0-.1002.0814-.1815.1809-.1815zm9.4565-.3601h3.697c1.001 0 1.8127.8118 1.812 1.8134v2.966c0 1.0009-.8117 1.8127-1.8127 1.8127h-1.9699-4.9539c-.0988 0-.1787.0799-.1787.1787v6.9238c0 1.001-.8118 1.8127-1.8127 1.8127h-2.966c-1.0009 0-1.8127-.8117-1.8127-1.8127v-3.697c0-2.0798 1.6861-3.7659 3.7659-3.7659h2.2878c.0987 0 .1787-.0799.1787-.1787v-2.2878c0-2.0791 1.6854-3.7652 3.7652-3.7652z" fill="url(#a)" fill-rule="evenodd"/><g fill="#fff"><path clip-rule="evenodd" d="m18.5666 36.8568c10.1936 0 18.4572-8.2636 18.4572-18.4572 0-10.19364-8.2636-18.4572172-18.4572-18.4572172-10.19364 0-18.457225 8.2635772-18.457225 18.4572172 0 10.1936 8.263585 18.4572 18.457225 18.4572zm-2.7545-21.3932h2.2829c2.0812 0 3.7679-1.6868 3.7679-3.768v-3.69214c0-1.00233-.8124-1.81477-1.8147-1.81477h-2.9618c-1.0023 0-1.8155.81244-1.8155 1.81547v6.91894c0 .1002-.0807.1808-.1808.1808h-6.75271-.16694c-1.00233 0-1.81477.8125-1.81477 1.8148v2.9618c0 1.0023.81244 1.8155 1.81547 1.8155h3.69215c2.0812 0 3.7679-1.6868 3.7679-3.768v-2.2829c0-.1002.0814-.1815.1809-.1815zm9.4565-.3601h3.697c1.001 0 1.8127.8118 1.812 1.8134v2.966c0 1.0009-.8117 1.8127-1.8127 1.8127h-1.9699-4.9539c-.0988 0-.1787.0799-.1787.1787v6.9238c0 1.001-.8118 1.8127-1.8127 1.8127h-2.966c-1.0009 0-1.8127-.8117-1.8127-1.8127v-3.697c0-2.0798 1.6861-3.7659 3.7659-3.7659h2.2878c.0987 0 .1787-.0799.1787-.1787v-2.2878c0-2.0791 1.6854-3.7652 3.7652-3.7652z" fill-rule="evenodd"/><path d="m28.9641 15.1035h-3.697c-2.0798 0-3.7652 1.6861-3.7652 3.7652v2.2878c0 .0987-.08.1787-.1787.1787h-2.2878c-2.0798 0-3.7659 1.6861-3.7659 3.7659v3.697c0 1.0009.8118 1.8127 1.8127 1.8127h2.966c1.0009 0 1.8126-.8118 1.8126-1.8127v-6.9238c0-.0988.08-.1788.1788-.1788h4.9539 1.9699c1.001 0 1.8127-.8117 1.8127-1.8127v-2.9659c.0007-1.0016-.811-1.8134-1.812-1.8134z" opacity=".4"/></g></g></svg>