<svg width="200" height="200" viewBox="0 0 200 200" fill="none" xmlns="http://www.w3.org/2000/svg">
<path fill-rule="evenodd" clip-rule="evenodd" d="M100 0C44.7715 0 0 44.7715 0 100C0 155.228 44.7715 200 100 200C155.228 200 200 155.228 200 100C200 44.7715 155.228 0 100 0ZM153.524 69.4343C153.733 69.2795 153.89 69.2795 153.89 69.2795C154.594 69.837 155.109 70.5924 155.369 71.4458C155.338 71.4132 155.306 71.3808 155.274 71.3486C155.807 72.5394 156.133 73.8102 156.239 75.1079C156.232 75.3855 156.302 75.6596 156.439 75.9016C156.577 76.1436 156.778 76.3445 157.022 76.4833C157.459 76.7182 157.951 76.8367 158.449 76.8271C158.636 77.492 158.77 78.1703 158.849 78.8558C157.685 79.0799 156.481 78.9847 155.368 78.5807C154.725 78.2082 154.164 77.712 153.719 77.1213C153.273 76.5307 152.953 75.8577 152.775 75.1423C152.392 74.0935 151.888 72.9932 151.035 72.8901C150.182 72.7869 149.277 73.2683 147.902 74.6093C143.882 78.6151 139.931 78.6151 133.44 78.6151C130.634 78.6151 129.555 78.6151 128.628 78.2385C128.05 78.0031 127.531 77.6206 126.687 76.9991L126.687 76.999C125.956 76.3973 124.842 75.5893 123.206 74.5061L121.292 73.2683C118.316 71.3256 118.316 71.3256 116.871 68.2653C116.752 68.0159 116.624 67.7467 116.488 67.4569C116.068 66.5685 115.557 65.4872 114.887 64.1908C111.424 57.3482 112.26 49.1131 112.677 45.1417C112.764 44.2992 112.816 43.6631 112.816 43.2849C112.83 41.6664 112.76 40.0482 112.608 38.4367L121.309 45.1073C119.499 51.9154 120.631 57.0387 124.512 58.9643C125.738 59.5697 126.806 60.0039 127.671 60.3556L127.801 60.4084C130.046 61.3368 130.499 61.5947 130.499 62.4371C130.462 62.8635 130.573 63.2894 130.813 63.6454C131.054 64.0014 131.409 64.2663 131.821 64.3971L131.836 64.4035C132.232 64.5731 132.639 64.7478 132.639 66.6493C132.709 67.8833 133.115 69.0759 133.813 70.1015C134.512 71.1272 135.477 71.9479 136.607 72.4775C138.242 73.2834 140.069 73.6295 141.89 73.4779C143.71 73.3263 145.453 72.6828 146.928 71.6178C149.19 70.1049 150.582 69.5376 151.052 69.8986C151.94 70.5863 152.653 70.1737 153.28 69.6063L153.318 69.6378L153.524 69.4343ZM42.6804 72.5633C41.2466 74.4048 40.3499 76.5986 40.0872 78.9072C41.161 77.9409 41.8724 76.6443 42.1061 75.2281C42.1904 74.3206 42.3832 73.4261 42.6804 72.5633ZM39.9998 94.9825C40.0373 95.3692 40.0954 95.7537 40.1739 96.1343C40.6239 98.204 40.5642 100.35 39.9998 102.392V94.9825ZM41.9316 91.6815C42.6293 91.3445 43.2175 90.8212 43.6297 90.171C44.0418 89.5208 44.2615 88.7696 44.2637 88.0024C44.2475 86.8266 44.4896 85.6613 44.9733 84.5868C45.4571 83.5123 46.1709 82.5543 47.0657 81.7788C48.445 80.2309 49.7182 78.594 50.8771 76.879C53.1915 73.6773 56.4041 71.2149 60.1185 69.7957C62.3082 68.9311 64.3327 67.7044 66.1053 66.1681C68.4897 63.8128 68.6985 58.2253 67.9675 52.6894L45.4298 69.9161C44.7151 71.6272 44.1843 73.4078 43.846 75.2285C43.846 77.4463 42.0013 79.5094 39.9998 81.5037V94.1572C40.117 93.6293 40.3509 93.1336 40.6849 92.7055C41.0189 92.2775 41.4447 91.9278 41.9316 91.6815ZM46.9613 142.502C48.7017 143.791 48.7017 146.37 48.7017 147.556C47.0911 147.751 45.458 147.658 43.8809 147.281C43.5846 147.237 43.2865 147.188 42.9878 147.14L42.9874 147.139L42.9871 147.139C42.005 146.979 41.0168 146.817 40.0695 146.817V142.416C40.4031 142.273 40.7462 142.152 41.0963 142.055C43.759 141.401 45.7431 141.539 46.9613 142.502ZM56.5507 140.302C59.7704 138.841 62.5028 135.041 63.6862 130.365C64.5599 126.327 64.9165 122.198 64.7479 118.072C64.5296 114.307 64.9054 110.531 65.8617 106.88C66.8189 104.043 71.1872 94.089 74.4069 94.6392C76.1473 94.9142 76.1473 97.6306 76.1473 98.645C76.1179 100.991 76.5249 103.322 77.3481 105.522L77.3541 105.54C78.2038 108.075 78.8208 109.916 75.9906 114.118C71.953 120.118 68.42 136.468 70.2126 137.895C70.3344 137.998 71.0132 137.895 72.5099 136.468C81.3858 127.7 90.3313 127.7 98.9809 127.7C102.262 127.801 105.486 128.574 108.448 129.969C111.929 131.396 113.67 131.998 115.619 130.073C118.838 126.875 120.005 126.944 122.128 127.373C123.017 127.585 123.928 127.695 124.843 127.7C126.643 127.423 128.261 126.46 129.35 125.018C129.959 124.356 130.656 123.777 131.421 123.299C131.843 123.05 132.339 122.954 132.824 123.026C133.31 123.098 133.755 123.334 134.084 123.694C134.515 124.13 134.922 124.59 135.302 125.07L135.307 125.075C136.523 126.602 137.397 127.7 142.09 127.7C143.85 127.716 145.605 127.508 147.311 127.081C148.297 126.776 149.337 126.682 150.363 126.803C151.389 126.925 152.378 127.26 153.263 127.786C154.12 128.354 155.141 128.634 156.172 128.585C157.203 128.535 158.191 128.159 158.989 127.511V123.333C158.672 123.474 158.327 123.544 157.979 123.539C157.214 123.469 156.469 123.253 155.786 122.903C155.071 122.528 154.273 122.333 153.463 122.333C152.653 122.333 151.855 122.528 151.14 122.903C150.068 123.366 148.883 123.514 147.729 123.328C146.574 123.142 145.498 122.63 144.631 121.855C144.177 121.53 143.835 121.076 143.651 120.553C143.468 120.03 143.451 119.464 143.604 118.932C144.109 117.66 145.779 117.024 148.599 117.024C152.302 116.69 155.876 115.513 159.041 113.585V106.467C157.852 106.885 156.69 107.373 155.56 107.929L155.46 107.978C151.158 110.095 146.719 112.278 142.229 112.278C139.917 112.278 138.958 112.278 138.181 112.654C137.629 112.92 137.168 113.375 136.381 114.152C130.673 119.792 126.688 122.319 124.199 121.923C123.736 121.852 123.299 121.669 122.925 121.39C122.551 121.111 122.254 120.745 122.058 120.324C121.466 119.155 120.875 117.694 120.318 116.164C118.734 112.175 116.75 107.224 113.878 105.849C109.167 103.501 104.751 100.616 100.721 97.2524C100.412 96.9586 100.066 96.583 99.6621 96.1453C99.4516 95.9171 99.2254 95.672 98.9809 95.4128C96.5792 92.6276 92.9592 88.4327 88.0514 86.8167L86.6765 86.3697C81.1247 84.6504 78.8448 83.8596 78.8448 75.3666C78.8448 70.845 75.6077 65.7045 73.6237 63.5039C73.7279 63.744 73.8667 64.0182 74.0228 64.3268L74.0232 64.3275L74.0239 64.3289L74.024 64.3291C76.1125 68.4725 76.6694 75.315 67.3932 84.4785C66.7998 85.0917 66.2747 85.7661 65.8269 86.49C64.6199 88.4813 62.8297 90.064 60.6928 91.0288C59.9883 91.2638 59.3666 91.693 58.901 92.2657C58.4354 92.8384 58.1452 93.5307 58.0648 94.2609C57.8768 95.3497 57.34 96.3501 56.5333 97.1148C55.6979 97.9401 55.6979 98.2323 55.6979 98.645C55.7035 99.1701 55.5871 99.6896 55.3578 100.163C55.1285 100.637 54.7924 101.053 54.3753 101.379C53.2837 102.565 52.4802 103.982 52.0258 105.522C51.5245 106.934 50.9435 108.317 50.2854 109.665C49.6181 110.877 48.7866 111.993 47.8141 112.983C45.4124 115.631 43.846 117.367 47.9707 121.459C52.0954 125.551 53.9228 130.743 52.1824 133.769C51.4863 134.972 49.6415 136.829 44.9947 135.677L39.9998 134.388V136.262C44.1499 137.189 48.1748 138.597 51.991 140.457C52.7133 140.773 53.499 140.924 54.2889 140.897C55.0787 140.871 55.8521 140.667 56.5507 140.302ZM87.8773 110.645C88.5762 110.411 89.1923 109.984 89.6521 109.414C90.1118 108.844 90.3959 108.155 90.4705 107.43C90.6119 106.305 91.1188 105.255 91.915 104.439C94.3167 102.066 104.724 106.914 107.961 108.513C111.703 109.751 113.635 111.092 114.018 112.743C114.114 113.411 114.03 114.092 113.773 114.717C113.516 115.342 113.096 115.889 112.556 116.301C110.102 118.708 103.332 118.794 98.6328 116.456C97.0143 115.665 95.8482 116.319 94.1079 117.471C92.9452 118.439 91.5137 119.038 90.0006 119.19C89.2541 119.185 88.5198 119.002 87.8599 118.657C85.3538 117.419 84.1356 116.13 84.1356 114.703C84.1356 113.276 85.3538 111.883 87.8599 110.645H87.8773ZM93.1511 116.027C91.4107 117.179 90.2446 117.832 88.6261 117.041C86.8857 116.182 85.9807 115.322 85.9807 114.617C85.9807 113.912 86.9902 113.053 88.7305 112.193C89.6634 111.835 90.4801 111.233 91.0933 110.452C91.7064 109.671 92.0929 108.739 92.2113 107.758C92.2975 106.986 92.6332 106.263 93.1685 105.694C93.4121 105.513 93.7183 105.432 94.0212 105.471C96.1793 105.471 101.714 107.379 107.248 110.113H107.37C111.39 111.402 112.225 112.606 112.347 113.122C112.469 113.637 112.138 114.273 111.338 115.064C109.632 116.749 103.663 117.007 99.4164 114.91C96.8058 113.62 94.8914 114.875 93.1511 116.027ZM45.3428 134.009C47.9533 134.645 49.8155 134.267 50.5639 132.926C51.7125 130.915 50.5639 126.548 46.6306 122.611C41.4095 117.453 44.0375 114.393 46.4044 111.762C47.2875 110.909 48.0592 109.951 48.7017 108.909C49.5022 107.31 50.0069 106.037 50.442 104.92C50.9704 103.146 51.9054 101.517 53.1744 100.158C53.9924 99.3496 53.9924 99.0574 53.9924 98.6448C53.9889 98.1182 54.108 97.5978 54.3403 97.1239C54.5727 96.6499 54.9121 96.235 55.3325 95.9112C55.8843 95.3316 56.227 94.5882 56.3071 93.7965C56.4311 92.8045 56.8299 91.8655 57.4593 91.0829C58.0888 90.3003 58.9246 89.7045 59.8748 89.3609C61.7473 88.5215 63.3143 87.1355 64.365 85.3895C64.8557 84.5752 65.4396 83.8195 66.1053 83.1373C74.6157 74.7646 74.2155 68.5926 72.3707 64.965C71.048 62.3346 71.0828 61.5265 71.5701 60.942C71.7362 60.7631 71.9559 60.6415 72.1971 60.595C72.4384 60.5486 72.6883 60.5798 72.9102 60.6841C74.9812 61.475 80.4982 68.8677 80.4982 75.2288C80.4982 82.4668 81.7687 82.8794 87.129 84.5986L88.5213 85.0456C93.8171 86.7442 97.601 91.1276 100.125 94.0513L100.217 94.1576C100.366 94.3258 100.51 94.4892 100.647 94.6458C101.086 95.1452 101.465 95.5758 101.783 95.8768C105.69 99.1283 109.958 101.931 114.505 104.232C117.964 105.941 119.962 110.943 121.746 115.408L121.78 115.493C121.865 115.703 121.949 115.911 122.033 116.117C122.545 117.382 123.026 118.57 123.52 119.516C123.593 119.695 123.711 119.853 123.863 119.973C124.016 120.094 124.197 120.173 124.39 120.204C125.452 120.359 128.236 119.637 135.059 112.897C137.478 110.525 137.739 110.525 142.142 110.525C146.249 110.525 150.548 108.41 154.69 106.364C156.103 105.703 157.556 105.129 159.041 104.645V95.0859C157.823 95.1891 156.517 95.2407 155.073 95.2407C152.471 95.3617 149.886 94.7666 147.607 93.5214L147.573 93.5043C145.85 92.6362 144.584 91.9985 140.193 93.0916C131.568 95.2407 122.538 95.2407 113.913 93.0916C105.146 90.9306 98.5772 84.4918 96.3342 82.2931L96.2659 82.2261C95.8108 81.7629 95.1262 81.2025 94.3333 80.5535L94.3332 80.5535C94.1256 80.3835 93.9105 80.2075 93.6902 80.0255C90.836 77.7217 86.9898 74.5755 85.2494 71.3262C83.1087 67.0969 78.7056 56.2313 78.7056 49.6467C78.7267 47.9868 78.5869 46.3288 78.2879 44.6953L69.5861 51.4175C70.5085 57.2629 70.6129 64.1398 67.3932 67.3032C65.4817 69.0142 63.2779 70.3763 60.8842 71.3262C57.4665 72.634 54.5006 74.8836 52.339 77.8077C51.1358 79.5773 49.8222 81.2711 48.4058 82.8794C46.6654 84.8049 46.0215 85.5958 46.0215 88.0371C46.024 89.0794 45.7385 90.1026 45.1956 90.9964C44.6528 91.8901 43.8732 92.6205 42.9411 93.1088L42.9346 93.1135C42.1554 93.678 41.7054 94.004 41.7054 94.4154C41.7306 94.9067 41.7946 95.3953 41.8968 95.8768C42.7385 99.5818 42.0561 103.465 39.9998 106.674V132.6H40.1739C41.7402 133.064 43.4806 133.528 45.3428 134.009ZM145.796 120.496C145.24 120.049 145.24 119.654 145.24 119.465C145.344 119.19 146.162 118.674 148.581 118.674C152.259 118.411 155.829 117.329 159.023 115.511V121.012L158.762 121.27C158.188 121.889 157.805 121.803 156.448 121.27C155.504 120.795 154.461 120.547 153.402 120.547C152.343 120.547 151.299 120.795 150.356 121.27C149.6 121.582 148.77 121.675 147.963 121.538C147.155 121.401 146.404 121.04 145.796 120.496ZM157.666 156.496C156.47 157.372 155.214 158.165 153.907 158.868C155.408 158.551 156.743 157.708 157.666 156.496ZM97.4318 69.2977C95.0748 67.0791 92.9576 64.6247 91.1143 61.9737C86.9896 55.8533 86.9896 43.1654 86.9896 39.022V38.0077L95.5696 31.4058C95.9154 31.1386 96.2887 30.9081 96.6834 30.7181C96.556 32.0271 96.335 33.3254 96.0221 34.6036C94.5776 40.2942 95.9351 42.5636 97.0315 44.386C97.7256 45.3206 98.1142 46.4423 98.1453 47.601C98.5608 53.6175 100.052 59.5138 102.548 65.0168C102.744 65.3874 102.971 65.8487 103.227 66.3723L103.279 66.4781C106.134 72.3751 112.12 84.6504 118.699 82.467C120.37 81.8848 122.169 81.7563 123.908 82.095C125.647 82.4337 127.262 83.2271 128.584 84.3925L128.758 84.5645H128.985C129.35 84.6676 138.052 86.7479 144.77 82.3295C148.247 80.0279 148.511 80.4032 149.379 81.6382L149.382 81.6418C150.153 82.872 151.256 83.866 152.567 84.5129C153.88 85.0896 155.307 85.3658 156.744 85.3209C157.523 85.3127 158.302 85.2611 159.076 85.1662V87.298H152.95C150.966 87.3218 149.028 86.7195 147.415 85.5788C146.633 84.95 145.675 84.5733 144.67 84.4995C143.665 84.4257 142.661 84.6584 141.794 85.1662C137.617 87.2121 135.65 87.2121 131.352 87.2121C129.698 87.1612 128.061 86.8656 126.496 86.3353C123.887 85.502 121.162 85.0785 118.421 85.0802C111.946 85.0802 108.048 82.8108 104.01 76.8795C102.093 74.1312 99.8878 71.59 97.4318 69.2977ZM127.983 58.6334L127.983 58.6334C128.144 58.7006 128.298 58.765 128.445 58.8274L128.475 58.8396C130.652 59.7272 132.222 60.367 132.222 62.4378C132.211 62.5355 132.217 62.6343 132.239 62.7301L132.465 62.8332C133.423 63.2115 134.362 63.8304 134.362 66.6671C134.441 67.5986 134.769 68.4926 135.314 69.2571C135.858 70.0216 136.599 70.629 137.46 71.0168C138.811 71.6946 140.328 71.9817 141.837 71.8448C143.346 71.7079 144.785 71.1527 145.988 70.2431C148.929 68.2832 150.391 67.8878 151.383 68.2316L122.789 46.2598C121.693 50.9361 121.884 55.75 125.278 57.4176C126.299 57.9293 127.214 58.3117 127.982 58.6329L127.982 58.6331L127.982 58.6331L127.982 58.6331L127.983 58.6332L127.983 58.6334ZM98.5285 43.4571C99.3858 44.6558 99.8588 46.0814 99.886 47.5489C100.304 53.2972 101.735 58.9292 104.115 64.191C104.214 64.4032 104.33 64.6382 104.459 64.8959C104.58 65.1392 104.711 65.4029 104.846 65.6868C107.283 70.7069 113.008 82.4837 118.142 80.7988C120.076 80.1262 122.156 79.9708 124.17 80.3482C126.184 80.7256 128.061 81.6225 129.611 82.9478C130.934 83.2229 138.313 84.5295 143.795 80.8848C147.955 78.1512 149.243 78.4606 150.757 80.6613C151.355 81.6418 152.216 82.4392 153.246 82.965C155.069 83.6606 157.055 83.8276 158.971 83.4464V80.6785H157.44C156.473 80.7204 155.508 80.544 154.621 80.1627C153.771 79.6895 153.025 79.0534 152.427 78.2917C151.83 77.53 151.392 76.6581 151.14 75.7271C151.013 75.3072 150.825 74.9077 150.583 74.5408C150.051 74.8855 149.56 75.2893 149.121 75.7443C144.561 80.2486 139.88 80.2486 133.458 80.2486C128.515 80.2486 128.237 80.2486 125.661 78.2887C125.565 78.2186 125.465 78.1452 125.36 78.0687C124.594 77.5068 123.589 76.7703 122.18 75.8474L120.353 74.7643C117.011 72.6153 116.872 72.4949 115.288 69.0393C114.818 68.0421 114.209 66.7527 113.322 65.0163C109.644 57.734 110.505 49.2336 110.927 45.07L110.937 44.97C111.024 44.2136 111.077 43.629 111.077 43.2508C111.11 41.1393 110.965 39.0287 110.641 36.9412L103.454 31.4053C102.767 30.8585 101.974 30.4572 101.124 30.2265C100.273 29.9958 99.384 29.9406 98.5111 30.0643C98.3674 31.6979 98.0998 33.3185 97.7106 34.9125C96.4401 39.9842 97.4321 41.7379 98.5285 43.4571ZM94.4324 78.4081C91.783 76.2358 88.2699 73.3555 86.8684 70.5699C84.7799 66.4609 80.4986 55.9564 80.4986 49.664C80.495 47.5972 80.2498 45.5376 79.7677 43.5264L85.2498 39.3487C85.2498 43.9046 85.2498 56.4722 89.7226 62.9193C91.6401 65.6676 93.8451 68.2089 96.3012 70.5011C98.679 72.7097 100.809 75.1652 102.654 77.8251C106.935 84.2378 111.355 86.7995 118.421 86.7995C121.015 86.7498 123.6 87.1096 126.079 87.8654C127.801 88.4451 129.603 88.7639 131.422 88.811C135.278 89.1359 139.149 88.3665 142.578 86.5931C143.181 86.2096 143.897 86.0352 144.612 86.0974C145.328 86.1597 146.001 86.455 146.528 86.937C148.429 88.1989 150.677 88.8531 152.968 88.811H159.094V93.3497C157.875 93.5217 156.587 93.5217 155.126 93.5217C152.801 93.6512 150.488 93.1202 148.46 91.9915L148.371 91.9483C146.426 91.0034 144.747 90.188 139.758 91.4242C131.407 93.5041 122.665 93.5041 114.314 91.4242C105.943 89.3439 99.5731 83.0687 97.4846 81.0056C96.8407 80.4039 95.8835 79.5959 94.7696 78.6847L94.4324 78.4081ZM111.355 144.789C115.897 141.35 118.316 141.35 120.231 141.35C122.145 141.35 123.381 141.35 126.357 138.41C127.105 137.654 128.289 136.296 127.732 135.522C126.479 133.803 119.552 134.061 116.576 135.522C113.235 137.241 111.999 136.519 109.963 135.092C109.083 134.446 108.151 133.871 107.178 133.373C105.09 132.341 102.932 133.063 100.217 133.992C97.7527 134.959 95.1389 135.499 92.4894 135.591C88.1275 135.591 81.4087 139.876 76.4612 143.032L76.3214 143.121L75.8424 143.427L75.8419 143.427L75.8418 143.427C74.0294 144.586 72.4791 145.577 71.3265 146.147C70.5781 146.525 69.708 147.006 68.7159 147.574L68.6725 147.598C63.8515 150.332 56.5981 154.445 49.1716 152.611C45.6909 151.734 43.0107 151.906 41.4096 153.144C40.9395 153.52 40.5542 153.988 40.2783 154.519C40.6809 155.819 41.4951 156.956 42.6011 157.764C43.7071 158.571 45.0464 159.007 46.4218 159.007H61.5108C61.5108 155.568 62.0503 153.213 66.2968 151.098C68.7992 149.97 71.4368 149.161 74.1459 148.691C76.6325 148.185 79.0899 147.548 81.5076 146.783C83.3378 146.152 85.0449 145.216 86.5547 144.015C87.6485 142.965 89.0345 142.263 90.5351 141.996C92.0358 141.73 93.5828 141.912 94.9781 142.519C99.7989 144.101 101.94 145.579 102.131 147.316C102.322 149.052 100.112 150.153 99.416 150.496C97.7221 151.3 97.6769 151.549 97.4992 152.529L97.4842 152.611C97.0217 154.928 96.0406 157.113 94.6126 159.007H97.7279C101.439 153.553 106.045 148.748 111.355 144.789ZM130.482 141.229C130.482 147.281 124.06 148.88 120.579 148.88C115.897 148.88 113.513 151.235 109.249 155.568C108.147 156.656 107.107 157.804 106.134 159.006H99.8511C103.383 154.123 107.664 149.814 112.538 146.232C116.628 143.206 118.386 143.206 120.37 143.206C122.354 143.206 124.251 143.206 127.732 139.768C130.255 137.206 129.959 135.556 129.281 134.61C127.227 131.791 119.082 132.53 115.949 134.06C113.399 135.328 112.869 134.967 111.196 133.826L111.111 133.768C110.157 133.084 109.151 132.474 108.1 131.945C105.359 130.591 102.669 131.493 99.8069 132.453L99.7815 132.461C97.502 133.365 95.0828 133.877 92.6285 133.974C87.8781 133.974 81.2334 138.18 76.083 141.441L76.0829 141.441L75.5207 141.797C74.9156 142.167 74.3352 142.531 73.7876 142.874L73.7803 142.879L73.7795 142.879L73.7792 142.879L73.7784 142.88C72.5503 143.65 71.4877 144.316 70.6825 144.719C70.0788 145.018 69.3886 145.401 68.6204 145.828L68.6181 145.829C68.4126 145.944 68.2015 146.061 67.9849 146.181L67.8166 146.276C63.2394 148.873 56.416 152.744 49.7285 151.046C45.7082 150.032 42.5234 150.324 40.4871 151.889C40.3391 152.023 40.1997 152.167 40.0695 152.318V148.536C40.9673 148.609 41.9771 148.755 42.9937 148.903L42.9939 148.903C43.1793 148.93 43.3649 148.956 43.5502 148.983C46.8395 149.464 48.7539 149.705 49.7459 148.863C49.9302 148.709 50.0775 148.517 50.1769 148.299C50.2762 148.082 50.3252 147.846 50.3202 147.608C50.3202 146.301 50.3202 142.863 47.9707 141.143C46.3 139.854 43.8112 139.596 40.609 140.387C40.5243 140.408 40.4425 140.446 40.3613 140.483L40.3612 140.483L40.361 140.483L40.3609 140.483C40.2418 140.539 40.1239 140.593 39.9998 140.593V137.997C43.8701 138.914 47.6239 140.258 51.1904 142.003C52.1475 142.435 53.1913 142.647 54.2433 142.623C55.2954 142.599 56.3282 142.34 57.2643 141.865C61.0061 140.163 64.0343 135.951 65.357 130.794C66.2686 126.616 66.6429 122.341 66.4708 118.071C66.2606 114.493 66.6069 110.904 67.4976 107.429C69.3598 101.893 73.0494 96.3057 74.0414 96.3057C74.0414 96.3057 74.4243 96.6496 74.4243 98.6439C74.4019 101.153 74.8382 103.646 75.7122 106.002C76.5127 108.392 76.913 109.63 74.5635 113.068C71.5005 117.607 65.6529 136.295 69.1336 139.115C70.2648 140.026 71.7963 139.51 73.7456 137.567C82.1167 129.315 90.2965 129.315 98.9983 129.315C102.054 129.415 105.054 130.147 107.805 131.464C111.129 132.908 114.139 133.871 116.854 131.189C119.569 128.507 120.179 128.627 121.797 128.954C122.804 129.21 123.838 129.355 124.878 129.384C126.001 129.259 127.088 128.913 128.075 128.367C129.061 127.821 129.927 127.085 130.621 126.203C131.106 125.67 131.656 125.196 132.257 124.793C132.553 124.57 132.657 124.57 132.883 124.793C133.274 125.185 133.634 125.605 133.962 126.048L133.985 126.076C135.334 127.734 136.621 129.315 142.125 129.315C144.013 129.329 145.896 129.11 147.729 128.662C148.517 128.39 149.357 128.298 150.186 128.393C151.015 128.489 151.811 128.768 152.515 129.212C153.486 129.805 154.596 130.139 155.737 130.181C156.878 130.223 158.01 129.972 159.024 129.453V133.046C156.807 132.941 154.591 133.286 152.515 134.06C148.39 136.106 144.3 136.106 139.967 136.106C139.111 136.092 138.257 136.035 137.408 135.934C135.302 135.711 133.318 135.504 131.926 136.742C131.38 137.348 130.969 138.061 130.72 138.834C130.471 139.607 130.39 140.423 130.482 141.229ZM134.949 151.855L134.981 151.842L134.981 151.842C137.381 150.886 139.812 149.918 141.741 148.95C143.702 147.885 145.467 146.502 146.963 144.858C148.584 143.096 150.482 141.604 152.584 140.439L154.69 139.339C156.075 138.515 157.553 137.851 159.093 137.362V134.766C157.146 134.66 155.198 134.946 153.367 135.608C148.877 137.826 144.387 137.826 140.036 137.826C139.116 137.816 138.198 137.753 137.286 137.637L137.179 137.626C135.482 137.458 133.963 137.308 133.161 138.015C132.458 138.934 132.146 140.088 132.291 141.23C132.291 147.677 126.252 150.6 120.648 150.6C116.698 150.6 114.748 152.526 110.484 156.738C109.719 157.494 109.04 158.251 108.396 159.007H121.014C122.761 157.569 124.678 156.346 126.722 155.362C128.706 154.35 131.237 153.338 133.733 152.34L134.258 152.13C134.488 152.038 134.718 151.947 134.949 151.855ZM158.989 144.754C157.237 145.679 155.621 146.836 154.186 148.192C151.911 150.413 149.173 152.114 146.162 153.178C142.144 154.61 138.339 156.571 134.85 159.006H123.816C124.97 158.227 126.18 157.532 127.436 156.926C129.559 155.877 132.239 154.811 134.902 153.763L135.128 153.674C137.721 152.653 140.394 151.6 142.508 150.548C144.616 149.392 146.515 147.899 148.129 146.129C149.625 144.486 151.39 143.103 153.35 142.038L155.508 140.903C156.613 140.227 157.778 139.651 158.989 139.184V144.754ZM158.954 153.213V152.663V146.68C157.637 147.496 156.402 148.435 155.265 149.482C152.815 151.851 149.876 153.669 146.65 154.812C143.591 155.863 140.669 157.272 137.948 159.007H149.156C152.668 157.767 155.901 155.863 158.676 153.402C158.774 153.347 158.867 153.284 158.954 153.213ZM100.373 147.454C100.373 147.763 99.955 148.314 98.6323 148.967C96.3176 150.119 96.0566 150.91 95.7781 152.319C95.241 154.782 94.113 157.082 92.4888 159.024H63.2506C63.3029 155.775 63.7031 154.382 67.0795 152.663C69.4477 151.598 71.9456 150.841 74.5108 150.411C77.0514 149.887 79.5612 149.227 82.0292 148.434C84.0431 147.75 85.9216 146.726 87.581 145.408C88.4501 144.526 89.5754 143.933 90.801 143.711C92.0265 143.49 93.2915 143.65 94.4206 144.17C99.9898 146.01 100.373 147.144 100.373 147.454Z" fill="black"/>
</svg>
